<?xml version="1.0" encoding="utf-8"?>
<!-- Generator: Adobe Illustrator 25.0.1, SVG Export Plug-In . SVG Version: 6.00 Build 0)  -->
<svg version="1.1" id="Layer_1" xmlns="http://www.w3.org/2000/svg" xmlns:xlink="http://www.w3.org/1999/xlink" x="0px" y="0px"
	 viewBox="0 0 235.6 196.7" style="enable-background:new 0 0 235.6 196.7;" xml:space="preserve">
<style type="text/css">
	.st0{fill:url(#SVGID_1_);}
	.st1{fill:url(#SVGID_2_);}
	.st2{opacity:0.4;fill:url(#SVGID_3_);}
	.st3{fill:url(#SVGID_4_);}
	.st4{fill:url(#SVGID_5_);}
	.st5{fill:url(#SVGID_6_);}
	.st6{fill:url(#SVGID_7_);}
	.st7{fill:url(#SVGID_8_);}
	.st8{fill:url(#SVGID_9_);}
	.st9{fill:url(#SVGID_10_);}
	.st10{fill:url(#SVGID_11_);}
	.st11{fill:url(#SVGID_12_);}
	.st12{fill:url(#SVGID_13_);}
	.st13{fill:url(#SVGID_14_);}
	.st14{opacity:0.4;fill:url(#SVGID_15_);}
	.st15{opacity:0.2;fill:url(#SVGID_16_);}
	.st16{fill:url(#SVGID_17_);}
	.st17{fill:url(#SVGID_18_);}
	.st18{fill:url(#SVGID_19_);}
	.st19{opacity:0.4;fill:url(#SVGID_20_);}
	.st20{opacity:0.2;fill:url(#SVGID_21_);}
</style>
<g>
	<g>
		
			<radialGradient id="SVGID_1_" cx="-62.9634" cy="58.8891" r="108.7097" gradientTransform="matrix(-1 0 0 1 61.6729 0)" gradientUnits="userSpaceOnUse">
			<stop  offset="0" style="stop-color:#FFF8C7"/>
			<stop  offset="0.1559" style="stop-color:#FFE436"/>
			<stop  offset="1" style="stop-color:#FE761C"/>
		</radialGradient>
		<path class="st0" d="M54.3,94.8c0,31.6,25.6,57.3,57.3,57.3c31.6,0,57.3-25.6,57.3-57.3c0-31.6-25.6-57.3-57.3-57.3
			C79.9,37.5,54.3,63.2,54.3,94.8z"/>
		<g>
			
				<radialGradient id="SVGID_2_" cx="1154.0876" cy="-1825.5029" r="16.3181" gradientTransform="matrix(-0.8392 1.1536 -1.6186 -1.3126 -1852.291 -3657.437)" gradientUnits="userSpaceOnUse">
				<stop  offset="0" style="stop-color:#FFFFFF"/>
				<stop  offset="1" style="stop-color:#FFFFFF;stop-opacity:0"/>
			</radialGradient>
			<path class="st1" d="M120.3,88.9c-14.6-11.8-20.3-29.8-12.7-40.2c7.6-10.4,25.5-9.2,40.1,2.6c14.6,11.8,20.3,29.9,12.7,40.2
				C152.8,101.9,134.8,100.7,120.3,88.9z"/>
			
				<radialGradient id="SVGID_3_" cx="-2904.4934" cy="2928.6238" r="15.7463" gradientTransform="matrix(-1.1717 -1.1007 0.222 -0.7283 -3973.9724 -939.2783)" gradientUnits="userSpaceOnUse">
				<stop  offset="0" style="stop-color:#FFFFFF"/>
				<stop  offset="1" style="stop-color:#FFFFFF;stop-opacity:0"/>
			</radialGradient>
			<path class="st2" d="M60.9,107.4c1.9-6.3,11.8-3.7,21.9,5.9c10.2,9.6,16.9,22.5,15,28.8c-1.9,6.3-11.7,3.7-21.9-5.9
				C65.7,126.7,59,113.8,60.9,107.4z"/>
		</g>
		<radialGradient id="SVGID_4_" cx="112.8041" cy="7.3046" r="18.9162" gradientUnits="userSpaceOnUse">
			<stop  offset="0" style="stop-color:#FFF8C7"/>
			<stop  offset="0.1559" style="stop-color:#FFE436"/>
			<stop  offset="1" style="stop-color:#FE761C"/>
		</radialGradient>
		<path class="st3" d="M118.5,20.6c0,3.8-3.1,6.9-6.9,6.9l0,0c-3.8,0-6.9-3.1-6.9-6.9v-9.9c0-3.8,3.1-6.9,6.9-6.9l0,0
			c3.8,0,6.9,3.1,6.9,6.9V20.6z"/>
		
			<radialGradient id="SVGID_5_" cx="517.1673" cy="-233.2036" r="18.9158" gradientTransform="matrix(0.7071 -0.7071 0.7071 0.7071 -150.2216 562.6225)" gradientUnits="userSpaceOnUse">
			<stop  offset="0" style="stop-color:#FFF8C7"/>
			<stop  offset="0.1559" style="stop-color:#FFE436"/>
			<stop  offset="1" style="stop-color:#FE761C"/>
		</radialGradient>
		<path class="st4" d="M64,37.4c2.7,2.7,2.7,7.1,0,9.8l0,0c-2.7,2.7-7.1,2.7-9.8,0l-7-7c-2.7-2.7-2.7-7.1,0-9.8l0,0
			c2.7-2.7,7.1-2.7,9.8,0L64,37.4z"/>
		
			<radialGradient id="SVGID_6_" cx="973.0697" cy="-117.5285" r="18.9159" gradientTransform="matrix(0 -1 1 0 141.5769 1066.6016)" gradientUnits="userSpaceOnUse">
			<stop  offset="0" style="stop-color:#FFF8C7"/>
			<stop  offset="0.1559" style="stop-color:#FFE436"/>
			<stop  offset="1" style="stop-color:#FE761C"/>
		</radialGradient>
		<path class="st5" d="M37.3,87.9c3.8,0,6.9,3.1,6.9,6.9l0,0c0,3.8-3.1,6.9-6.9,6.9h-9.9c-3.8,0-6.9-3.1-6.9-6.9l0,0
			c0-3.8,3.1-6.9,6.9-6.9H37.3z"/>
		
			<radialGradient id="SVGID_7_" cx="1213.7419" cy="286.8316" r="18.9157" gradientTransform="matrix(-0.7071 -0.7071 0.7071 -0.7071 704.1986 1216.8221)" gradientUnits="userSpaceOnUse">
			<stop  offset="0" style="stop-color:#FFF8C7"/>
			<stop  offset="0.1559" style="stop-color:#FFE436"/>
			<stop  offset="1" style="stop-color:#FE761C"/>
		</radialGradient>
		<path class="st6" d="M54.2,142.3c2.7-2.7,7.1-2.7,9.8,0l0,0c2.7,2.7,2.7,7.1,0,9.8l-7,7c-2.7,2.7-7.1,2.7-9.8,0l0,0
			c-2.7-2.7-2.7-7.1,0-9.8L54.2,142.3z"/>
		
			<radialGradient id="SVGID_8_" cx="1097.9004" cy="742.7391" r="18.9166" gradientTransform="matrix(-1 0 0 -1 1208.1758 925.0254)" gradientUnits="userSpaceOnUse">
			<stop  offset="0" style="stop-color:#FFF8C7"/>
			<stop  offset="0.1559" style="stop-color:#FFE436"/>
			<stop  offset="1" style="stop-color:#FE761C"/>
		</radialGradient>
		<path class="st7" d="M104.6,169c0-3.8,3.1-6.9,6.9-6.9l0,0c3.8,0,6.9,3.1,6.9,6.9l0,9.9c0,3.8-3.1,6.9-6.9,6.9l0,0
			c-3.8,0-6.9-3.1-6.9-6.9L104.6,169z"/>
		
			<radialGradient id="SVGID_9_" cx="693.7029" cy="983.4103" r="18.9159" gradientTransform="matrix(-0.7071 0.7071 -0.7071 -0.7071 1358.4003 362.4059)" gradientUnits="userSpaceOnUse">
			<stop  offset="0" style="stop-color:#FFF8C7"/>
			<stop  offset="0.1559" style="stop-color:#FFE436"/>
			<stop  offset="1" style="stop-color:#FE761C"/>
		</radialGradient>
		<path class="st8" d="M159.1,152.2c-2.7-2.7-2.7-7.1,0-9.8l0,0c2.7-2.7,7.1-2.7,9.8,0l7,7c2.7,2.7,2.7,7.1,0,9.8l0,0
			c-2.7,2.7-7.1,2.7-9.8,0L159.1,152.2z"/>
		
			<radialGradient id="SVGID_10_" cx="237.6306" cy="867.5726" r="18.9143" gradientTransform="matrix(0 1 -1 0 1066.6055 -141.5742)" gradientUnits="userSpaceOnUse">
			<stop  offset="0" style="stop-color:#FFF8C7"/>
			<stop  offset="0.1559" style="stop-color:#FFE436"/>
			<stop  offset="1" style="stop-color:#FE761C"/>
		</radialGradient>
		<path class="st9" d="M185.7,101.7c-3.8,0-6.9-3.1-6.9-6.9l0,0c0-3.8,3.1-6.9,6.9-6.9h9.9c3.8,0,6.9,3.1,6.9,6.9l0,0
			c0,3.8-3.1,6.9-6.9,6.9H185.7z"/>
		
			<radialGradient id="SVGID_11_" cx="-2.8748" cy="463.3741" r="18.9158" gradientTransform="matrix(0.7071 0.7071 -0.7071 0.7071 503.984 -291.7987)" gradientUnits="userSpaceOnUse">
			<stop  offset="0" style="stop-color:#FFF8C7"/>
			<stop  offset="0.1559" style="stop-color:#FFE436"/>
			<stop  offset="1" style="stop-color:#FE761C"/>
		</radialGradient>
		<path class="st10" d="M168.9,47.2c-2.7,2.7-7.1,2.7-9.8,0l0,0c-2.7-2.7-2.7-7.1,0-9.8l7-7c2.7-2.7,7.1-2.7,9.8,0l0,0
			c2.7,2.7,2.7,7.1,0,9.8L168.9,47.2z"/>
	</g>
	<g>
		
			<radialGradient id="SVGID_12_" cx="1474.6005" cy="117.4184" r="98.3914" gradientTransform="matrix(-1 0 0 1 1521.1875 0)" gradientUnits="userSpaceOnUse">
			<stop  offset="0" style="stop-color:#FFFFFF"/>
			<stop  offset="0.198" style="stop-color:#D9F7FF"/>
			<stop  offset="1" style="stop-color:#89C0F5"/>
		</radialGradient>
		<path class="st11" d="M61.4,106.5c18.7,0,34.3,12.9,38.5,30.3c3.4-1.6,7.2-2.6,11.2-2.6c14.2,0,25.8,11.5,25.8,25.8
			c0,14.2-11.5,25.8-25.8,25.8H61.4c-21.9,0-39.6-17.7-39.6-39.6C21.8,124.3,39.6,106.5,61.4,106.5z"/>
		<radialGradient id="SVGID_13_" cx="78.463" cy="116.6984" r="84.0422" gradientUnits="userSpaceOnUse">
			<stop  offset="0" style="stop-color:#FFE436"/>
			<stop  offset="1.982603e-02" style="stop-color:#FFDF35;stop-opacity:0.9742"/>
			<stop  offset="0.1739" style="stop-color:#FFB92C;stop-opacity:0.7739"/>
			<stop  offset="0.3276" style="stop-color:#FE9C25;stop-opacity:0.5739"/>
			<stop  offset="0.4791" style="stop-color:#FE8720;stop-opacity:0.3768"/>
			<stop  offset="0.6274" style="stop-color:#FE7A1D;stop-opacity:0.1839"/>
			<stop  offset="0.7688" style="stop-color:#FE761C;stop-opacity:0"/>
		</radialGradient>
		<path class="st12" d="M61.4,106.5c18.7,0,34.3,12.9,38.5,30.3c3.4-1.6,7.2-2.6,11.2-2.6c14.2,0,25.8,11.5,25.8,25.8
			c0,14.2-11.5,25.8-25.8,25.8H61.4c-21.9,0-39.6-17.7-39.6-39.6C21.8,124.3,39.6,106.5,61.4,106.5z"/>
		
			<radialGradient id="SVGID_14_" cx="594.643" cy="-2363.6633" r="11.5458" gradientTransform="matrix(0.8392 1.1536 1.6186 -1.3126 3373.4785 -3657.437)" gradientUnits="userSpaceOnUse">
			<stop  offset="0" style="stop-color:#FFFFFF"/>
			<stop  offset="1" style="stop-color:#FFFFFF;stop-opacity:0"/>
		</radialGradient>
		<path class="st13" d="M56.4,144.4c10.3-8.4,14.3-21.1,9-28.5c-5.4-7.4-18.1-6.5-28.4,1.8c-10.3,8.4-14.3,21.1-9,28.5
			C33.3,153.6,46,152.8,56.4,144.4z"/>
		
			<radialGradient id="SVGID_15_" cx="628.7293" cy="-2346.5603" r="6.3453" gradientTransform="matrix(0.8392 1.1536 1.6186 -1.3126 3373.4785 -3657.437)" gradientUnits="userSpaceOnUse">
			<stop  offset="0" style="stop-color:#FFFFFF"/>
			<stop  offset="1" style="stop-color:#FFFFFF;stop-opacity:0"/>
		</radialGradient>
		<path class="st14" d="M108.3,155.3c5.7-4.6,7.9-11.6,4.9-15.6c-2.9-4-9.9-3.6-15.6,1c-5.7,4.6-7.9,11.6-4.9,15.6
			C95.6,160.3,102.6,159.9,108.3,155.3z"/>
		
			<radialGradient id="SVGID_16_" cx="1560.4563" cy="225.9108" r="6.6347" gradientTransform="matrix(-0.7056 -0.4583 -1.3993 1.8312 1541.2008 472.7396)" gradientUnits="userSpaceOnUse">
			<stop  offset="0" style="stop-color:#FFFFFF"/>
			<stop  offset="1" style="stop-color:#FFFFFF;stop-opacity:0"/>
		</radialGradient>
		<path class="st15" d="M120.9,165.3c6.2-6.3,12.7-8.8,14.4-5.5c1.7,3.3-2,11-8.2,17.3c-6.2,6.3-12.7,8.8-14.4,5.5
			C111,179.4,114.6,171.6,120.9,165.3z"/>
	</g>
	<g>
		
			<radialGradient id="SVGID_17_" cx="-685.9928" cy="69.5223" r="78.0255" gradientTransform="matrix(1 0 0 1 891.3594 0)" gradientUnits="userSpaceOnUse">
			<stop  offset="0" style="stop-color:#FFFFFF"/>
			<stop  offset="0.198" style="stop-color:#D9F7FF"/>
			<stop  offset="1" style="stop-color:#89C0F5"/>
		</radialGradient>
		<path class="st16" d="M193.6,60.9c-14.8,0-27.2,10.2-30.5,24c-2.7-1.3-5.7-2.1-8.9-2.1c-11.3,0-20.4,9.2-20.4,20.4
			s9.2,20.4,20.4,20.4h39.4c17.4,0,31.4-14.1,31.4-31.4C225,75,210.9,60.9,193.6,60.9z"/>
		<radialGradient id="SVGID_18_" cx="129.4648" cy="94.0304" r="104.6057" gradientUnits="userSpaceOnUse">
			<stop  offset="0" style="stop-color:#FFE436"/>
			<stop  offset="1.982603e-02" style="stop-color:#FFDF35;stop-opacity:0.9742"/>
			<stop  offset="0.1739" style="stop-color:#FFB92C;stop-opacity:0.7739"/>
			<stop  offset="0.3276" style="stop-color:#FE9C25;stop-opacity:0.5739"/>
			<stop  offset="0.4791" style="stop-color:#FE8720;stop-opacity:0.3768"/>
			<stop  offset="0.6274" style="stop-color:#FE7A1D;stop-opacity:0.1839"/>
			<stop  offset="0.7688" style="stop-color:#FE761C;stop-opacity:0"/>
		</radialGradient>
		<path class="st17" d="M193.6,60.9c-14.8,0-27.2,10.2-30.5,24c-2.7-1.3-5.7-2.1-8.9-2.1c-11.3,0-20.4,9.2-20.4,20.4
			s9.2,20.4,20.4,20.4h39.4c17.4,0,31.4-14.1,31.4-31.4C225,75,210.9,60.9,193.6,60.9z"/>
		
			<radialGradient id="SVGID_19_" cx="1522.2618" cy="-1509.7657" r="9.156" gradientTransform="matrix(-0.8392 1.1536 -1.6186 -1.3126 -960.9316 -3657.437)" gradientUnits="userSpaceOnUse">
			<stop  offset="0" style="stop-color:#FFFFFF"/>
			<stop  offset="1" style="stop-color:#FFFFFF;stop-opacity:0"/>
		</radialGradient>
		<path class="st18" d="M197.6,90.9c-8.2-6.6-11.4-16.7-7.1-22.6c4.2-5.8,14.3-5.2,22.5,1.5c8.2,6.6,11.4,16.8,7.1,22.6
			C215.9,98.2,205.8,97.6,197.6,90.9z"/>
		
			<radialGradient id="SVGID_20_" cx="1549.2919" cy="-1496.2026" r="5.0324" gradientTransform="matrix(-0.8392 1.1536 -1.6186 -1.3126 -960.9316 -3657.437)" gradientUnits="userSpaceOnUse">
			<stop  offset="0" style="stop-color:#FFFFFF"/>
			<stop  offset="1" style="stop-color:#FFFFFF;stop-opacity:0"/>
		</radialGradient>
		<path class="st19" d="M156.4,99.5c-4.5-3.7-6.3-9.2-3.9-12.4c2.3-3.2,7.9-2.8,12.4,0.8c4.5,3.7,6.2,9.2,3.9,12.4
			C166.5,103.6,160.9,103.2,156.4,99.5z"/>
		
			<radialGradient id="SVGID_21_" cx="-900.2767" cy="-301.4911" r="5.2615" gradientTransform="matrix(0.7056 -0.4583 1.3993 1.8312 1201.1326 251.6413)" gradientUnits="userSpaceOnUse">
			<stop  offset="0" style="stop-color:#FFFFFF"/>
			<stop  offset="1" style="stop-color:#FFFFFF;stop-opacity:0"/>
		</radialGradient>
		<path class="st20" d="M146.5,107.5c-4.9-5-10.1-7-11.4-4.4c-1.4,2.6,1.6,8.7,6.5,13.7c4.9,5,10.1,7,11.4,4.4
			C154.3,118.6,151.4,112.5,146.5,107.5z"/>
	</g>
</g>
</svg>
