<?xml version="1.0" encoding="utf-8"?>
<!-- Generator: Adobe Illustrator 25.0.1, SVG Export Plug-In . SVG Version: 6.00 Build 0)  -->
<svg version="1.1" id="Layer_1" xmlns="http://www.w3.org/2000/svg" xmlns:xlink="http://www.w3.org/1999/xlink" x="0px" y="0px"
	 viewBox="0 0 235.6 196.7" style="enable-background:new 0 0 235.6 196.7;" xml:space="preserve">
<style type="text/css">
	.st0{fill:url(#SVGID_1_);}
	.st1{fill:#B0B1B6;}
	.st2{fill:url(#SVGID_2_);}
	.st3{opacity:0.4;fill:url(#SVGID_3_);}
	.st4{fill:url(#SVGID_4_);}
	.st5{fill:url(#SVGID_5_);}
	.st6{opacity:0.4;fill:url(#SVGID_6_);enable-background:new    ;}
	.st7{opacity:0.2;fill:url(#SVGID_7_);enable-background:new    ;}
	.st8{fill:url(#SVGID_8_);}
	.st9{fill:url(#SVGID_9_);}
	.st10{opacity:0.4;fill:url(#SVGID_10_);enable-background:new    ;}
	.st11{opacity:0.2;fill:url(#SVGID_11_);enable-background:new    ;}
</style>
<g>
	
		<radialGradient id="SVGID_1_" cx="-64.8425" cy="44.1096" r="113.2102" gradientTransform="matrix(-1 0 0 1 61.6729 0)" gradientUnits="userSpaceOnUse">
		<stop  offset="0" style="stop-color:#FCFCFC"/>
		<stop  offset="0.1559" style="stop-color:#F1EDF5"/>
		<stop  offset="1" style="stop-color:#9FA1A6"/>
	</radialGradient>
	<path class="st0" d="M53.2,81.5c0,32.9,26.7,59.6,59.6,59.6c32.9,0,59.6-26.7,59.6-59.6c0-32.9-26.7-59.6-59.6-59.6
		C79.9,21.9,53.2,48.6,53.2,81.5z"/>
	<g>
		<path class="st1" d="M71.2,92.1c5.6-0.5,9.6-6.9,8.9-14.2c-0.7-7.3-5.7-12.9-11.3-12.4c-5.6,0.5-9.6,6.9-8.9,14.2
			C60.5,87,65.6,92.6,71.2,92.1z"/>
		<path class="st1" d="M66.3,97.4c-3.4,1.8-4.2,6.8-1.9,11.2c2.3,4.4,6.9,6.5,10.3,4.8c3.4-1.8,4.2-6.8,1.9-11.1
			C74.3,97.8,69.7,95.6,66.3,97.4z"/>
		<path class="st1" d="M79.6,92.1c-2,1-2.5,4-1.1,6.6c1.4,2.6,4.1,3.9,6.1,2.8c2-1,2.5-4,1.1-6.6C84.3,92.3,81.6,91,79.6,92.1z"/>
		<path class="st1" d="M168,83.7c-1-7.3-6.4-12.6-12-11.8c-5.6,0.8-9.2,7.3-8.2,14.6c1,7.3,6.4,12.6,11.9,11.8
			C165.3,97.5,169,91,168,83.7z"/>
		<path class="st1" d="M160.6,66.3c3.3-1.9,3.9-7,1.3-11.2c-2.5-4.3-7.2-6.2-10.5-4.2c-3.3,1.9-3.9,7-1.3,11.2
			C152.6,66.3,157.3,68.2,160.6,66.3z"/>
		<path class="st1" d="M148.4,65.6c-1.5-2.5-4.3-3.6-6.2-2.5c-1.9,1.1-2.3,4.1-0.8,6.6c1.5,2.5,4.3,3.6,6.2,2.5
			C149.5,71.1,149.9,68.2,148.4,65.6z"/>
	</g>
	<g>
		
			<radialGradient id="SVGID_2_" cx="1145.2827" cy="-1822.3376" r="16.9936" gradientTransform="matrix(-0.8392 1.1536 -1.6186 -1.3126 -1852.291 -3657.437)" gradientUnits="userSpaceOnUse">
			<stop  offset="0" style="stop-color:#FFFFFF"/>
			<stop  offset="1" style="stop-color:#FFFFFF;stop-opacity:0"/>
		</radialGradient>
		<path class="st2" d="M122,75.4c-15.2-12.3-21.1-31.1-13.2-41.9c7.9-10.8,26.6-9.6,41.8,2.7c15.2,12.3,21.1,31.1,13.2,41.9
			C155.8,88.9,137.1,87.7,122,75.4z"/>
		
			<radialGradient id="SVGID_3_" cx="-2902.0596" cy="2941.4922" r="16.3993" gradientTransform="matrix(-1.1717 -1.1007 0.222 -0.7283 -3973.9724 -939.2783)" gradientUnits="userSpaceOnUse">
			<stop  offset="0" style="stop-color:#FFFFFF"/>
			<stop  offset="1" style="stop-color:#FFFFFF;stop-opacity:0"/>
		</radialGradient>
		<path class="st3" d="M60.2,94.7c2-6.6,12.2-3.9,22.9,6.1c10.6,10,17.6,23.4,15.6,30c-2,6.6-12.2,3.9-22.9-6.1
			C65.1,114.7,58.2,101.3,60.2,94.7z"/>
	</g>
</g>
<radialGradient id="SVGID_4_" cx="212.0039" cy="91.5463" r="98.3914" gradientTransform="matrix(-1 0 0 -1 259.1875 198)" gradientUnits="userSpaceOnUse">
	<stop  offset="0" style="stop-color:#FFFFFF"/>
	<stop  offset="0.198" style="stop-color:#D9F7FF"/>
	<stop  offset="1" style="stop-color:#89C0F5"/>
</radialGradient>
<path class="st4" d="M62,95.5c18.7,0,34.3,12.9,38.5,30.3c3.4-1.6,7.2-2.6,11.2-2.6c14.2,0,25.8,11.5,25.8,25.8
	c0,14.2-11.5,25.8-25.8,25.8H62c-21.9,0-39.6-17.7-39.6-39.6C22.4,113.3,40.2,95.5,62,95.5z"/>
<radialGradient id="SVGID_5_" cx="591.841" cy="3148.1414" r="11.5582" gradientTransform="matrix(0.8392 1.1536 -1.6186 1.3126 4646.2051 -4694.9126)" gradientUnits="userSpaceOnUse">
	<stop  offset="0" style="stop-color:#FFFFFF"/>
	<stop  offset="1" style="stop-color:#FFFFFF;stop-opacity:0"/>
</radialGradient>
<path class="st5" d="M57,133.4c10.3-8.4,14.3-21.1,9-28.5c-5.4-7.4-18.1-6.5-28.4,1.8c-10.3,8.4-14.3,21.1-9,28.5
	C33.9,142.6,46.6,141.8,57,133.4z"/>
<radialGradient id="SVGID_6_" cx="625.9379" cy="3131.0576" r="6.3453" gradientTransform="matrix(0.8392 1.1536 -1.6186 1.3126 4646.2051 -4694.9126)" gradientUnits="userSpaceOnUse">
	<stop  offset="0" style="stop-color:#FFFFFF"/>
	<stop  offset="1" style="stop-color:#FFFFFF;stop-opacity:0"/>
</radialGradient>
<path class="st6" d="M108.9,144.3c5.7-4.6,7.9-11.6,4.9-15.6c-2.9-4-9.9-3.6-15.6,1c-5.7,4.6-7.9,11.6-4.9,15.6
	C96.2,149.3,103.2,148.9,108.9,144.3z"/>
<radialGradient id="SVGID_7_" cx="-131.9833" cy="539.2221" r="6.6347" gradientTransform="matrix(-0.7056 -0.4583 1.3993 -1.8312 -723.0385 1087.2411)" gradientUnits="userSpaceOnUse">
	<stop  offset="0" style="stop-color:#FFFFFF"/>
	<stop  offset="1" style="stop-color:#FFFFFF;stop-opacity:0"/>
</radialGradient>
<path class="st7" d="M121.5,154.3c6.2-6.3,12.7-8.8,14.4-5.5s-2,11-8.2,17.3s-12.7,8.8-14.4,5.5
	C111.6,168.4,115.2,160.6,121.5,154.3z"/>
<radialGradient id="SVGID_8_" cx="-685.3962" cy="139.4424" r="78.0255" gradientTransform="matrix(1 0 0 -1 891.3594 198)" gradientUnits="userSpaceOnUse">
	<stop  offset="0" style="stop-color:#FFFFFF"/>
	<stop  offset="0.198" style="stop-color:#D9F7FF"/>
	<stop  offset="1" style="stop-color:#89C0F5"/>
</radialGradient>
<path class="st8" d="M194.2,49.9c-14.8,0-27.2,10.2-30.5,24c-2.7-1.3-5.7-2.1-8.9-2.1c-11.3,0-20.4,9.2-20.4,20.4
	s9.2,20.4,20.4,20.4h39.4c17.4,0,31.4-14.1,31.4-31.4C225.6,64,211.5,49.9,194.2,49.9z"/>
<radialGradient id="SVGID_9_" cx="960.9537" cy="2785.115" r="9.157" gradientTransform="matrix(-0.8392 1.1536 1.6186 1.3126 -3495.6582 -4694.9126)" gradientUnits="userSpaceOnUse">
	<stop  offset="0" style="stop-color:#FFFFFF"/>
	<stop  offset="1" style="stop-color:#FFFFFF;stop-opacity:0"/>
</radialGradient>
<path class="st9" d="M198.2,79.9c-8.2-6.6-11.4-16.7-7.1-22.6c4.2-5.8,14.3-5.2,22.5,1.5c8.2,6.6,11.4,16.8,7.1,22.6
	C216.5,87.2,206.4,86.6,198.2,79.9z"/>
<radialGradient id="SVGID_10_" cx="987.9937" cy="2771.5527" r="5.0324" gradientTransform="matrix(-0.8392 1.1536 1.6186 1.3126 -3495.6582 -4694.9126)" gradientUnits="userSpaceOnUse">
	<stop  offset="0" style="stop-color:#FFFFFF"/>
	<stop  offset="1" style="stop-color:#FFFFFF;stop-opacity:0"/>
</radialGradient>
<path class="st10" d="M157,88.5c-4.5-3.7-6.3-9.2-3.9-12.4c2.3-3.2,7.9-2.8,12.4,0.8c4.5,3.7,6.2,9.2,3.9,12.4
	C167.1,92.6,161.5,92.2,157,88.5z"/>
<radialGradient id="SVGID_11_" cx="-1396.2921" cy="767.1835" r="5.2649" gradientTransform="matrix(0.7056 -0.4583 -1.3993 -1.8312 2203.3718 866.1428)" gradientUnits="userSpaceOnUse">
	<stop  offset="0" style="stop-color:#FFFFFF"/>
	<stop  offset="1" style="stop-color:#FFFFFF;stop-opacity:0"/>
</radialGradient>
<path class="st11" d="M147.1,96.5c-4.9-5-10.1-7-11.4-4.4c-1.4,2.6,1.6,8.7,6.5,13.7s10.1,7,11.4,4.4
	C154.9,107.6,152,101.5,147.1,96.5z"/>
</svg>
