<?xml version="1.0" encoding="utf-8"?>
<!-- Generator: Adobe Illustrator 25.0.1, SVG Export Plug-In . SVG Version: 6.00 Build 0)  -->
<svg version="1.1" id="Layer_1" xmlns="http://www.w3.org/2000/svg" xmlns:xlink="http://www.w3.org/1999/xlink" x="0px" y="0px"
	 viewBox="0 0 199.3 148" style="enable-background:new 0 0 199.3 148;" xml:space="preserve">
<style type="text/css">
	.st0{fill:url(#SVGID_1_);}
	.st1{opacity:0.5;fill:#FFFFFF;enable-background:new    ;}
	.st2{fill:url(#SVGID_2_);}
	.st3{fill:#B0B1B6;}
	.st4{fill:#5D5E61;}
	.st5{fill:url(#SVGID_3_);}
	.st6{opacity:0.4;fill:url(#SVGID_4_);enable-background:new    ;}
</style>
<g>
	
		<radialGradient id="SVGID_1_" cx="8810.125" cy="13400.8828" r="741.6099" gradientTransform="matrix(0.147 0 0 0.1471 -1208.4816 -1925.223)" gradientUnits="userSpaceOnUse">
		<stop  offset="0" style="stop-color:#FCFCFC"/>
		<stop  offset="0.1559" style="stop-color:#F1EDF5"/>
		<stop  offset="1" style="stop-color:#9FA1A6"/>
	</radialGradient>
	<path class="st0" d="M157.1,82c0,31.7-25.7,57.5-57.5,57.5S42.1,113.8,42.1,82s25.7-57.5,57.5-57.5C131.5,24.6,157.1,50.3,157.1,82
		z"/>
	<path class="st1" d="M91.4,64.4c0,29.3,21.9,53.3,50.1,57c1.4-1.5,2.6-3,3.9-4.5c7-9.5,11.2-21.3,11.2-34.1
		c0-29.3-21.9-53.5-50.4-57C97.1,36,91.4,49.5,91.4,64.4z"/>
	
		<radialGradient id="SVGID_2_" cx="11285.9932" cy="13158.2373" r="658.2601" gradientTransform="matrix(0.147 0 0 0.1471 -1494.9587 -1925.223)" gradientUnits="userSpaceOnUse">
		<stop  offset="0" style="stop-color:#FCFCFC"/>
		<stop  offset="0.1559" style="stop-color:#ADAAB0"/>
		<stop  offset="1" style="stop-color:#6B6D70"/>
	</radialGradient>
	<path class="st2" d="M106.8,25.1c-9.3,10.2-15,23.7-15,38.6c0,29.3,21.9,53.5,50.4,57c9.3-10.2,15-23.7,15-38.6
		C157.1,52.7,135.1,28.5,106.8,25.1z"/>
	<g>
		<path class="st3" d="M59.6,92.2c5.3-0.5,9.3-6.6,8.5-13.6c-0.6-7.1-5.5-12.4-10.8-11.9c-5.3,0.5-9.3,6.6-8.5,13.6
			C49.3,87.4,54.1,92.7,59.6,92.2z"/>
		<path class="st3" d="M54.8,97.3c-3.2,1.7-4,6.5-1.8,10.8c2.2,4.2,6.7,6.2,9.9,4.6c3.2-1.6,4-6.5,1.8-10.8
			C62.6,97.8,58.1,95.6,54.8,97.3z"/>
		<path class="st3" d="M67.6,92.2c-1.9,1-2.4,3.9-1.1,6.2c1.3,2.5,3.9,3.8,5.8,2.7c1.9-1,2.4-3.9,1.1-6.2
			C72.2,92.4,69.6,91.2,67.6,92.2z"/>
		<path class="st4" d="M152.8,84.1c-1-7-6.2-12.1-11.5-11.3s-8.9,7.1-7.9,14.1c1,7,6.2,12.1,11.5,11.3
			C150.2,97.4,153.8,91.1,152.8,84.1z"/>
		<path class="st4" d="M145.7,67.4c3.1-1.8,3.8-6.7,1.2-10.8c-2.4-4.1-7-5.9-10.1-4c-3.1,1.8-3.8,6.7-1.2,10.8
			C138,67.5,142.5,69.3,145.7,67.4z"/>
		<path class="st4" d="M133.9,66.8c-1.5-2.4-4-3.5-6-2.4c-1.8,1.1-2.1,4-0.7,6.3c1.4,2.4,4.1,3.5,6,2.4
			C134.9,72,135.4,69.2,133.9,66.8z"/>
	</g>
	<g>
		
			<radialGradient id="SVGID_3_" cx="10488.3447" cy="-3602.4316" r="111.5765" gradientTransform="matrix(0.1759 0.1142 0.1531 -0.2654 -1221.9509 -2089.9636)" gradientUnits="userSpaceOnUse">
			<stop  offset="0" style="stop-color:#FFFFFF"/>
			<stop  offset="1" style="stop-color:#FFFFFF;stop-opacity:0"/>
		</radialGradient>
		<path class="st5" d="M91.1,76.7c9.4-16.4,8.3-35.2-2.5-42.3c-10.8-7-27.2,0.6-36.6,16.8s-8.3,35.2,2.5,42.3
			C65.3,100.5,81.6,92.9,91.1,76.7z"/>
		
			<radialGradient id="SVGID_4_" cx="2975.7922" cy="-20170.209" r="107.4111" gradientTransform="matrix(0.2149 -9.838235e-02 3.279084e-03 -0.1119 -446.0076 -1847.4083)" gradientUnits="userSpaceOnUse">
			<stop  offset="0" style="stop-color:#FFFFFF"/>
			<stop  offset="1" style="stop-color:#FFFFFF;stop-opacity:0"/>
		</radialGradient>
		<path class="st6" d="M150.3,106.1c0.2-6.7-9.9-7.3-22.8-1.5s-23.3,15.9-23.4,22.6c-0.2,6.7,9.9,7.3,22.8,1.5
			C139.6,122.9,150.1,112.7,150.3,106.1z"/>
	</g>
</g>
</svg>
