<?xml version="1.0" encoding="utf-8"?>
<!-- Generator: Adobe Illustrator 25.0.1, SVG Export Plug-In . SVG Version: 6.00 Build 0)  -->
<svg version="1.1" id="Layer_1" xmlns="http://www.w3.org/2000/svg" xmlns:xlink="http://www.w3.org/1999/xlink" x="0px" y="0px"
	 viewBox="0 0 181.3 155.5" style="enable-background:new 0 0 181.3 155.5;" xml:space="preserve">
<style type="text/css">
	.st0{fill:url(#SVGID_1_);}
	.st1{fill:url(#SVGID_2_);}
	.st2{opacity:0.4;fill:url(#SVGID_3_);}
	.st3{opacity:0.2;fill:url(#SVGID_4_);}
	.st4{fill:url(#SVGID_5_);}
	.st5{fill:url(#SVGID_6_);}
	.st6{opacity:0.4;fill:url(#SVGID_7_);}
	.st7{opacity:0.2;fill:url(#SVGID_8_);}
	.st8{fill:url(#SVGID_9_);}
	.st9{fill:url(#SVGID_10_);}
	.st10{fill:url(#SVGID_11_);}
	.st11{fill:url(#SVGID_12_);}
	.st12{fill:url(#SVGID_13_);}
	.st13{fill:url(#SVGID_14_);}
</style>
<radialGradient id="SVGID_1_" cx="1426.2209" cy="55.6666" r="63.1231" gradientTransform="matrix(-1 0 0 1 1468.6351 0)" gradientUnits="userSpaceOnUse">
	<stop  offset="0" style="stop-color:#FFFFFF"/>
	<stop  offset="0.198" style="stop-color:#D9F7FF"/>
	<stop  offset="1" style="stop-color:#89C0F5"/>
</radialGradient>
<path class="st0" d="M51.9,48.7c12,0,22,8.3,24.7,19.4c2.2-1.1,4.6-1.7,7.2-1.7c9.1,0,16.5,7.4,16.5,16.5c0,9.1-7.4,16.5-16.5,16.5
	H51.9c-14,0-25.4-11.4-25.4-25.4C26.5,60.1,37.9,48.7,51.9,48.7z"/>
<radialGradient id="SVGID_2_" cx="554.9698" cy="-2367.2627" r="7.4072" gradientTransform="matrix(0.8392 1.1536 1.6186 -1.3126 3408.3931 -3683.0464)" gradientUnits="userSpaceOnUse">
	<stop  offset="0" style="stop-color:#FFFFFF"/>
	<stop  offset="1" style="stop-color:#FFFFFF;stop-opacity:0"/>
</radialGradient>
<path class="st1" d="M48.7,73c6.6-5.4,9.2-13.5,5.8-18.3C51,50,42.9,50.5,36.3,55.9c-6.6,5.4-9.2,13.6-5.8,18.3
	C33.9,78.9,42.1,78.4,48.7,73z"/>
<radialGradient id="SVGID_3_" cx="576.838" cy="-2356.2903" r="4.0708" gradientTransform="matrix(0.8392 1.1536 1.6186 -1.3126 3408.3931 -3683.0464)" gradientUnits="userSpaceOnUse">
	<stop  offset="0" style="stop-color:#FFFFFF"/>
	<stop  offset="1" style="stop-color:#FFFFFF;stop-opacity:0"/>
</radialGradient>
<path class="st2" d="M82,80c3.6-3,5.1-7.4,3.2-10c-1.9-2.6-6.4-2.3-10,0.6c-3.6,3-5.1,7.4-3.2,10C73.9,83.2,78.4,82.9,82,80z"/>
<radialGradient id="SVGID_4_" cx="1551.5471" cy="130.6481" r="4.2565" gradientTransform="matrix(-0.7056 -0.4583 -1.3993 1.8312 1369.7048 562.0662)" gradientUnits="userSpaceOnUse">
	<stop  offset="0" style="stop-color:#FFFFFF"/>
	<stop  offset="1" style="stop-color:#FFFFFF;stop-opacity:0"/>
</radialGradient>
<path class="st3" d="M90.1,86.4c4-4,8.1-5.6,9.2-3.5c1.1,2.1-1.3,7.1-5.3,11.1c-4,4-8.1,5.6-9.2,3.5C83.7,95.4,86.1,90.4,90.1,86.4z
	"/>
<radialGradient id="SVGID_5_" cx="-758.0281" cy="34.0608" r="50.0574" gradientTransform="matrix(1 0 0 1 891.3594 0)" gradientUnits="userSpaceOnUse">
	<stop  offset="0" style="stop-color:#FFFFFF"/>
	<stop  offset="0.198" style="stop-color:#D9F7FF"/>
	<stop  offset="1" style="stop-color:#89C0F5"/>
</radialGradient>
<path class="st4" d="M125.8,28.5c-9.5,0-17.5,6.6-19.6,15.4c-1.7-0.8-3.7-1.3-5.7-1.3c-7.2,0-13.1,5.9-13.1,13.1
	c0,7.2,5.9,13.1,13.1,13.1h25.3c11.1,0,20.2-9,20.2-20.2C145.9,37.6,136.9,28.5,125.8,28.5z"/>
<radialGradient id="SVGID_6_" cx="1510.4858" cy="-1510.0685" r="5.874" gradientTransform="matrix(-0.8392 1.1536 -1.6186 -1.3126 -1048.3984 -3683.0464)" gradientUnits="userSpaceOnUse">
	<stop  offset="0" style="stop-color:#FFFFFF"/>
	<stop  offset="1" style="stop-color:#FFFFFF;stop-opacity:0"/>
</radialGradient>
<path class="st5" d="M123.3,48.3c-5.2-4.3-7.3-10.7-4.6-14.5c2.7-3.7,9.2-3.3,14.4,0.9c5.2,4.3,7.3,10.7,4.6,14.5
	C135,53,128.5,52.6,123.3,48.3z"/>
<radialGradient id="SVGID_7_" cx="1527.827" cy="-1501.3669" r="3.2285" gradientTransform="matrix(-0.8392 1.1536 -1.6186 -1.3126 -1048.3984 -3683.0464)" gradientUnits="userSpaceOnUse">
	<stop  offset="0" style="stop-color:#FFFFFF"/>
	<stop  offset="1" style="stop-color:#FFFFFF;stop-opacity:0"/>
</radialGradient>
<path class="st6" d="M96.9,53.9c-2.9-2.3-4-5.9-2.5-8c1.5-2.1,5.1-1.8,7.9,0.5c2.9,2.3,4,5.9,2.5,8C103.3,56.4,99.7,56.2,96.9,53.9z
	"/>
<radialGradient id="SVGID_8_" cx="-948.1997" cy="-363.6215" r="3.3755" gradientTransform="matrix(0.7056 -0.4583 1.3993 1.8312 1272.5135 293.2467)" gradientUnits="userSpaceOnUse">
	<stop  offset="0" style="stop-color:#FFFFFF"/>
	<stop  offset="1" style="stop-color:#FFFFFF;stop-opacity:0"/>
</radialGradient>
<path class="st7" d="M96.2,59c-3.2-3.2-6.4-4.5-7.3-2.8c-0.9,1.7,1,5.6,4.2,8.8c3.2,3.2,6.5,4.5,7.3,2.8
	C101.2,66.1,99.4,62.2,96.2,59z"/>
<g>
	
		<radialGradient id="SVGID_9_" cx="-207.3335" cy="41.2957" r="15.4118" gradientTransform="matrix(0.866 0.5 -0.5 0.866 258.5092 189.8313)" gradientUnits="userSpaceOnUse">
		<stop  offset="0" style="stop-color:#D4F6FF"/>
		<stop  offset="0.198" style="stop-color:#D9F7FF"/>
		<stop  offset="1" style="stop-color:#89C0F5"/>
	</radialGradient>
	<path class="st8" d="M66.9,123.4c-1.8,3.1-5.7,4.1-8.8,2.3c-3.1-1.8-4.1-5.7-2.3-8.7c1.8-3.1,12.7-9.2,12.7-9.2
		S68.7,120.3,66.9,123.4z"/>
	
		<radialGradient id="SVGID_10_" cx="1263.929" cy="-1725.6268" r="2.4143" gradientTransform="matrix(-1.3036 0.5794 -0.7454 -1.946 420.4996 -3969.4688)" gradientUnits="userSpaceOnUse">
		<stop  offset="0" style="stop-color:#FFFFFF"/>
		<stop  offset="1" style="stop-color:#FFFFFF;stop-opacity:0"/>
	</radialGradient>
	<path class="st9" d="M56,122.3c-1-2.6-0.4-5.3,1.3-6.1c1.7-0.8,4,0.7,4.9,3.3c1,2.6,0.4,5.3-1.3,6.1C59.2,126.4,57,124.9,56,122.3z
		"/>
</g>
<g>
	
		<radialGradient id="SVGID_11_" cx="-183.9961" cy="27.8199" r="15.4118" gradientTransform="matrix(0.866 0.5 -0.5 0.866 258.5092 189.8313)" gradientUnits="userSpaceOnUse">
		<stop  offset="0" style="stop-color:#D4F6FF"/>
		<stop  offset="0.198" style="stop-color:#D9F7FF"/>
		<stop  offset="1" style="stop-color:#89C0F5"/>
	</radialGradient>
	<path class="st10" d="M93.8,123.4c-1.8,3.1-5.7,4.1-8.7,2.3C82,124,81,120,82.7,117c1.8-3.1,12.7-9.2,12.7-9.2
		S95.6,120.3,93.8,123.4z"/>
	
		<radialGradient id="SVGID_12_" cx="1246.2637" cy="-1730.8865" r="2.4137" gradientTransform="matrix(-1.3036 0.5794 -0.7454 -1.946 420.4996 -3969.4688)" gradientUnits="userSpaceOnUse">
		<stop  offset="0" style="stop-color:#FFFFFF"/>
		<stop  offset="1" style="stop-color:#FFFFFF;stop-opacity:0"/>
	</radialGradient>
	<path class="st11" d="M82.9,122.3c-1-2.6-0.4-5.3,1.3-6.1c1.7-0.8,4,0.7,4.9,3.3c1,2.6,0.4,5.3-1.3,6.1
		C86.1,126.4,83.9,124.9,82.9,122.3z"/>
</g>
<g>
	
		<radialGradient id="SVGID_13_" cx="-160.656" cy="14.3444" r="15.4116" gradientTransform="matrix(0.866 0.5 -0.5 0.866 258.5092 189.8313)" gradientUnits="userSpaceOnUse">
		<stop  offset="0" style="stop-color:#D4F6FF"/>
		<stop  offset="0.198" style="stop-color:#D9F7FF"/>
		<stop  offset="1" style="stop-color:#89C0F5"/>
	</radialGradient>
	<path class="st12" d="M120.8,123.4c-1.8,3.1-5.7,4.1-8.7,2.3c-3.1-1.8-4.1-5.7-2.3-8.7c1.8-3.1,12.7-9.2,12.7-9.2
		S122.6,120.3,120.8,123.4z"/>
	
		<radialGradient id="SVGID_14_" cx="1228.5975" cy="-1736.1464" r="2.4137" gradientTransform="matrix(-1.3036 0.5794 -0.7454 -1.946 420.4996 -3969.4688)" gradientUnits="userSpaceOnUse">
		<stop  offset="0" style="stop-color:#FFFFFF"/>
		<stop  offset="1" style="stop-color:#FFFFFF;stop-opacity:0"/>
	</radialGradient>
	<path class="st13" d="M109.9,122.3c-1-2.6-0.4-5.3,1.3-6.1c1.7-0.8,4,0.7,4.9,3.3c1,2.6,0.4,5.3-1.3,6.1
		C113.1,126.4,110.9,124.9,109.9,122.3z"/>
</g>
</svg>
