<?xml version="1.0" encoding="utf-8"?>
<!-- Generator: Adobe Illustrator 25.0.1, SVG Export Plug-In . SVG Version: 6.00 Build 0)  -->
<svg version="1.1" id="Layer_1" xmlns="http://www.w3.org/2000/svg" xmlns:xlink="http://www.w3.org/1999/xlink" x="0px" y="0px"
	 viewBox="0 0 226.6 201" style="enable-background:new 0 0 226.6 201;" xml:space="preserve">
<style type="text/css">
	.st0{fill:url(#SVGID_1_);}
	.st1{opacity:0.6;fill:url(#SVGID_2_);}
	.st2{opacity:0.3;fill:url(#SVGID_3_);}
</style>
<g>
	<g>
		<radialGradient id="SVGID_1_" cx="94.3456" cy="142.8403" r="130.6278" gradientUnits="userSpaceOnUse">
			<stop  offset="0" style="stop-color:#B0FFEE"/>
			<stop  offset="0.1926" style="stop-color:#66AFFF"/>
			<stop  offset="1" style="stop-color:#446CF5"/>
		</radialGradient>
		<path class="st0" d="M173.4,119.9c0,33.2-26.9,60.1-60.1,60.1c-33.2,0-60.1-26.9-60.2-60.1c0-33.2,60.1-100.6,60.1-100.6
			S173.4,86.7,173.4,119.9z"/>
		
			<radialGradient id="SVGID_2_" cx="894.136" cy="-1617.618" r="22.6606" gradientTransform="matrix(-0.8392 1.1536 -1.6186 -1.3126 -1773.4358 -3012.6292)" gradientUnits="userSpaceOnUse">
			<stop  offset="0" style="stop-color:#FFFFFF"/>
			<stop  offset="1" style="stop-color:#FFFFFF;stop-opacity:0"/>
		</radialGradient>
		<path class="st1" d="M75.5,168.3c-20.2-16.4-28.2-41.4-17.7-55.9c10.5-14.4,35.4-12.8,55.7,3.6c20.3,16.4,28.2,41.5,17.7,55.9
			C120.7,186.3,95.7,184.7,75.5,168.3z"/>
	</g>
	
		<radialGradient id="SVGID_3_" cx="693.2928" cy="2175.8333" r="16.1585" gradientTransform="matrix(0.6501 -0.5342 -1.3228 -1.8872 2564.9976 4551.5269)" gradientUnits="userSpaceOnUse">
		<stop  offset="0" style="stop-color:#FFFFFF"/>
		<stop  offset="1" style="stop-color:#FFFFFF;stop-opacity:0"/>
	</radialGradient>
	<path class="st2" d="M153.5,72.2c10.1,19.1,11,35.9,2.2,37.5c-8.8,1.6-24.1-12.7-34.2-31.8c-10.1-19.1-11-35.9-2.2-37.5
		C128.2,38.8,143.5,53,153.5,72.2z"/>
</g>
</svg>
