<?xml version="1.0" encoding="utf-8"?>
<!-- Generator: Adobe Illustrator 25.0.1, SVG Export Plug-In . SVG Version: 6.00 Build 0)  -->
<svg version="1.1" id="Layer_1" xmlns="http://www.w3.org/2000/svg" xmlns:xlink="http://www.w3.org/1999/xlink" x="0px" y="0px"
	 viewBox="0 0 235.6 196.7" style="enable-background:new 0 0 235.6 196.7;" xml:space="preserve">
<style type="text/css">
	.st0{fill:url(#SVGID_1_);}
	.st1{fill:url(#SVGID_2_);}
	.st2{opacity:0.4;fill:url(#SVGID_3_);}
	.st3{fill:url(#SVGID_4_);}
	.st4{fill:url(#SVGID_5_);}
	.st5{fill:url(#SVGID_6_);}
	.st6{fill:url(#SVGID_7_);}
	.st7{fill:url(#SVGID_8_);}
	.st8{fill:url(#SVGID_9_);}
	.st9{fill:url(#SVGID_10_);}
	.st10{fill:url(#SVGID_11_);}
	.st11{fill:url(#SVGID_12_);}
	.st12{fill:url(#SVGID_13_);}
	.st13{fill:url(#SVGID_14_);}
	.st14{opacity:0.4;fill:url(#SVGID_15_);}
	.st15{opacity:0.2;fill:url(#SVGID_16_);}
</style>
<g>
	<g>
		
			<radialGradient id="SVGID_1_" cx="-90.1028" cy="55.9787" r="88.3309" gradientTransform="matrix(-1 0 0 1 61.6729 0)" gradientUnits="userSpaceOnUse">
			<stop  offset="0" style="stop-color:#FFF8C7"/>
			<stop  offset="0.1559" style="stop-color:#FFE436"/>
			<stop  offset="1" style="stop-color:#FE761C"/>
		</radialGradient>
		<path class="st0" d="M94.6,85.1c0,25.7,20.8,46.5,46.5,46.5c25.7,0,46.5-20.8,46.5-46.5c0-25.7-20.8-46.5-46.5-46.5
			C115.4,38.6,94.6,59.5,94.6,85.1z"/>
		<g>
			
				<radialGradient id="SVGID_2_" cx="1140.1327" cy="-1833.9539" r="13.2591" gradientTransform="matrix(-0.8392 1.1536 -1.6186 -1.3126 -1852.291 -3657.437)" gradientUnits="userSpaceOnUse">
				<stop  offset="0" style="stop-color:#FFFFFF"/>
				<stop  offset="1" style="stop-color:#FFFFFF;stop-opacity:0"/>
			</radialGradient>
			<path class="st1" d="M148.2,80.4c-11.9-9.6-16.5-24.3-10.3-32.7c6.1-8.4,20.7-7.5,32.6,2.1c11.8,9.6,16.5,24.3,10.3,32.7
				C174.7,90.9,160.1,90,148.2,80.4z"/>
			
				<radialGradient id="SVGID_3_" cx="-2925.0413" cy="2980.6343" r="12.7939" gradientTransform="matrix(-1.1717 -1.1007 0.222 -0.7283 -3973.9724 -939.2783)" gradientUnits="userSpaceOnUse">
				<stop  offset="0" style="stop-color:#FFFFFF"/>
				<stop  offset="1" style="stop-color:#FFFFFF;stop-opacity:0"/>
			</radialGradient>
			<path class="st2" d="M100,95.4c1.6-5.1,9.5-3,17.8,4.8c8.3,7.8,13.7,18.3,12.2,23.4c-1.6,5.1-9.5,3-17.8-4.8
				C103.9,111.1,98.4,100.6,100,95.4z"/>
		</g>
		<radialGradient id="SVGID_4_" cx="142.1615" cy="14.0644" r="15.3689" gradientUnits="userSpaceOnUse">
			<stop  offset="0" style="stop-color:#FFF8C7"/>
			<stop  offset="0.1559" style="stop-color:#FFE436"/>
			<stop  offset="1" style="stop-color:#FE761C"/>
		</radialGradient>
		<path class="st3" d="M146.8,24.9c0,3.1-2.5,5.6-5.6,5.6l0,0c-3.1,0-5.6-2.5-5.6-5.6v-8c0-3.1,2.5-5.6,5.6-5.6l0,0
			c3.1,0,5.6,2.5,5.6,5.6V24.9z"/>
		
			<radialGradient id="SVGID_5_" cx="544.6719" cy="-202.6938" r="15.3696" gradientTransform="matrix(0.7071 -0.7071 0.7071 0.7071 -150.2216 562.6225)" gradientUnits="userSpaceOnUse">
			<stop  offset="0" style="stop-color:#FFF8C7"/>
			<stop  offset="0.1559" style="stop-color:#FFE436"/>
			<stop  offset="1" style="stop-color:#FE761C"/>
		</radialGradient>
		<path class="st4" d="M102.5,38.5c2.2,2.2,2.2,5.8,0,8l0,0c-2.2,2.2-5.8,2.2-8,0l-5.7-5.7c-2.2-2.2-2.2-5.8,0-8l0,0
			c2.2-2.2,5.8-2.2,8,0L102.5,38.5z"/>
		
			<radialGradient id="SVGID_6_" cx="982.4731" cy="-71.5345" r="15.3705" gradientTransform="matrix(0 -1 1 0 141.5769 1066.6016)" gradientUnits="userSpaceOnUse">
			<stop  offset="0" style="stop-color:#FFF8C7"/>
			<stop  offset="0.1559" style="stop-color:#FFE436"/>
			<stop  offset="1" style="stop-color:#FE761C"/>
		</radialGradient>
		<path class="st5" d="M80.8,79.5c3.1,0,5.6,2.5,5.6,5.6l0,0c0,3.1-2.5,5.6-5.6,5.6h-8c-3.1,0-5.6-2.5-5.6-5.6l0,0
			c0-3.1,2.5-5.6,5.6-5.6H80.8z"/>
		
			<radialGradient id="SVGID_7_" cx="1199.3956" cy="330.9752" r="15.3707" gradientTransform="matrix(-0.7071 -0.7071 0.7071 -0.7071 704.1986 1216.8221)" gradientUnits="userSpaceOnUse">
			<stop  offset="0" style="stop-color:#FFF8C7"/>
			<stop  offset="0.1559" style="stop-color:#FFE436"/>
			<stop  offset="1" style="stop-color:#FE761C"/>
		</radialGradient>
		<path class="st6" d="M94.5,123.8c2.2-2.2,5.8-2.2,8,0l0,0c2.2,2.2,2.2,5.8,0,8l-5.7,5.7c-2.2,2.2-5.8,2.2-8,0l0,0
			c-2.2-2.2-2.2-5.8,0-8L94.5,123.8z"/>
		
			<radialGradient id="SVGID_8_" cx="1068.0688" cy="768.7797" r="15.369" gradientTransform="matrix(-1 0 0 -1 1208.1758 925.0254)" gradientUnits="userSpaceOnUse">
			<stop  offset="0" style="stop-color:#FFF8C7"/>
			<stop  offset="0.1559" style="stop-color:#FFE436"/>
			<stop  offset="1" style="stop-color:#FE761C"/>
		</radialGradient>
		<path class="st7" d="M135.5,145.4c0-3.1,2.5-5.6,5.6-5.6l0,0c3.1,0,5.6,2.5,5.6,5.6l0,8c0,3.1-2.5,5.6-5.6,5.6l0,0
			c-3.1,0-5.6-2.5-5.6-5.6L135.5,145.4z"/>
		
			<radialGradient id="SVGID_9_" cx="665.7226" cy="985.702" r="15.3697" gradientTransform="matrix(-0.7071 0.7071 -0.7071 -0.7071 1358.4003 362.4059)" gradientUnits="userSpaceOnUse">
			<stop  offset="0" style="stop-color:#FFF8C7"/>
			<stop  offset="0.1559" style="stop-color:#FFE436"/>
			<stop  offset="1" style="stop-color:#FE761C"/>
		</radialGradient>
		<path class="st8" d="M179.8,131.8c-2.2-2.2-2.2-5.8,0-8l0,0c2.2-2.2,5.8-2.2,8,0l5.7,5.7c2.2,2.2,2.2,5.8,0,8l0,0
			c-2.2,2.2-5.8,2.2-8,0L179.8,131.8z"/>
		
			<radialGradient id="SVGID_10_" cx="227.7547" cy="854.38" r="15.3686" gradientTransform="matrix(0 1 -1 0 1066.6055 -141.5742)" gradientUnits="userSpaceOnUse">
			<stop  offset="0" style="stop-color:#FFF8C7"/>
			<stop  offset="0.1559" style="stop-color:#FFE436"/>
			<stop  offset="1" style="stop-color:#FE761C"/>
		</radialGradient>
		<path class="st9" d="M201.4,90.8c-3.1,0-5.6-2.5-5.6-5.6l0,0c0-3.1,2.5-5.6,5.6-5.6h8c3.1,0,5.6,2.5,5.6,5.6l0,0
			c0,3.1-2.5,5.6-5.6,5.6H201.4z"/>
		
			<radialGradient id="SVGID_11_" cx="10.9983" cy="452.0326" r="15.3696" gradientTransform="matrix(0.7071 0.7071 -0.7071 0.7071 503.984 -291.7987)" gradientUnits="userSpaceOnUse">
			<stop  offset="0" style="stop-color:#FFF8C7"/>
			<stop  offset="0.1559" style="stop-color:#FFE436"/>
			<stop  offset="1" style="stop-color:#FE761C"/>
		</radialGradient>
		<path class="st10" d="M187.8,46.5c-2.2,2.2-5.8,2.2-8,0l0,0c-2.2-2.2-2.2-5.8,0-8l5.7-5.7c2.2-2.2,5.8-2.2,8,0l0,0
			c2.2,2.2,2.2,5.8,0,8L187.8,46.5z"/>
	</g>
	<g>
		
			<radialGradient id="SVGID_12_" cx="1462.4675" cy="71.0971" r="151.7109" gradientTransform="matrix(-1 0 0 1 1521.1875 0)" gradientUnits="userSpaceOnUse">
			<stop  offset="0" style="stop-color:#FFFFFF"/>
			<stop  offset="0.198" style="stop-color:#D9F7FF"/>
			<stop  offset="1" style="stop-color:#89C0F5"/>
		</radialGradient>
		<path class="st11" d="M81.6,54.3c28.8,0,52.9,19.9,59.4,46.7c5.2-2.5,11.1-4,17.3-4c22,0,39.7,17.8,39.7,39.8
			c0,22-17.8,39.7-39.7,39.7H81.6c-33.7,0-61.1-27.4-61.1-61.1C20.5,81.7,47.9,54.3,81.6,54.3z"/>
		<radialGradient id="SVGID_13_" cx="129.1387" cy="84.8927" r="86.6709" gradientUnits="userSpaceOnUse">
			<stop  offset="0" style="stop-color:#FFE436"/>
			<stop  offset="1.982603e-02" style="stop-color:#FFDF35;stop-opacity:0.9742"/>
			<stop  offset="0.1739" style="stop-color:#FFB92C;stop-opacity:0.7739"/>
			<stop  offset="0.3276" style="stop-color:#FE9C25;stop-opacity:0.5739"/>
			<stop  offset="0.4791" style="stop-color:#FE8720;stop-opacity:0.3768"/>
			<stop  offset="0.6274" style="stop-color:#FE7A1D;stop-opacity:0.1839"/>
			<stop  offset="0.7688" style="stop-color:#FE761C;stop-opacity:0"/>
		</radialGradient>
		<path class="st12" d="M81.6,54.3c28.8,0,52.9,19.9,59.4,46.7c5.2-2.5,11.1-4,17.3-4c22,0,39.7,17.8,39.7,39.8
			c0,22-17.8,39.7-39.7,39.7H81.6c-33.7,0-61.1-27.4-61.1-61.1C20.5,81.7,47.9,54.3,81.6,54.3z"/>
		
			<radialGradient id="SVGID_14_" cx="578.8139" cy="-2347.9294" r="17.8024" gradientTransform="matrix(0.8392 1.1536 1.6186 -1.3126 3373.4785 -3657.437)" gradientUnits="userSpaceOnUse">
			<stop  offset="0" style="stop-color:#FFFFFF"/>
			<stop  offset="1" style="stop-color:#FFFFFF;stop-opacity:0"/>
		</radialGradient>
		<path class="st13" d="M73.8,112.7c15.9-12.9,22.1-32.6,13.9-43.9c-8.3-11.3-27.8-10.1-43.8,2.8C28,84.5,21.8,104.2,30,115.5
			C38.3,126.9,57.9,125.6,73.8,112.7z"/>
		
			<radialGradient id="SVGID_15_" cx="631.3708" cy="-2321.5574" r="9.7841" gradientTransform="matrix(0.8392 1.1536 1.6186 -1.3126 3373.4785 -3657.437)" gradientUnits="userSpaceOnUse">
			<stop  offset="0" style="stop-color:#FFFFFF"/>
			<stop  offset="1" style="stop-color:#FFFFFF;stop-opacity:0"/>
		</radialGradient>
		<path class="st14" d="M153.9,129.5c8.7-7.1,12.2-17.9,7.6-24.1c-4.5-6.2-15.3-5.5-24,1.6c-8.7,7.1-12.1,17.9-7.6,24.1
			C134.4,137.3,145.1,136.6,153.9,129.5z"/>
		
			<radialGradient id="SVGID_16_" cx="1501.4148" cy="192.6791" r="10.2304" gradientTransform="matrix(-0.7056 -0.4583 -1.3993 1.8312 1507.1082 489.3619)" gradientUnits="userSpaceOnUse">
			<stop  offset="0" style="stop-color:#FFFFFF"/>
			<stop  offset="1" style="stop-color:#FFFFFF;stop-opacity:0"/>
		</radialGradient>
		<path class="st15" d="M173.3,144.9c9.6-9.7,19.5-13.5,22.2-8.5c2.6,5-3,17-12.6,26.7c-9.6,9.7-19.6,13.5-22.2,8.5
			C158,166.6,163.6,154.7,173.3,144.9z"/>
	</g>
</g>
</svg>
