<?xml version="1.0" encoding="utf-8"?>
<!-- Generator: Adobe Illustrator 25.0.1, SVG Export Plug-In . SVG Version: 6.00 Build 0)  -->
<svg version="1.1" id="Layer_1" xmlns="http://www.w3.org/2000/svg" xmlns:xlink="http://www.w3.org/1999/xlink" x="0px" y="0px"
	 viewBox="0 0 235.6 196.7" style="enable-background:new 0 0 235.6 196.7;" xml:space="preserve">
<style type="text/css">
	.st0{fill:url(#SVGID_1_);}
	.st1{fill:#B0B1B6;}
	.st2{fill:url(#SVGID_2_);}
	.st3{opacity:0.4;fill:url(#SVGID_3_);}
	.st4{fill:url(#SVGID_4_);}
	.st5{opacity:0.5;fill:url(#SVGID_5_);}
	.st6{opacity:0.3;fill:url(#SVGID_6_);}
	.st7{opacity:0.2;fill:url(#SVGID_7_);}
</style>
<g>
	<g>
		
			<radialGradient id="SVGID_1_" cx="-85.3737" cy="59.9196" r="98.9068" gradientTransform="matrix(-1 0 0 1 61.6729 0)" gradientUnits="userSpaceOnUse">
			<stop  offset="0" style="stop-color:#FCFCFC"/>
			<stop  offset="0.1559" style="stop-color:#F1EDF5"/>
			<stop  offset="1" style="stop-color:#9FA1A6"/>
		</radialGradient>
		<path class="st0" d="M83,92.6c0,28.8,23.3,52.1,52.1,52.1c28.8,0,52.1-23.3,52.1-52.1c0-28.8-23.3-52.1-52.1-52.1
			C106.4,40.5,83,63.8,83,92.6z"/>
		<g>
			<path class="st1" d="M98.7,101.8c4.9-0.4,8.4-6,7.8-12.4c-0.6-6.4-5-11.2-9.9-10.8c-4.9,0.4-8.4,6-7.8,12.4
				C89.4,97.4,93.8,102.2,98.7,101.8z"/>
			<path class="st1" d="M94.5,106.5c-2.9,1.5-3.7,5.9-1.7,9.7c2,3.8,6,5.7,9,4.2c2.9-1.5,3.7-5.9,1.7-9.7
				C101.4,106.8,97.4,104.9,94.5,106.5z"/>
			<path class="st1" d="M106.1,101.8c-1.7,0.9-2.2,3.5-1,5.8c1.2,2.3,3.6,3.4,5.3,2.5c1.7-0.9,2.2-3.5,1-5.8
				C110.2,102,107.8,100.9,106.1,101.8z"/>
			<path class="st1" d="M183.3,94.5c-0.9-6.4-5.6-11-10.4-10.3c-4.9,0.7-8.1,6.4-7.2,12.8c0.9,6.4,5.6,11,10.4,10.3
				C180.9,106.6,184.2,100.8,183.3,94.5z"/>
			<path class="st1" d="M176.8,79.3c2.8-1.7,3.4-6.1,1.2-9.8c-2.2-3.7-6.3-5.4-9.2-3.7c-2.8,1.7-3.4,6.1-1.2,9.8
				C169.9,79.3,174,81,176.8,79.3z"/>
			<path class="st1" d="M166.1,78.7c-1.3-2.2-3.7-3.2-5.4-2.2c-1.7,1-2,3.6-0.7,5.8c1.3,2.2,3.7,3.2,5.4,2.2
				C167.1,83.5,167.4,80.9,166.1,78.7z"/>
		</g>
		<g>
			
				<radialGradient id="SVGID_2_" cx="1144.5645" cy="-1833.8921" r="14.8466" gradientTransform="matrix(-0.8392 1.1536 -1.6186 -1.3126 -1852.291 -3657.437)" gradientUnits="userSpaceOnUse">
				<stop  offset="0" style="stop-color:#FFFFFF"/>
				<stop  offset="1" style="stop-color:#FFFFFF;stop-opacity:0"/>
			</radialGradient>
			<path class="st2" d="M143.1,87.2c-13.3-10.8-18.5-27.2-11.6-36.6c6.9-9.5,23.2-8.4,36.5,2.4c13.3,10.8,18.4,27.2,11.6,36.6
				C172.7,99.1,156.3,98,143.1,87.2z"/>
			
				<radialGradient id="SVGID_3_" cx="-2921.0767" cy="2960.4292" r="14.3273" gradientTransform="matrix(-1.1717 -1.1007 0.222 -0.7283 -3973.9724 -939.2783)" gradientUnits="userSpaceOnUse">
				<stop  offset="0" style="stop-color:#FFFFFF"/>
				<stop  offset="1" style="stop-color:#FFFFFF;stop-opacity:0"/>
			</radialGradient>
			<path class="st3" d="M89.1,104.1c1.8-5.8,10.7-3.4,20,5.3c9.3,8.7,15.4,20.4,13.6,26.2c-1.8,5.8-10.7,3.4-20-5.3
				C93.4,121.6,87.3,109.9,89.1,104.1z"/>
		</g>
	</g>
	<g>
		
			<radialGradient id="SVGID_4_" cx="1454.5326" cy="86.423" r="111.9008" gradientTransform="matrix(-1 0 0 1 1521.1875 0)" gradientUnits="userSpaceOnUse">
			<stop  offset="0" style="stop-color:#BAD0D6"/>
			<stop  offset="0.198" style="stop-color:#9BBAC2"/>
			<stop  offset="1" style="stop-color:#5D8BB8"/>
		</radialGradient>
		<path class="st4" d="M83.6,74c21.2,0,39,14.7,43.8,34.4c3.9-1.9,8.2-2.9,12.7-2.9c16.2,0,29.3,13.1,29.3,29.3
			c0,16.2-13.1,29.3-29.3,29.3H83.6c-24.9,0-45.1-20.2-45.1-45.1C38.5,94.2,58.7,74,83.6,74z"/>
		
			<radialGradient id="SVGID_5_" cx="587.6456" cy="-2347.6292" r="13.1302" gradientTransform="matrix(0.8392 1.1536 1.6186 -1.3126 3373.4785 -3657.437)" gradientUnits="userSpaceOnUse">
			<stop  offset="0" style="stop-color:#FFFFFF"/>
			<stop  offset="1" style="stop-color:#FFFFFF;stop-opacity:0"/>
		</radialGradient>
		<path class="st5" d="M77.8,117.1c11.7-9.5,16.3-24,10.2-32.4c-6.1-8.4-20.5-7.4-32.3,2.1c-11.7,9.5-16.3,24-10.2,32.4
			C51.6,127.6,66,126.6,77.8,117.1z"/>
		
			<radialGradient id="SVGID_6_" cx="626.4109" cy="-2328.1782" r="7.2167" gradientTransform="matrix(0.8392 1.1536 1.6186 -1.3126 3373.4785 -3657.437)" gradientUnits="userSpaceOnUse">
			<stop  offset="0" style="stop-color:#FFFFFF"/>
			<stop  offset="1" style="stop-color:#FFFFFF;stop-opacity:0"/>
		</radialGradient>
		<path class="st6" d="M136.8,129.5c6.4-5.2,9-13.2,5.6-17.8c-3.3-4.6-11.3-4.1-17.7,1.1c-6.4,5.2-9,13.2-5.6,17.8
			C122.4,135.2,130.4,134.7,136.8,129.5z"/>
		
			<radialGradient id="SVGID_7_" cx="1529.5914" cy="189.4236" r="7.5459" gradientTransform="matrix(-0.7056 -0.4583 -1.3993 1.8312 1499.0593 501.7977)" gradientUnits="userSpaceOnUse">
			<stop  offset="0" style="stop-color:#FFFFFF"/>
			<stop  offset="1" style="stop-color:#FFFFFF;stop-opacity:0"/>
		</radialGradient>
		<path class="st7" d="M151.1,140.9c7.1-7.2,14.4-10,16.4-6.3c1.9,3.7-2.2,12.5-9.3,19.7c-7.1,7.2-14.4,10-16.4,6.3
			C139.9,156.9,144,148.1,151.1,140.9z"/>
	</g>
</g>
</svg>
