<?xml version="1.0" encoding="utf-8"?>
<!-- Generator: Adobe Illustrator 25.0.1, SVG Export Plug-In . SVG Version: 6.00 Build 0)  -->
<svg version="1.1" id="Layer_1" xmlns="http://www.w3.org/2000/svg" xmlns:xlink="http://www.w3.org/1999/xlink" x="0px" y="0px"
	 viewBox="0 0 223.5 194.8" style="enable-background:new 0 0 223.5 194.8;" xml:space="preserve">
<style type="text/css">
	.st0{fill:url(#SVGID_1_);}
	.st1{opacity:0.5;fill:url(#SVGID_2_);enable-background:new    ;}
	.st2{opacity:0.3;fill:url(#SVGID_3_);enable-background:new    ;}
	.st3{opacity:0.2;fill:url(#SVGID_4_);enable-background:new    ;}
	.st4{fill:url(#SVGID_5_);}
	.st5{fill:url(#SVGID_6_);}
	.st6{opacity:0.4;fill:url(#SVGID_7_);enable-background:new    ;}
	.st7{opacity:0.2;fill:url(#SVGID_8_);enable-background:new    ;}
	.st8{fill:url(#SVGID_9_);}
	.st9{fill:url(#SVGID_10_);}
	.st10{fill:url(#SVGID_11_);}
	.st11{fill:url(#SVGID_12_);}
	.st12{fill:url(#SVGID_13_);}
	.st13{fill:url(#SVGID_14_);}
	.st14{fill:url(#SVGID_15_);}
	.st15{fill:url(#SVGID_16_);}
	.st16{fill:url(#SVGID_17_);}
	.st17{fill:url(#SVGID_18_);}
</style>
<g>
	<g>
		<g>
			
				<radialGradient id="SVGID_1_" cx="1421.5376" cy="253.5229" r="136.8706" gradientTransform="matrix(-1 0 0 -1 1507.4077 281.1125)" gradientUnits="userSpaceOnUse">
				<stop  offset="0" style="stop-color:#BAD0D6"/>
				<stop  offset="0.198" style="stop-color:#9BBAC2"/>
				<stop  offset="1" style="stop-color:#5D8BB8"/>
			</radialGradient>
			<path class="st0" d="M106.5,12.5c26,0,47.7,18,53.6,42.1c4.7-2.3,10-3.6,15.6-3.6c19.8,0,35.9,16.1,35.9,35.9
				c0,19.8-16.1,35.9-35.9,35.9h-69.2c-30.5,0-55.1-24.7-55.1-55.1C51.4,37.1,76.1,12.5,106.5,12.5z"/>
			
				<radialGradient id="SVGID_2_" cx="538.9258" cy="2548.3525" r="16.06" gradientTransform="matrix(0.8392 1.1536 -1.6186 1.3126 3758.4978 -3920.0615)" gradientUnits="userSpaceOnUse">
				<stop  offset="0" style="stop-color:#FFFFFF"/>
				<stop  offset="1" style="stop-color:#FFFFFF;stop-opacity:0"/>
			</radialGradient>
			<path class="st1" d="M99.5,65.1c14.3-11.6,20-29.4,12.5-39.6c-7.4-10.2-25.1-9.1-39.5,2.5C58.2,39.7,52.6,57.5,60,67.7
				S85.1,76.8,99.5,65.1z"/>
			
				<radialGradient id="SVGID_3_" cx="586.3359" cy="2524.5586" r="8.8284" gradientTransform="matrix(0.8392 1.1536 -1.6186 1.3126 3758.4978 -3920.0615)" gradientUnits="userSpaceOnUse">
				<stop  offset="0" style="stop-color:#FFFFFF"/>
				<stop  offset="1" style="stop-color:#FFFFFF;stop-opacity:0"/>
			</radialGradient>
			<path class="st2" d="M171.7,80.3c7.9-6.4,11-16.2,6.9-21.8c-4.1-5.6-13.8-5-21.7,1.4c-7.9,6.4-11,16.2-6.9,21.8
				C154.1,87.3,163.8,86.7,171.7,80.3z"/>
			
				<radialGradient id="SVGID_4_" cx="1486.7502" cy="170.3114" r="9.2297" gradientTransform="matrix(-0.7056 -0.4583 1.3993 -1.8312 1004.3105 1095.7545)" gradientUnits="userSpaceOnUse">
				<stop  offset="0" style="stop-color:#FFFFFF"/>
				<stop  offset="1" style="stop-color:#FFFFFF;stop-opacity:0"/>
			</radialGradient>
			<path class="st3" d="M189.2,94.2c8.7-8.8,17.6-12.2,20-7.7c2.4,4.5-2.7,15.3-11.4,24.1c-8.7,8.8-17.6,12.2-20,7.7
				C175.4,113.8,180.5,103,189.2,94.2z"/>
		</g>
		<g>
			
				<radialGradient id="SVGID_5_" cx="1461.3943" cy="223.7183" r="136.8685" gradientTransform="matrix(-1 0 0 -1 1507.4077 281.1125)" gradientUnits="userSpaceOnUse">
				<stop  offset="0" style="stop-color:#FFFFFF"/>
				<stop  offset="0.198" style="stop-color:#D9F7FF"/>
				<stop  offset="1" style="stop-color:#89C0F5"/>
			</radialGradient>
			<path class="st4" d="M66.7,42.3c26,0,47.7,18,53.6,42.1c4.7-2.3,10-3.6,15.6-3.6c19.8,0,35.9,16.1,35.9,35.9
				s-16.1,35.9-35.9,35.9H66.7c-30.5,0-55.1-24.7-55.1-55.1S36.2,42.3,66.7,42.3z"/>
			
				<radialGradient id="SVGID_6_" cx="537.5494" cy="2572.2651" r="16.06" gradientTransform="matrix(0.8392 1.1536 -1.6186 1.3126 3758.4978 -3920.0615)" gradientUnits="userSpaceOnUse">
				<stop  offset="0" style="stop-color:#FFFFFF"/>
				<stop  offset="1" style="stop-color:#FFFFFF;stop-opacity:0"/>
			</radialGradient>
			<path class="st5" d="M59.6,94.9c14.3-11.7,20-29.4,12.5-39.6c-7.5-10.2-25.1-9.1-39.5,2.5c-14.3,11.6-20,29.4-12.5,39.6
				C27.6,107.7,45.3,106.6,59.6,94.9z"/>
			
				<radialGradient id="SVGID_7_" cx="584.9623" cy="2548.4727" r="8.8264" gradientTransform="matrix(0.8392 1.1536 -1.6186 1.3126 3758.4978 -3920.0615)" gradientUnits="userSpaceOnUse">
				<stop  offset="0" style="stop-color:#FFFFFF"/>
				<stop  offset="1" style="stop-color:#FFFFFF;stop-opacity:0"/>
			</radialGradient>
			<path class="st6" d="M131.9,110.1c7.9-6.4,11-16.1,6.9-21.8c-4.1-5.6-13.8-5-21.7,1.4c-7.9,6.4-11,16.2-6.9,21.8
				C114.3,117.1,124,116.5,131.9,110.1z"/>
			
				<radialGradient id="SVGID_8_" cx="1526.9929" cy="124.0376" r="9.2219" gradientTransform="matrix(-0.7056 -0.4583 1.3993 -1.8312 1057.6257 1059.233)" gradientUnits="userSpaceOnUse">
				<stop  offset="0" style="stop-color:#FFFFFF"/>
				<stop  offset="1" style="stop-color:#FFFFFF;stop-opacity:0"/>
			</radialGradient>
			<path class="st7" d="M149.4,124c8.7-8.8,17.6-12.2,20-7.7c2.4,4.5-2.7,15.3-11.4,24.1c-8.7,8.8-17.6,12.2-20,7.7
				C135.6,143.6,140.7,132.8,149.4,124z"/>
		</g>
	</g>
	<g>
		<g>
			
				<radialGradient id="SVGID_9_" cx="-215.341" cy="168.3744" r="19.2062" gradientTransform="matrix(0.866 0.5 0.5 -0.866 153.9194 432.5244)" gradientUnits="userSpaceOnUse">
				<stop  offset="0" style="stop-color:#D4F6FF"/>
				<stop  offset="0.198" style="stop-color:#D9F7FF"/>
				<stop  offset="1" style="stop-color:#89C0F5"/>
			</radialGradient>
			<path class="st8" d="M62.3,180.9c-2.2,3.8-7.1,5.1-10.9,2.9c-3.8-2.2-5.1-7.1-2.9-10.9s15.8-11.5,15.8-11.5S64.5,177,62.3,180.9z
				"/>
			
				<radialGradient id="SVGID_10_" cx="1297.7992" cy="1930.6188" r="3.0101" gradientTransform="matrix(-1.3036 0.5794 0.7454 1.946 305.3628 -4331.1377)" gradientUnits="userSpaceOnUse">
				<stop  offset="0" style="stop-color:#FFFFFF"/>
				<stop  offset="1" style="stop-color:#FFFFFF;stop-opacity:0"/>
			</radialGradient>
			<path class="st9" d="M48.7,179.5c-1.2-3.2-0.5-6.6,1.7-7.6c2.2-1,4.9,0.9,6.2,4.1c1.2,3.2,0.5,6.6-1.7,7.6
				C52.7,184.6,50,182.8,48.7,179.5z"/>
		</g>
		<g>
			
				<radialGradient id="SVGID_11_" cx="-177.2551" cy="190.3658" r="19.2064" gradientTransform="matrix(0.866 0.5 0.5 -0.866 153.9194 432.5244)" gradientUnits="userSpaceOnUse">
				<stop  offset="0" style="stop-color:#D4F6FF"/>
				<stop  offset="0.198" style="stop-color:#D9F7FF"/>
				<stop  offset="1" style="stop-color:#89C0F5"/>
			</radialGradient>
			<path class="st10" d="M106.3,180.9c-2.2,3.8-7.1,5.1-10.9,2.9s-5.1-7.1-2.9-10.9s15.8-11.5,15.8-11.5S108.5,177,106.3,180.9z"/>
			
				<radialGradient id="SVGID_12_" cx="1268.9733" cy="1939.2014" r="3.008" gradientTransform="matrix(-1.3036 0.5794 0.7454 1.946 305.3628 -4331.1377)" gradientUnits="userSpaceOnUse">
				<stop  offset="0" style="stop-color:#FFFFFF"/>
				<stop  offset="1" style="stop-color:#FFFFFF;stop-opacity:0"/>
			</radialGradient>
			<path class="st11" d="M92.7,179.5c-1.2-3.2-0.5-6.6,1.7-7.6c2.2-1,4.9,0.9,6.2,4.1c1.2,3.2,0.5,6.6-1.7,7.6
				C96.7,184.6,93.9,182.8,92.7,179.5z"/>
		</g>
		<g>
			
				<radialGradient id="SVGID_13_" cx="-139.1659" cy="212.3569" r="19.2062" gradientTransform="matrix(0.866 0.5 0.5 -0.866 153.9194 432.5244)" gradientUnits="userSpaceOnUse">
				<stop  offset="0" style="stop-color:#D4F6FF"/>
				<stop  offset="0.198" style="stop-color:#D9F7FF"/>
				<stop  offset="1" style="stop-color:#89C0F5"/>
			</radialGradient>
			<path class="st12" d="M150.3,180.9c-2.2,3.8-7.1,5.1-10.9,2.9s-5.1-7.1-2.9-10.9s15.8-11.5,15.8-11.5S152.5,177,150.3,180.9z"/>
			
				<radialGradient id="SVGID_14_" cx="1240.144" cy="1947.7849" r="3.008" gradientTransform="matrix(-1.3036 0.5794 0.7454 1.946 305.3628 -4331.1377)" gradientUnits="userSpaceOnUse">
				<stop  offset="0" style="stop-color:#FFFFFF"/>
				<stop  offset="1" style="stop-color:#FFFFFF;stop-opacity:0"/>
			</radialGradient>
			<path class="st13" d="M136.7,179.5c-1.2-3.2-0.5-6.6,1.7-7.6c2.2-1,4.9,0.9,6.2,4.1c1.2,3.2,0.5,6.6-1.7,7.6
				C140.7,184.6,137.9,182.8,136.7,179.5z"/>
		</g>
	</g>
	<g>
		<g>
			
				<radialGradient id="SVGID_15_" cx="-206.2132" cy="201.0193" r="27.3049" gradientTransform="matrix(0.866 0.5 0.5 -0.866 153.9194 432.5244)" gradientUnits="userSpaceOnUse">
				<stop  offset="0" style="stop-color:#D4F6FF"/>
				<stop  offset="0.198" style="stop-color:#D9F7FF"/>
				<stop  offset="1" style="stop-color:#89C0F5"/>
			</radialGradient>
			<path class="st14" d="M91,157.9c-3.1,5.4-10.1,7.3-15.5,4.2s-7.3-10.1-4.2-15.5s22.5-16.3,22.5-16.3S94.2,152.5,91,157.9z"/>
			
				<radialGradient id="SVGID_16_" cx="1275.55" cy="1924.7843" r="4.2782" gradientTransform="matrix(-1.3036 0.5794 0.7454 1.946 305.3628 -4331.1377)" gradientUnits="userSpaceOnUse">
				<stop  offset="0" style="stop-color:#FFFFFF"/>
				<stop  offset="1" style="stop-color:#FFFFFF;stop-opacity:0"/>
			</radialGradient>
			<path class="st15" d="M71.7,156c-1.8-4.6-0.7-9.4,2.4-10.8s7,1.2,8.8,5.8c1.8,4.6,0.7,9.4-2.4,10.8
				C77.4,163.2,73.5,160.6,71.7,156z"/>
		</g>
		<g>
			
				<radialGradient id="SVGID_17_" cx="-165.1162" cy="224.7507" r="27.3033" gradientTransform="matrix(0.866 0.5 0.5 -0.866 153.9194 432.5244)" gradientUnits="userSpaceOnUse">
				<stop  offset="0" style="stop-color:#D4F6FF"/>
				<stop  offset="0.198" style="stop-color:#D9F7FF"/>
				<stop  offset="1" style="stop-color:#89C0F5"/>
			</radialGradient>
			<path class="st16" d="M138.5,157.9c-3.1,5.4-10.1,7.3-15.5,4.2s-7.3-10.1-4.2-15.5c3.1-5.4,22.5-16.3,22.5-16.3
				S141.6,152.5,138.5,157.9z"/>
			
				<radialGradient id="SVGID_18_" cx="1244.4429" cy="1934.0461" r="4.2761" gradientTransform="matrix(-1.3036 0.5794 0.7454 1.946 305.3628 -4331.1377)" gradientUnits="userSpaceOnUse">
				<stop  offset="0" style="stop-color:#FFFFFF"/>
				<stop  offset="1" style="stop-color:#FFFFFF;stop-opacity:0"/>
			</radialGradient>
			<path class="st17" d="M119.2,156c-1.8-4.6-0.7-9.4,2.4-10.8s7,1.2,8.8,5.8c1.8,4.6,0.7,9.4-2.4,10.8
				C124.9,163.2,120.9,160.6,119.2,156z"/>
		</g>
	</g>
</g>
</svg>
