<?xml version="1.0" encoding="utf-8"?>
<!-- Generator: Adobe Illustrator 25.0.1, SVG Export Plug-In . SVG Version: 6.00 Build 0)  -->
<svg version="1.1" id="Layer_1" xmlns="http://www.w3.org/2000/svg" xmlns:xlink="http://www.w3.org/1999/xlink" x="0px" y="0px"
	 viewBox="0 0 235.6 196.7" style="enable-background:new 0 0 235.6 196.7;" xml:space="preserve">
<style type="text/css">
	.st0{fill:url(#SVGID_1_);}
	.st1{fill:url(#SVGID_2_);}
	.st2{opacity:0.4;fill:url(#SVGID_3_);enable-background:new    ;}
	.st3{opacity:0.2;fill:url(#SVGID_4_);enable-background:new    ;}
	.st4{fill:url(#SVGID_5_);}
	.st5{fill:url(#SVGID_6_);}
	.st6{fill:url(#SVGID_7_);}
	.st7{fill:url(#SVGID_8_);}
</style>
<g>
	
		<radialGradient id="SVGID_1_" cx="-1078.2625" cy="-1049.1691" r="170.6651" gradientTransform="matrix(-1 0 0 -1 -1019.0636 -1022.3109)" gradientUnits="userSpaceOnUse">
		<stop  offset="0" style="stop-color:#FFFFFF"/>
		<stop  offset="0.198" style="stop-color:#D9F7FF"/>
		<stop  offset="1" style="stop-color:#89C0F5"/>
	</radialGradient>
	<path class="st0" d="M84.9,8c32.4,0,59.5,22.4,66.8,52.5c5.9-2.9,12.5-4.5,19.5-4.5c24.7,0,44.8,20.1,44.8,44.8
		s-20.1,44.8-44.8,44.8H84.9c-38,0-68.7-30.8-68.7-68.7S47,8,84.9,8z"/>
	
		<radialGradient id="SVGID_2_" cx="534.8429" cy="2436.4839" r="20.0357" gradientTransform="matrix(0.8392 1.1536 -1.6186 1.3126 3554.2173 -3764.5703)" gradientUnits="userSpaceOnUse">
		<stop  offset="0" style="stop-color:#FFFFFF"/>
		<stop  offset="1" style="stop-color:#FFFFFF;stop-opacity:0"/>
	</radialGradient>
	<path class="st1" d="M76.2,73.7C94,59.1,101.1,37,91.8,24.3S60.5,13,42.5,27.4C24.7,41.9,17.6,64.1,26.9,76.8
		C36.3,89.6,58.2,88.3,76.2,73.7z"/>
	
		<radialGradient id="SVGID_3_" cx="593.9531" cy="2406.8105" r="10.9974" gradientTransform="matrix(0.8392 1.1536 -1.6186 1.3126 3554.2173 -3764.5703)" gradientUnits="userSpaceOnUse">
		<stop  offset="0" style="stop-color:#FFFFFF"/>
		<stop  offset="1" style="stop-color:#FFFFFF;stop-opacity:0"/>
	</radialGradient>
	<path class="st2" d="M166.2,92.5c9.9-8,13.7-20.1,8.6-27.2c-5.1-7-17.2-6.2-27.1,1.7c-9.9,8-13.7,20.2-8.6,27.2
		C144.3,101.4,156.4,100.5,166.2,92.5z"/>
	
		<radialGradient id="SVGID_4_" cx="-1906.3647" cy="-39.0854" r="11.503" gradientTransform="matrix(-0.7056 -0.4583 1.3993 -1.8312 -1096.9298 -825.0014)" gradientUnits="userSpaceOnUse">
		<stop  offset="0" style="stop-color:#FFFFFF"/>
		<stop  offset="1" style="stop-color:#FFFFFF;stop-opacity:0"/>
	</radialGradient>
	<path class="st3" d="M188,110c10.8-11,21.9-15.2,24.9-9.6c3,5.6-3.4,19.1-14.2,30.1c-10.8,11-21.9,15.2-24.9,9.6
		S177.2,120.9,188,110z"/>
</g>
<g>
	
		<radialGradient id="SVGID_5_" cx="286.5182" cy="-314.9206" r="23.949" gradientTransform="matrix(0.866 0.5 0.5 -0.866 -14.9983 -239.1859)" gradientUnits="userSpaceOnUse">
		<stop  offset="0" style="stop-color:#D4F6FF"/>
		<stop  offset="0.198" style="stop-color:#D9F7FF"/>
		<stop  offset="1" style="stop-color:#89C0F5"/>
	</radialGradient>
	<path class="st4" d="M89,179c-2.7,4.7-8.9,6.4-13.6,3.6c-4.7-2.7-6.4-8.9-3.6-13.6s19.7-14.3,19.7-14.3S91.8,174.3,89,179z"/>
	
		<radialGradient id="SVGID_6_" cx="-482.9724" cy="2752.116" r="3.7539" gradientTransform="matrix(-1.3036 0.5794 0.7454 1.946 -2604.0962 -4900.5459)" gradientUnits="userSpaceOnUse">
		<stop  offset="0" style="stop-color:#FFFFFF"/>
		<stop  offset="1" style="stop-color:#FFFFFF;stop-opacity:0"/>
	</radialGradient>
	<path class="st5" d="M72.1,177.4c-1.5-4-0.6-8.2,2.1-9.5c2.7-1.2,6.1,1.1,7.7,5.1c1.5,4,0.6,8.2-2.1,9.5
		C77.1,183.8,73.6,181.5,72.1,177.4z"/>
</g>
<g>
	
		<radialGradient id="SVGID_7_" cx="322.5659" cy="-294.1056" r="23.949" gradientTransform="matrix(0.866 0.5 0.5 -0.866 -14.9983 -239.1859)" gradientUnits="userSpaceOnUse">
		<stop  offset="0" style="stop-color:#D4F6FF"/>
		<stop  offset="0.198" style="stop-color:#D9F7FF"/>
		<stop  offset="1" style="stop-color:#89C0F5"/>
	</radialGradient>
	<path class="st6" d="M130.6,179c-2.7,4.7-8.9,6.4-13.6,3.6c-4.7-2.7-6.4-8.9-3.6-13.6s19.7-14.3,19.7-14.3S133.3,174.3,130.6,179z"
		/>
	
		<radialGradient id="SVGID_8_" cx="-510.2578" cy="2760.2383" r="3.7528" gradientTransform="matrix(-1.3036 0.5794 0.7454 1.946 -2604.0962 -4900.5459)" gradientUnits="userSpaceOnUse">
		<stop  offset="0" style="stop-color:#FFFFFF"/>
		<stop  offset="1" style="stop-color:#FFFFFF;stop-opacity:0"/>
	</radialGradient>
	<path class="st7" d="M113.6,177.4c-1.5-4-0.6-8.2,2.1-9.5c2.7-1.2,6.1,1.1,7.7,5.1c1.5,4,0.6,8.2-2.1,9.5
		C118.6,183.8,115.2,181.5,113.6,177.4z"/>
</g>
</svg>
