<?xml version="1.0" encoding="utf-8"?>
<!-- Generator: Adobe Illustrator 25.0.1, SVG Export Plug-In . SVG Version: 6.00 Build 0)  -->
<svg version="1.1" id="Layer_1" xmlns="http://www.w3.org/2000/svg" xmlns:xlink="http://www.w3.org/1999/xlink" x="0px" y="0px"
	 viewBox="0 0 226.6 171.5" style="enable-background:new 0 0 226.6 171.5;" xml:space="preserve">
<style type="text/css">
	.st0{fill:url(#SVGID_1_);}
	.st1{fill:url(#SVGID_2_);}
	.st2{opacity:0.4;fill:url(#SVGID_3_);}
	.st3{fill:url(#SVGID_4_);}
	.st4{fill:url(#SVGID_5_);}
	.st5{fill:url(#SVGID_6_);}
	.st6{fill:url(#SVGID_7_);}
	.st7{fill:url(#SVGID_8_);}
	.st8{fill:url(#SVGID_9_);}
	.st9{fill:url(#SVGID_10_);}
	.st10{fill:url(#SVGID_11_);}
	.st11{fill:url(#SVGID_12_);}
	.st12{fill:url(#SVGID_13_);}
	.st13{fill:url(#SVGID_14_);}
	.st14{opacity:0.4;fill:url(#SVGID_15_);}
	.st15{opacity:0.2;fill:url(#SVGID_16_);}
	.st16{fill:url(#SVGID_17_);}
	.st17{fill:url(#SVGID_18_);}
	.st18{fill:url(#SVGID_19_);}
	.st19{opacity:0.4;fill:url(#SVGID_20_);}
	.st20{opacity:0.2;fill:url(#SVGID_21_);}
	.st21{fill:url(#SVGID_22_);}
	.st22{fill:url(#SVGID_23_);}
	.st23{fill:url(#SVGID_24_);}
	.st24{fill:url(#SVGID_25_);}
	.st25{fill:url(#SVGID_26_);}
	.st26{fill:url(#SVGID_27_);}
	.st27{fill:url(#SVGID_28_);}
	.st28{fill:url(#SVGID_29_);}
</style>
<g>
	<g>
		<g>
			
				<radialGradient id="SVGID_1_" cx="-62.6053" cy="46.8383" r="74.6618" gradientTransform="matrix(-1 0 0 1 51.6729 0)" gradientUnits="userSpaceOnUse">
				<stop  offset="0" style="stop-color:#FFF8C7"/>
				<stop  offset="0.1559" style="stop-color:#FFE436"/>
				<stop  offset="1" style="stop-color:#FE761C"/>
			</radialGradient>
			<path class="st0" d="M66,71.5c0,21.7,17.6,39.3,39.3,39.3c21.7,0,39.3-17.6,39.3-39.3c0-21.7-17.6-39.3-39.3-39.3
				C83.6,32.2,66,49.8,66,71.5z"/>
			<g>
				
					<radialGradient id="SVGID_2_" cx="1150.8099" cy="-1833.2819" r="11.2072" gradientTransform="matrix(-0.8392 1.1536 -1.6186 -1.3126 -1880.9102 -3679.4204)" gradientUnits="userSpaceOnUse">
					<stop  offset="0" style="stop-color:#FFFFFF"/>
					<stop  offset="1" style="stop-color:#FFFFFF;stop-opacity:0"/>
				</radialGradient>
				<path class="st1" d="M111.3,67.5c-10-8.1-13.9-20.5-8.7-27.6c5.2-7.1,17.5-6.3,27.5,1.8c10,8.1,13.9,20.5,8.7,27.6
					C133.6,76.4,121.3,75.6,111.3,67.5z"/>
				
					<radialGradient id="SVGID_3_" cx="-2911.1594" cy="2947.5479" r="10.8146" gradientTransform="matrix(-1.1717 -1.1007 0.222 -0.7283 -3982.167 -965.5214)" gradientUnits="userSpaceOnUse">
					<stop  offset="0" style="stop-color:#FFFFFF"/>
					<stop  offset="1" style="stop-color:#FFFFFF;stop-opacity:0"/>
				</radialGradient>
				<path class="st2" d="M70.5,80.2c1.3-4.3,8.1-2.5,15.1,4c7,6.6,11.6,15.4,10.3,19.8c-1.3,4.3-8.1,2.5-15.1-4
					C73.8,93.4,69.2,84.5,70.5,80.2z"/>
			</g>
			<radialGradient id="SVGID_4_" cx="106.1518" cy="11.4101" r="12.9916" gradientUnits="userSpaceOnUse">
				<stop  offset="0" style="stop-color:#FFF8C7"/>
				<stop  offset="0.1559" style="stop-color:#FFE436"/>
				<stop  offset="1" style="stop-color:#FE761C"/>
			</radialGradient>
			<path class="st3" d="M110.1,20.5c0,2.6-2.1,4.8-4.8,4.8l0,0c-2.6,0-4.8-2.1-4.8-4.8v-6.8c0-2.6,2.1-4.8,4.8-4.8l0,0
				c2.6,0,4.8,2.1,4.8,4.8V20.5z"/>
			
				<radialGradient id="SVGID_5_" cx="518.8707" cy="-226.6776" r="12.9914" gradientTransform="matrix(0.7071 -0.7071 0.7071 0.7071 -143.2009 555.5722)" gradientUnits="userSpaceOnUse">
				<stop  offset="0" style="stop-color:#FFF8C7"/>
				<stop  offset="0.1559" style="stop-color:#FFE436"/>
				<stop  offset="1" style="stop-color:#FE761C"/>
			</radialGradient>
			<path class="st4" d="M72.6,32.1c1.9,1.9,1.9,4.9,0,6.7l0,0c-1.9,1.9-4.9,1.9-6.7,0l-4.8-4.8c-1.9-1.9-1.9-4.9,0-6.7l0,0
				c1.9-1.9,4.9-1.9,6.7,0L72.6,32.1z"/>
			
				<radialGradient id="SVGID_6_" cx="978.9707" cy="-103.3824" r="12.9916" gradientTransform="matrix(0 -1 1 0 148.5769 1049.6016)" gradientUnits="userSpaceOnUse">
				<stop  offset="0" style="stop-color:#FFF8C7"/>
				<stop  offset="0.1559" style="stop-color:#FFE436"/>
				<stop  offset="1" style="stop-color:#FE761C"/>
			</radialGradient>
			<path class="st5" d="M54.3,66.7c2.6,0,4.8,2.1,4.8,4.8l0,0c0,2.6-2.1,4.8-4.8,4.8h-6.8c-2.6,0-4.8-2.1-4.8-4.8l0,0
				c0-2.6,2.1-4.8,4.8-4.8H54.3z"/>
			
				<radialGradient id="SVGID_7_" cx="1217.2223" cy="309.3337" r="12.9913" gradientTransform="matrix(-0.7071 -0.7071 0.7071 -0.7071 704.1483 1192.8015)" gradientUnits="userSpaceOnUse">
				<stop  offset="0" style="stop-color:#FFF8C7"/>
				<stop  offset="0.1559" style="stop-color:#FFE436"/>
				<stop  offset="1" style="stop-color:#FE761C"/>
			</radialGradient>
			<path class="st6" d="M65.9,104.2c1.9-1.9,4.9-1.9,6.7,0l0,0c1.9,1.9,1.9,4.9,0,6.7l-4.8,4.8c-1.9,1.9-4.9,1.9-6.7,0l0,0
				c-1.9-1.9-1.9-4.9,0-6.7L65.9,104.2z"/>
			
				<radialGradient id="SVGID_8_" cx="1093.7607" cy="769.438" r="12.9919" gradientTransform="matrix(-1 0 0 -1 1198.1758 901.0254)" gradientUnits="userSpaceOnUse">
				<stop  offset="0" style="stop-color:#FFF8C7"/>
				<stop  offset="0.1559" style="stop-color:#FFE436"/>
				<stop  offset="1" style="stop-color:#FE761C"/>
			</radialGradient>
			<path class="st7" d="M100.5,122.5c0-2.6,2.1-4.8,4.8-4.8l0,0c2.6,0,4.8,2.1,4.8,4.8l0,6.8c0,2.6-2.1,4.8-4.8,4.8l0,0
				c-2.6,0-4.8-2.1-4.8-4.8L100.5,122.5z"/>
			
				<radialGradient id="SVGID_9_" cx="681.208" cy="1007.6895" r="12.9915" gradientTransform="matrix(-0.7071 0.7071 -0.7071 -0.7071 1341.3796 345.4562)" gradientUnits="userSpaceOnUse">
				<stop  offset="0" style="stop-color:#FFF8C7"/>
				<stop  offset="0.1559" style="stop-color:#FFE436"/>
				<stop  offset="1" style="stop-color:#FE761C"/>
			</radialGradient>
			<path class="st8" d="M137.9,110.9c-1.9-1.9-1.9-4.9,0-6.7l0,0c1.9-1.9,4.9-1.9,6.7,0l4.8,4.8c1.9,1.9,1.9,4.9,0,6.7l0,0
				c-1.9,1.9-4.9,1.9-6.7,0L137.9,110.9z"/>
			
				<radialGradient id="SVGID_10_" cx="220.939" cy="884.2319" r="12.9903" gradientTransform="matrix(0 1 -1 0 1049.6055 -148.5742)" gradientUnits="userSpaceOnUse">
				<stop  offset="0" style="stop-color:#FFF8C7"/>
				<stop  offset="0.1559" style="stop-color:#FFE436"/>
				<stop  offset="1" style="stop-color:#FE761C"/>
			</radialGradient>
			<path class="st9" d="M156.2,76.3c-2.6,0-4.8-2.1-4.8-4.8l0,0c0-2.6,2.1-4.8,4.8-4.8h6.8c2.6,0,4.8,2.1,4.8,4.8l0,0
				c0,2.6-2.1,4.8-4.8,4.8H156.2z"/>
			
				<radialGradient id="SVGID_11_" cx="-17.1464" cy="471.6778" r="12.9914" gradientTransform="matrix(0.7071 0.7071 -0.7071 0.7071 494.0343 -291.778)" gradientUnits="userSpaceOnUse">
				<stop  offset="0" style="stop-color:#FFF8C7"/>
				<stop  offset="0.1559" style="stop-color:#FFE436"/>
				<stop  offset="1" style="stop-color:#FE761C"/>
			</radialGradient>
			<path class="st10" d="M144.7,38.8c-1.9,1.9-4.9,1.9-6.7,0l0,0c-1.9-1.9-1.9-4.9,0-6.7l4.8-4.8c1.9-1.9,4.9-1.9,6.7,0l0,0
				c1.9,1.9,1.9,4.9,0,6.7L144.7,38.8z"/>
		</g>
		<g>
			
				<radialGradient id="SVGID_12_" cx="1450.5135" cy="87.0362" r="67.5751" gradientTransform="matrix(-1 0 0 1 1511.1875 0)" gradientUnits="userSpaceOnUse">
				<stop  offset="0" style="stop-color:#FFFFFF"/>
				<stop  offset="0.198" style="stop-color:#D9F7FF"/>
				<stop  offset="1" style="stop-color:#89C0F5"/>
			</radialGradient>
			<path class="st11" d="M70.9,79.6c12.8,0,23.6,8.9,26.4,20.8c2.3-1.1,4.9-1.8,7.7-1.8c9.8,0,17.7,7.9,17.7,17.7
				c0,9.8-7.9,17.7-17.7,17.7H70.9c-15,0-27.2-12.2-27.2-27.2C43.7,91.8,55.8,79.6,70.9,79.6z"/>
			<radialGradient id="SVGID_13_" cx="84.8468" cy="84.5821" r="67.612" gradientUnits="userSpaceOnUse">
				<stop  offset="0" style="stop-color:#FFE436"/>
				<stop  offset="1.982603e-02" style="stop-color:#FFDF35;stop-opacity:0.9742"/>
				<stop  offset="0.1739" style="stop-color:#FFB92C;stop-opacity:0.7739"/>
				<stop  offset="0.3276" style="stop-color:#FE9C25;stop-opacity:0.5739"/>
				<stop  offset="0.4791" style="stop-color:#FE8720;stop-opacity:0.3768"/>
				<stop  offset="0.6274" style="stop-color:#FE7A1D;stop-opacity:0.1839"/>
				<stop  offset="0.7688" style="stop-color:#FE761C;stop-opacity:0"/>
			</radialGradient>
			<path class="st12" d="M70.9,79.6c12.8,0,23.6,8.9,26.4,20.8c2.3-1.1,4.9-1.8,7.7-1.8c9.8,0,17.7,7.9,17.7,17.7
				c0,9.8-7.9,17.7-17.7,17.7H70.9c-15,0-27.2-12.2-27.2-27.2C43.7,91.8,55.8,79.6,70.9,79.6z"/>
			
				<radialGradient id="SVGID_14_" cx="585.7131" cy="-2361.8511" r="7.9297" gradientTransform="matrix(0.8392 1.1536 1.6186 -1.3126 3392.0977 -3679.4204)" gradientUnits="userSpaceOnUse">
				<stop  offset="0" style="stop-color:#FFFFFF"/>
				<stop  offset="1" style="stop-color:#FFFFFF;stop-opacity:0"/>
			</radialGradient>
			<path class="st13" d="M67.4,105.6c7.1-5.7,9.9-14.5,6.2-19.6c-3.7-5.1-12.4-4.5-19.5,1.3c-7.1,5.8-9.8,14.5-6.2,19.6
				C51.6,111.9,60.3,111.3,67.4,105.6z"/>
			
				<radialGradient id="SVGID_15_" cx="609.1236" cy="-2350.1047" r="4.3579" gradientTransform="matrix(0.8392 1.1536 1.6186 -1.3126 3392.0977 -3679.4204)" gradientUnits="userSpaceOnUse">
				<stop  offset="0" style="stop-color:#FFFFFF"/>
				<stop  offset="1" style="stop-color:#FFFFFF;stop-opacity:0"/>
			</radialGradient>
			<path class="st14" d="M103.1,113c3.9-3.2,5.4-8,3.4-10.7c-2-2.8-6.8-2.5-10.7,0.7c-3.9,3.2-5.4,8-3.4,10.7
				C94.4,116.5,99.2,116.2,103.1,113z"/>
			
				<radialGradient id="SVGID_16_" cx="1568.1296" cy="170.213" r="4.5567" gradientTransform="matrix(-0.7056 -0.4583 -1.3993 1.8312 1458.5291 531.0194)" gradientUnits="userSpaceOnUse">
				<stop  offset="0" style="stop-color:#FFFFFF"/>
				<stop  offset="1" style="stop-color:#FFFFFF;stop-opacity:0"/>
			</radialGradient>
			<path class="st15" d="M111.7,119.9c4.3-4.3,8.7-6,9.9-3.8c1.2,2.2-1.3,7.6-5.6,11.9c-4.3,4.3-8.7,6-9.9,3.8
				C104.9,129.6,107.4,124.3,111.7,119.9z"/>
		</g>
		<g>
			
				<radialGradient id="SVGID_17_" cx="-721.6357" cy="54.1412" r="53.5879" gradientTransform="matrix(1 0 0 1 891.3594 0)" gradientUnits="userSpaceOnUse">
				<stop  offset="0" style="stop-color:#FFFFFF"/>
				<stop  offset="0.198" style="stop-color:#D9F7FF"/>
				<stop  offset="1" style="stop-color:#89C0F5"/>
			</radialGradient>
			<path class="st16" d="M161.6,48.2c-10.2,0-18.7,7-21,16.5c-1.8-0.9-3.9-1.4-6.1-1.4c-7.8,0-14,6.3-14,14c0,7.8,6.3,14,14,14h27.1
				c11.9,0,21.6-9.7,21.6-21.6C183.2,57.9,173.6,48.2,161.6,48.2z"/>
			<radialGradient id="SVGID_18_" cx="123.2108" cy="65.1207" r="62.3257" gradientUnits="userSpaceOnUse">
				<stop  offset="0" style="stop-color:#FFE436"/>
				<stop  offset="1.982603e-02" style="stop-color:#FFDF35;stop-opacity:0.9742"/>
				<stop  offset="0.1739" style="stop-color:#FFB92C;stop-opacity:0.7739"/>
				<stop  offset="0.3276" style="stop-color:#FE9C25;stop-opacity:0.5739"/>
				<stop  offset="0.4791" style="stop-color:#FE8720;stop-opacity:0.3768"/>
				<stop  offset="0.6274" style="stop-color:#FE7A1D;stop-opacity:0.1839"/>
				<stop  offset="0.7688" style="stop-color:#FE761C;stop-opacity:0"/>
			</radialGradient>
			<path class="st17" d="M161.6,48.2c-10.2,0-18.7,7-21,16.5c-1.8-0.9-3.9-1.4-6.1-1.4c-7.8,0-14,6.3-14,14c0,7.8,6.3,14,14,14h27.1
				c11.9,0,21.6-9.7,21.6-21.6C183.2,57.9,173.6,48.2,161.6,48.2z"/>
			
				<radialGradient id="SVGID_19_" cx="1527.1056" cy="-1507.9519" r="6.2883" gradientTransform="matrix(-0.8392 1.1536 -1.6186 -1.3126 -989.5508 -3679.4204)" gradientUnits="userSpaceOnUse">
				<stop  offset="0" style="stop-color:#FFFFFF"/>
				<stop  offset="1" style="stop-color:#FFFFFF;stop-opacity:0"/>
			</radialGradient>
			<path class="st18" d="M164.4,68.8c-5.6-4.6-7.8-11.5-4.9-15.5c2.9-4,9.8-3.6,15.5,1c5.6,4.6,7.8,11.5,4.9,15.5
				C176.9,73.8,170,73.4,164.4,68.8z"/>
			
				<radialGradient id="SVGID_20_" cx="1545.6698" cy="-1498.6367" r="3.4562" gradientTransform="matrix(-0.8392 1.1536 -1.6186 -1.3126 -989.5508 -3679.4204)" gradientUnits="userSpaceOnUse">
				<stop  offset="0" style="stop-color:#FFFFFF"/>
				<stop  offset="1" style="stop-color:#FFFFFF;stop-opacity:0"/>
			</radialGradient>
			<path class="st19" d="M136.1,74.8c-3.1-2.5-4.3-6.3-2.7-8.5c1.6-2.2,5.4-2,8.5,0.5c3.1,2.5,4.3,6.3,2.7,8.5
				C143,77.5,139.2,77.3,136.1,74.8z"/>
			
				<radialGradient id="SVGID_21_" cx="-915.2412" cy="-337.1827" r="3.6136" gradientTransform="matrix(0.7056 -0.4583 1.3993 1.8312 1245.2123 281.3984)" gradientUnits="userSpaceOnUse">
				<stop  offset="0" style="stop-color:#FFFFFF"/>
				<stop  offset="1" style="stop-color:#FFFFFF;stop-opacity:0"/>
			</radialGradient>
			<path class="st20" d="M129.3,80.2c-3.4-3.4-6.9-4.8-7.8-3c-0.9,1.8,1.1,6,4.5,9.4c3.4,3.4,6.9,4.8,7.8,3
				C134.7,87.9,132.7,83.7,129.3,80.2z"/>
		</g>
	</g>
	<g>
		<g>
			
				<radialGradient id="SVGID_22_" cx="-186.9798" cy="82.0918" r="16.4988" gradientTransform="matrix(0.866 0.5 -0.5 0.866 267.4508 180.8255)" gradientUnits="userSpaceOnUse">
				<stop  offset="0" style="stop-color:#D4F6FF"/>
				<stop  offset="0.198" style="stop-color:#D9F7FF"/>
				<stop  offset="1" style="stop-color:#89C0F5"/>
			</radialGradient>
			<path class="st21" d="M73.7,160c-1.9,3.3-6.1,4.4-9.4,2.5c-3.3-1.9-4.4-6.1-2.5-9.4c1.9-3.3,13.6-9.9,13.6-9.9
				S75.6,156.7,73.7,160z"/>
			
				<radialGradient id="SVGID_23_" cx="1301.1583" cy="-1721.1564" r="2.5846" gradientTransform="matrix(-1.3036 0.5794 -0.7454 -1.946 478.5913 -3945.9104)" gradientUnits="userSpaceOnUse">
				<stop  offset="0" style="stop-color:#FFFFFF"/>
				<stop  offset="1" style="stop-color:#FFFFFF;stop-opacity:0"/>
			</radialGradient>
			<path class="st22" d="M62,158.8c-1.1-2.8-0.4-5.7,1.4-6.5c1.9-0.8,4.2,0.8,5.3,3.5c1.1,2.8,0.4,5.7-1.4,6.5
				C65.4,163.2,63,161.6,62,158.8z"/>
		</g>
		<g>
			
				<radialGradient id="SVGID_24_" cx="-161.9965" cy="67.6655" r="16.4988" gradientTransform="matrix(0.866 0.5 -0.5 0.866 267.4508 180.8255)" gradientUnits="userSpaceOnUse">
				<stop  offset="0" style="stop-color:#D4F6FF"/>
				<stop  offset="0.198" style="stop-color:#D9F7FF"/>
				<stop  offset="1" style="stop-color:#89C0F5"/>
			</radialGradient>
			<path class="st23" d="M102.5,160c-1.9,3.3-6.1,4.4-9.4,2.5c-3.3-1.9-4.4-6.1-2.5-9.4c1.9-3.3,13.6-9.9,13.6-9.9
				S104.4,156.7,102.5,160z"/>
			
				<radialGradient id="SVGID_25_" cx="1282.2472" cy="-1726.787" r="2.5839" gradientTransform="matrix(-1.3036 0.5794 -0.7454 -1.946 478.5913 -3945.9104)" gradientUnits="userSpaceOnUse">
				<stop  offset="0" style="stop-color:#FFFFFF"/>
				<stop  offset="1" style="stop-color:#FFFFFF;stop-opacity:0"/>
			</radialGradient>
			<path class="st24" d="M90.8,158.8c-1.1-2.8-0.4-5.7,1.4-6.5c1.9-0.8,4.2,0.8,5.3,3.5c1.1,2.8,0.4,5.7-1.4,6.5
				C94.3,163.2,91.9,161.6,90.8,158.8z"/>
		</g>
		<g>
			
				<radialGradient id="SVGID_26_" cx="-137.0102" cy="53.2396" r="16.4986" gradientTransform="matrix(0.866 0.5 -0.5 0.866 267.4508 180.8255)" gradientUnits="userSpaceOnUse">
				<stop  offset="0" style="stop-color:#D4F6FF"/>
				<stop  offset="0.198" style="stop-color:#D9F7FF"/>
				<stop  offset="1" style="stop-color:#89C0F5"/>
			</radialGradient>
			<path class="st25" d="M131.4,160c-1.9,3.3-6.1,4.4-9.4,2.5c-3.3-1.9-4.4-6.1-2.5-9.4c1.9-3.3,13.6-9.9,13.6-9.9
				S133.3,156.7,131.4,160z"/>
			
				<radialGradient id="SVGID_27_" cx="1263.335" cy="-1732.4178" r="2.5839" gradientTransform="matrix(-1.3036 0.5794 -0.7454 -1.946 478.5913 -3945.9104)" gradientUnits="userSpaceOnUse">
				<stop  offset="0" style="stop-color:#FFFFFF"/>
				<stop  offset="1" style="stop-color:#FFFFFF;stop-opacity:0"/>
			</radialGradient>
			<path class="st26" d="M119.7,158.8c-1.1-2.8-0.4-5.7,1.4-6.5c1.9-0.8,4.2,0.8,5.3,3.5c1.1,2.8,0.4,5.7-1.4,6.5
				C123.1,163.2,120.7,161.6,119.7,158.8z"/>
		</g>
		<g>
			
				<radialGradient id="SVGID_28_" cx="-112.0254" cy="38.8142" r="16.4986" gradientTransform="matrix(0.866 0.5 -0.5 0.866 267.4508 180.8255)" gradientUnits="userSpaceOnUse">
				<stop  offset="0" style="stop-color:#D4F6FF"/>
				<stop  offset="0.198" style="stop-color:#D9F7FF"/>
				<stop  offset="1" style="stop-color:#89C0F5"/>
			</radialGradient>
			<path class="st27" d="M160.2,160c-1.9,3.3-6.1,4.4-9.4,2.5c-3.3-1.9-4.4-6.1-2.5-9.4c1.9-3.3,13.6-9.9,13.6-9.9
				S162.1,156.7,160.2,160z"/>
			
				<radialGradient id="SVGID_29_" cx="1244.424" cy="-1738.0485" r="2.5839" gradientTransform="matrix(-1.3036 0.5794 -0.7454 -1.946 478.5913 -3945.9104)" gradientUnits="userSpaceOnUse">
				<stop  offset="0" style="stop-color:#FFFFFF"/>
				<stop  offset="1" style="stop-color:#FFFFFF;stop-opacity:0"/>
			</radialGradient>
			<path class="st28" d="M148.5,158.8c-1.1-2.8-0.4-5.7,1.4-6.5c1.9-0.8,4.2,0.8,5.3,3.5c1.1,2.8,0.4,5.7-1.4,6.5
				C152,163.2,149.6,161.6,148.5,158.8z"/>
		</g>
	</g>
</g>
</svg>
