<?xml version="1.0" encoding="utf-8"?>
<!-- Generator: Adobe Illustrator 25.0.1, SVG Export Plug-In . SVG Version: 6.00 Build 0)  -->
<svg version="1.1" id="Layer_1" xmlns="http://www.w3.org/2000/svg" xmlns:xlink="http://www.w3.org/1999/xlink" x="0px" y="0px"
	 viewBox="0 0 225.3 166.8" style="enable-background:new 0 0 225.3 166.8;" xml:space="preserve">
<style type="text/css">
	.st0{fill:url(#SVGID_1_);}
	.st1{opacity:0.5;fill:url(#SVGID_2_);enable-background:new    ;}
	.st2{opacity:0.3;fill:url(#SVGID_3_);enable-background:new    ;}
	.st3{opacity:0.2;fill:url(#SVGID_4_);enable-background:new    ;}
	.st4{fill:url(#SVGID_5_);}
	.st5{fill:url(#SVGID_6_);}
	.st6{opacity:0.4;fill:url(#SVGID_7_);enable-background:new    ;}
	.st7{opacity:0.2;fill:url(#SVGID_8_);enable-background:new    ;}
</style>
<g>
	<g>
		
			<radialGradient id="SVGID_1_" cx="1453.2584" cy="196.5701" r="136.9274" gradientTransform="matrix(-1 0 0 -1 1537.9115 226.595)" gradientUnits="userSpaceOnUse">
			<stop  offset="0" style="stop-color:#BAD0D6"/>
			<stop  offset="0.198" style="stop-color:#9BBAC2"/>
			<stop  offset="1" style="stop-color:#5D8BB8"/>
		</radialGradient>
		<path class="st0" d="M105.3,14.9c26,0,47.8,18,53.6,42.2c4.7-2.3,10-3.6,15.6-3.6c19.8,0,35.9,16.1,35.9,35.9
			s-16.1,35.9-35.9,35.9h-69.2c-30.5,0-55.2-24.7-55.2-55.2C50.2,39.6,74.9,14.9,105.3,14.9z"/>
		
			<radialGradient id="SVGID_2_" cx="563.0862" cy="2535.8916" r="16.0665" gradientTransform="matrix(0.8392 1.1536 -1.6186 1.3126 3716.8293 -3929.135)" gradientUnits="userSpaceOnUse">
			<stop  offset="0" style="stop-color:#FFFFFF"/>
			<stop  offset="1" style="stop-color:#FFFFFF;stop-opacity:0"/>
		</radialGradient>
		<path class="st1" d="M98.3,67.6c14.3-11.7,20-29.4,12.5-39.6c-7.5-10.2-25.1-9.1-39.5,2.5c-14.3,11.7-20,29.4-12.5,39.6
			C66.2,80.4,83.9,79.2,98.3,67.6z"/>
		
			<radialGradient id="SVGID_3_" cx="610.5178" cy="2512.0898" r="8.8326" gradientTransform="matrix(0.8392 1.1536 -1.6186 1.3126 3716.8293 -3929.135)" gradientUnits="userSpaceOnUse">
			<stop  offset="0" style="stop-color:#FFFFFF"/>
			<stop  offset="1" style="stop-color:#FFFFFF;stop-opacity:0"/>
		</radialGradient>
		<path class="st2" d="M170.5,82.7c7.9-6.4,11-16.2,6.9-21.8c-4.1-5.6-13.8-5-21.7,1.4c-7.9,6.4-11,16.2-6.9,21.8
			C152.9,89.7,162.6,89.1,170.5,82.7z"/>
		
			<radialGradient id="SVGID_4_" cx="1515.2499" cy="101.8172" r="9.2273" gradientTransform="matrix(-0.7056 -0.4583 1.3993 -1.8312 1119.1111 985.8298)" gradientUnits="userSpaceOnUse">
			<stop  offset="0" style="stop-color:#FFFFFF"/>
			<stop  offset="1" style="stop-color:#FFFFFF;stop-opacity:0"/>
		</radialGradient>
		<path class="st3" d="M188,96.7c8.7-8.8,17.6-12.2,20-7.7c2.4,4.5-2.7,15.3-11.4,24.1c-8.7,8.8-17.7,12.2-20,7.7
			C174.3,116.2,179.4,105.4,188,96.7z"/>
	</g>
	<g>
		
			<radialGradient id="SVGID_5_" cx="1493.1317" cy="166.7532" r="136.9255" gradientTransform="matrix(-1 0 0 -1 1537.9115 226.595)" gradientUnits="userSpaceOnUse">
			<stop  offset="0" style="stop-color:#FFFFFF"/>
			<stop  offset="0.198" style="stop-color:#D9F7FF"/>
			<stop  offset="1" style="stop-color:#89C0F5"/>
		</radialGradient>
		<path class="st4" d="M65.5,44.7c26,0,47.8,18,53.6,42.2c4.7-2.3,10-3.6,15.6-3.6c19.8,0,35.9,16.1,35.9,35.9
			c0,19.8-16.1,35.9-35.9,35.9H65.5c-30.5,0-55.2-24.7-55.2-55.2S35,44.7,65.5,44.7z"/>
		
			<radialGradient id="SVGID_6_" cx="561.7109" cy="2559.811" r="16.0665" gradientTransform="matrix(0.8392 1.1536 -1.6186 1.3126 3716.8293 -3929.135)" gradientUnits="userSpaceOnUse">
			<stop  offset="0" style="stop-color:#FFFFFF"/>
			<stop  offset="1" style="stop-color:#FFFFFF;stop-opacity:0"/>
		</radialGradient>
		<path class="st5" d="M58.4,97.4c14.4-11.7,20-29.4,12.5-39.6c-7.5-10.2-25.1-9.1-39.5,2.5C17.1,72,11.5,89.7,18.9,99.9
			C26.4,110.2,44,109,58.4,97.4z"/>
		
			<radialGradient id="SVGID_7_" cx="609.1452" cy="2536.0107" r="8.8305" gradientTransform="matrix(0.8392 1.1536 -1.6186 1.3126 3716.8293 -3929.135)" gradientUnits="userSpaceOnUse">
			<stop  offset="0" style="stop-color:#FFFFFF"/>
			<stop  offset="1" style="stop-color:#FFFFFF;stop-opacity:0"/>
		</radialGradient>
		<path class="st6" d="M130.7,112.5c7.9-6.4,11-16.2,6.9-21.8c-4.1-5.6-13.8-5-21.7,1.4c-7.9,6.4-11,16.2-6.9,21.8
			C113,119.6,122.8,118.9,130.7,112.5z"/>
		
			<radialGradient id="SVGID_8_" cx="1555.5094" cy="55.5094" r="9.2258" gradientTransform="matrix(-0.7056 -0.4583 1.3993 -1.8312 1172.4485 949.2931)" gradientUnits="userSpaceOnUse">
			<stop  offset="0" style="stop-color:#FFFFFF"/>
			<stop  offset="1" style="stop-color:#FFFFFF;stop-opacity:0"/>
		</radialGradient>
		<path class="st7" d="M148.2,126.5c8.7-8.8,17.6-12.2,20-7.7c2.4,4.5-2.7,15.3-11.4,24.1c-8.7,8.8-17.7,12.2-20,7.7
			C134.4,146,139.5,135.3,148.2,126.5z"/>
	</g>
</g>
</svg>
