<?xml version="1.0" encoding="utf-8"?>
<!-- Generator: Adobe Illustrator 25.0.1, SVG Export Plug-In . SVG Version: 6.00 Build 0)  -->
<svg version="1.1" id="Layer_1" xmlns="http://www.w3.org/2000/svg" xmlns:xlink="http://www.w3.org/1999/xlink" x="0px" y="0px"
	 viewBox="0 0 226.6 171.5" style="enable-background:new 0 0 226.6 171.5;" xml:space="preserve">
<style type="text/css">
	.st0{fill:url(#SVGID_1_);}
</style>
<radialGradient id="SVGID_1_" cx="148.2776" cy="61.9625" r="104.898" gradientUnits="userSpaceOnUse">
	<stop  offset="0" style="stop-color:#28CBE9"/>
	<stop  offset="1" style="stop-color:#0A4FBB"/>
</radialGradient>
<path class="st0" d="M164.1,109.4l-11.3-6.5l3.5-2c2.8-1.6,3.7-5.1,2.1-7.9c-1.6-2.8-5.1-3.7-7.9-2.1l-9.3,5.3l-8.5-4.9
	c0.4-1.5,0.6-3.1,0.6-4.8c0-1.6-0.2-3.2-0.6-4.8l8.5-4.9l9.3,5.3c0.9,0.5,1.9,0.8,2.9,0.8c2,0,3.9-1,5-2.9c1.6-2.8,0.6-6.3-2.1-7.9
	l-3.5-2l11.3-6.5c2.8-1.6,3.7-5.1,2.1-7.9c-1.6-2.8-5.1-3.7-7.9-2.1l-11.3,6.5l0-4c0-3.2-2.6-5.8-5.8-5.8l0,0
	c-3.2,0-5.8,2.6-5.8,5.8l0,10.7l-8.6,4.9c-2.3-2.2-5.1-3.9-8.2-4.8v-9.9l9.3-5.3c2.8-1.6,3.7-5.1,2.1-7.9c-1.6-2.8-5.1-3.7-7.9-2.1
	l-3.5,2v-13c0-3.2-2.6-5.8-5.8-5.8c-3.2,0-5.8,2.6-5.8,5.8v13l-3.5-2c-2.8-1.6-6.3-0.6-7.9,2.1c-1.6,2.8-0.6,6.3,2.1,7.9l9.3,5.3V67
	c-3.1,0.9-5.9,2.6-8.3,4.8l-8.6-4.9V56.1c0-3.2-2.6-5.8-5.8-5.8c-3.2,0-5.8,2.6-5.8,5.8v4l-11.2-6.5c-2.8-1.6-6.3-0.7-7.9,2.1
	c-1.6,2.8-0.7,6.3,2.1,7.9l11.2,6.5l-3.5,2c-2.8,1.6-3.7,5.1-2.1,7.9c1.1,1.9,3,2.9,5,2.9c1,0,2-0.2,2.9-0.8l9.3-5.3l8.5,4.9
	c-0.4,1.5-0.6,3.1-0.6,4.8c0,1.6,0.2,3.2,0.6,4.8l-8.5,4.9l-9.3-5.3c-2.8-1.6-6.3-0.6-7.9,2.1c-1.6,2.8-0.7,6.3,2.1,7.9l3.5,2
	l-11.3,6.5c-2.8,1.6-3.7,5.1-2.1,7.9c1.1,1.9,3,2.9,5,2.9c1,0,2-0.2,2.9-0.8l11.2-6.5v4c0,3.2,2.6,5.8,5.8,5.8
	c3.2,0,5.8-2.6,5.8-5.8l0-10.7l8.6-4.9c2.3,2.2,5.1,3.9,8.2,4.8v9.9l-9.3,5.3c-2.8,1.6-3.7,5.1-2.1,7.9c1.6,2.8,5.1,3.7,7.9,2.1
	l3.5-2v13c0,3.2,2.6,5.8,5.8,5.8c3.2,0,5.8-2.6,5.8-5.8v-13l3.5,2c0.9,0.5,1.9,0.8,2.9,0.8c2,0,3.9-1,5-2.9c1.6-2.8,0.7-6.3-2.1-7.9
	l-9.3-5.3V106c3.1-0.9,5.9-2.6,8.3-4.8l8.6,4.9v10.7c0,3.2,2.6,5.8,5.8,5.8c3.2,0,5.8-2.6,5.8-5.8v-4l11.3,6.5
	c0.9,0.5,1.9,0.8,2.9,0.8c2,0,3.9-1,5-2.9C167.9,114.5,166.9,111,164.1,109.4z M113,95.3c-4.9,0-8.8-4-8.8-8.8c0-4.9,4-8.8,8.8-8.8
	c4.9,0,8.8,4,8.8,8.8C121.8,91.4,117.9,95.3,113,95.3z"/>
</svg>
