<?xml version="1.0" encoding="utf-8"?>
<!-- Generator: Adobe Illustrator 25.0.1, SVG Export Plug-In . SVG Version: 6.00 Build 0)  -->
<svg version="1.1" id="Layer_1" xmlns="http://www.w3.org/2000/svg" xmlns:xlink="http://www.w3.org/1999/xlink" x="0px" y="0px"
	 viewBox="0 0 233.3 182" style="enable-background:new 0 0 233.3 182;" xml:space="preserve">
<style type="text/css">
	.st0{fill:url(#SVGID_1_);}
	.st1{fill:url(#SVGID_2_);}
	.st2{opacity:0.4;fill:url(#SVGID_3_);enable-background:new    ;}
	.st3{fill:url(#SVGID_4_);}
	.st4{fill:url(#SVGID_5_);}
	.st5{fill:url(#SVGID_6_);}
	.st6{fill:url(#SVGID_7_);}
	.st7{fill:url(#SVGID_8_);}
	.st8{fill:url(#SVGID_9_);}
	.st9{fill:url(#SVGID_10_);}
	.st10{fill:url(#SVGID_11_);}
</style>
<g>
	
		<radialGradient id="SVGID_1_" cx="-1946.9209" cy="-440.7714" r="40.3553" gradientTransform="matrix(-2.3692 0 0 -2.3692 -4489.0562 -973.3093)" gradientUnits="userSpaceOnUse">
		<stop  offset="0" style="stop-color:#FFF8C7"/>
		<stop  offset="0.1559" style="stop-color:#FFE436"/>
		<stop  offset="1" style="stop-color:#FE761C"/>
	</radialGradient>
	<path class="st0" d="M61.7,102.5c0,27.8,22.6,50.5,50.3,50.5s50.3-22.6,50.3-50.5S139.9,52.2,112,52.2S61.7,74.8,61.7,102.5z"/>
	<g>
		
			<radialGradient id="SVGID_2_" cx="-72.9229" cy="2450.457" r="6.0723" gradientTransform="matrix(-1.9882 2.7331 3.8347 3.1098 -9409.9434 -7340.2529)" gradientUnits="userSpaceOnUse">
			<stop  offset="0" style="stop-color:#FFFFFF"/>
			<stop  offset="1" style="stop-color:#FFFFFF;stop-opacity:0"/>
		</radialGradient>
		<path class="st1" d="M119.7,97.4c-12.8-10.5-17.8-26.2-11.2-35.4c6.6-9.1,22.5-8.1,35.3,2.2c12.8,10.5,17.8,26.2,11.2,35.3
			C148.3,108.7,132.5,107.7,119.7,97.4z"/>
		
			<radialGradient id="SVGID_3_" cx="-4726.9971" cy="-2701.2192" r="5.8507" gradientTransform="matrix(-2.7759 -2.6078 -0.526 1.7254 -14458.6582 -7537.1343)" gradientUnits="userSpaceOnUse">
			<stop  offset="0" style="stop-color:#FFFFFF"/>
			<stop  offset="1" style="stop-color:#FFFFFF;stop-opacity:0"/>
		</radialGradient>
		<path class="st2" d="M67.5,113.6c1.7-5.5,10.3-3.3,19.3,5.2c9,8.4,14.8,19.7,13.2,25.4c-1.6,5.7-10.3,3.3-19.3-5.2
			C71.7,130.6,65.8,119.2,67.5,113.6z"/>
	</g>
	
		<radialGradient id="SVGID_4_" cx="-600.3204" cy="-421.6224" r="7.0218" gradientTransform="matrix(2.3692 0 0 -2.3692 1535.4115 -973.3093)" gradientUnits="userSpaceOnUse">
		<stop  offset="0" style="stop-color:#FFF8C7"/>
		<stop  offset="0.1559" style="stop-color:#FFE436"/>
		<stop  offset="1" style="stop-color:#FE761C"/>
	</radialGradient>
	<path class="st3" d="M118.2,37.3c0,3.3-2.8,6.1-6.1,6.1l0,0c-3.3,0-6.1-2.8-6.1-6.1v-8.7c0-3.3,2.8-6.1,6.1-6.1l0,0
		c3.4,0,6.1,2.7,6.1,6.1V37.3z"/>
	
		<radialGradient id="SVGID_5_" cx="-785.5657" cy="-425.6352" r="7.022" gradientTransform="matrix(1.6752 -1.6752 -1.6752 -1.6752 661.3234 -1981.6488)" gradientUnits="userSpaceOnUse">
		<stop  offset="0" style="stop-color:#FFF8C7"/>
		<stop  offset="0.1559" style="stop-color:#FFE436"/>
		<stop  offset="1" style="stop-color:#FE761C"/>
	</radialGradient>
	<path class="st4" d="M70.2,52c2.3,2.3,2.3,6.2,0,8.6l0,0c-2.3,2.5-6.3,2.5-8.6,0l-6.2-6.2c-2.3-2.3-2.3-6.2,0-8.6l0,0
		c2.3-2.3,6.2-2.3,8.6,0L70.2,52z"/>
	
		<radialGradient id="SVGID_6_" cx="-919.4684" cy="-297.2374" r="7.0217" gradientTransform="matrix(0 -2.3692 -2.3692 0 -669.119 -2076.967)" gradientUnits="userSpaceOnUse">
		<stop  offset="0" style="stop-color:#FFF8C7"/>
		<stop  offset="0.1559" style="stop-color:#FFE436"/>
		<stop  offset="1" style="stop-color:#FE761C"/>
	</radialGradient>
	<path class="st5" d="M46.7,96.4c3.3,0,6.1,2.8,6.1,6.1l0,0c0,3.4-2.7,6.1-6.1,6.1h-8.6c-3.4,0-6.1-2.7-6.1-6.1l0,0
		c0-3.3,2.7-6.1,6.1-6.1H46.7z"/>
	
		<radialGradient id="SVGID_7_" cx="-923.3041" cy="-111.9906" r="7.0221" gradientTransform="matrix(-1.6752 -1.6752 -1.6752 1.6752 -1677.476 -1202.8759)" gradientUnits="userSpaceOnUse">
		<stop  offset="0" style="stop-color:#FFF8C7"/>
		<stop  offset="0.1559" style="stop-color:#FFE436"/>
		<stop  offset="1" style="stop-color:#FE761C"/>
	</radialGradient>
	<path class="st6" d="M61.6,144.3c2.3-2.3,6.3-2.3,8.6,0l0,0c2.3,2.3,2.3,6.2,0,8.6l-6.2,6.2c-2.3,2.3-6.2,2.3-8.6,0l0,0
		c-2.3-2.3-2.3-6.2,0-8.6L61.6,144.3z"/>
	
		<radialGradient id="SVGID_8_" cx="-795.0893" cy="21.9102" r="7.022" gradientTransform="matrix(-2.3692 0 0 2.3692 -1772.8138 127.5635)" gradientUnits="userSpaceOnUse">
		<stop  offset="0" style="stop-color:#FFF8C7"/>
		<stop  offset="0.1559" style="stop-color:#FFE436"/>
		<stop  offset="1" style="stop-color:#FE761C"/>
	</radialGradient>
	<path class="st7" d="M105.9,167.8c0-3.3,2.8-6.1,6.1-6.1l0,0c3.4,0,6.1,2.7,6.1,6.1v8.6c0,3.3-2.8,6.1-6.1,6.1l0,0
		c-3.3,0-6.1-2.7-6.1-6.1V167.8z"/>
	
		<radialGradient id="SVGID_9_" cx="-609.6616" cy="25.7472" r="7.0222" gradientTransform="matrix(-1.6752 1.6752 1.6752 1.6752 -898.7189 1135.9103)" gradientUnits="userSpaceOnUse">
		<stop  offset="0" style="stop-color:#FFF8C7"/>
		<stop  offset="0.1559" style="stop-color:#FFE436"/>
		<stop  offset="1" style="stop-color:#FE761C"/>
	</radialGradient>
	<path class="st8" d="M153.8,153c-2.3-2.3-2.3-6.2,0-8.6l0,0c2.3-2.3,6.2-2.3,8.6,0l6.2,6.2c2.3,2.3,2.3,6.2,0,8.6l0,0
		c-2.3,2.3-6.2,2.3-8.6,0L153.8,153z"/>
	
		<radialGradient id="SVGID_10_" cx="-475.9388" cy="-102.4743" r="7.0217" gradientTransform="matrix(0 2.3692 2.3692 0 431.7325 1231.2264)" gradientUnits="userSpaceOnUse">
		<stop  offset="0" style="stop-color:#FFF8C7"/>
		<stop  offset="0.1559" style="stop-color:#FFE436"/>
		<stop  offset="1" style="stop-color:#FE761C"/>
	</radialGradient>
	<path class="st9" d="M177.3,108.7c-3.3,0-6.1-2.8-6.1-6.1l0,0c0-3.3,2.7-6.1,6.1-6.1h8.6c3.3,0,6.1,2.8,6.1,6.1l0,0
		c0,3.4-2.7,6.1-6.1,6.1H177.3L177.3,108.7z"/>
	
		<radialGradient id="SVGID_11_" cx="-471.9225" cy="-287.901" r="7.022" gradientTransform="matrix(1.6752 1.6752 1.6752 -1.6752 1440.09 357.126)" gradientUnits="userSpaceOnUse">
		<stop  offset="0" style="stop-color:#FFF8C7"/>
		<stop  offset="0.1559" style="stop-color:#FFE436"/>
		<stop  offset="1" style="stop-color:#FE761C"/>
	</radialGradient>
	<path class="st10" d="M162.5,60.7c-2.3,2.5-6.2,2.5-8.6,0l0,0c-2.3-2.3-2.3-6.2,0-8.6l6.2-6.2c2.3-2.3,6.3-2.3,8.6,0l0,0
		c2.3,2.3,2.3,6.2,0,8.6L162.5,60.7z"/>
</g>
</svg>
