<?xml version="1.0" encoding="utf-8"?>
<!-- Generator: Adobe Illustrator 25.0.1, SVG Export Plug-In . SVG Version: 6.00 Build 0)  -->
<svg version="1.1" id="Layer_1" xmlns="http://www.w3.org/2000/svg" xmlns:xlink="http://www.w3.org/1999/xlink" x="0px" y="0px"
	 viewBox="0 0 226.6 171.5" style="enable-background:new 0 0 226.6 171.5;" xml:space="preserve">
<style type="text/css">
	.st0{fill:url(#SVGID_9_);}
	.st1{opacity:0.5;fill:url(#SVGID_10_);}
	.st2{opacity:0.3;fill:url(#SVGID_11_);}
	.st3{opacity:0.2;fill:url(#SVGID_12_);}
	.st4{fill:url(#SVGID_13_);}
	.st5{fill:url(#SVGID_14_);}
	.st6{fill:url(#SVGID_15_);}
	.st7{fill:url(#SVGID_16_);}
	.st8{fill:url(#SVGID_17_);}
	.st9{fill:url(#SVGID_18_);}
	.st10{fill:url(#SVGID_19_);}
	.st11{fill:url(#SVGID_20_);}
</style>
<g>
	<g>
		<g>
			<g>
				<g>
					<defs>
						<path id="SVGID_1_" d="M71.7,113l0.1-0.3c1.3-4,5.5-6.2,9.5-5c4,1.3,6.2,5.5,5,9.5c-0.2,0.5-0.4,1.1-0.7,1.5l-0.2,0.3
							L71.7,113z"/>
					</defs>
					<clipPath id="SVGID_2_">
						<use xlink:href="#SVGID_1_"  style="overflow:visible;"/>
					</clipPath>
					<g style="clip-path:url(#SVGID_2_);">
						
							<image style="overflow:visible;" width="29.4" height="35.9" xlink:href="E3003B13.png"  transform="matrix(1 0 0 1 71.5183 83.75)"/>
					</g>
				</g>
				
					<image style="overflow:visible;" width="34.4" height="50.1" xlink:href="E3003B11.png"  transform="matrix(1 0 0 1 63.9209 112.7225)"/>
				<g>
					<defs>
						<path id="SVGID_3_" d="M81.5,162.6l-0.2,0.3c-0.5,0.7-1.5,0.9-2.2,0.4c-0.6-0.5-0.8-1.3-0.5-2l0.1-0.3L81.5,162.6z"/>
					</defs>
					<clipPath id="SVGID_4_">
						<use xlink:href="#SVGID_3_"  style="overflow:visible;"/>
					</clipPath>
					<g style="clip-path:url(#SVGID_4_);">
						
							<image style="overflow:visible;" width="8.9" height="11.8" xlink:href="E3003B17.png"  transform="matrix(1 0 0 1 73.014 160.2889)"/>
					</g>
				</g>
			</g>
		</g>
		<g>
			<g>
				<g>
					<defs>
						<path id="SVGID_5_" d="M125.1,113l0.1-0.3c1.3-4,5.5-6.2,9.5-5c4,1.3,6.2,5.5,5,9.5c-0.2,0.5-0.4,1.1-0.7,1.5l-0.2,0.3
							L125.1,113z"/>
					</defs>
					<clipPath id="SVGID_6_">
						<use xlink:href="#SVGID_5_"  style="overflow:visible;"/>
					</clipPath>
					<g style="clip-path:url(#SVGID_6_);">
						
							<image style="overflow:visible;" width="29.4" height="35.9" xlink:href="E3003B10.png"  transform="matrix(1 0 0 1 124.8696 83.75)"/>
					</g>
				</g>
				
					<image style="overflow:visible;" width="34.4" height="50.1" xlink:href="E3003B1E.png"  transform="matrix(1 0 0 1 117.2722 112.7225)"/>
				<g>
					<defs>
						<path id="SVGID_7_" d="M134.9,162.6l-0.2,0.3c-0.5,0.7-1.5,0.9-2.2,0.4c-0.6-0.5-0.8-1.3-0.5-2l0.1-0.3L134.9,162.6z"/>
					</defs>
					<clipPath id="SVGID_8_">
						<use xlink:href="#SVGID_7_"  style="overflow:visible;"/>
					</clipPath>
					<g style="clip-path:url(#SVGID_8_);">
						
							<image style="overflow:visible;" width="8.9" height="11.8" xlink:href="E3003B1F.png"  transform="matrix(1 0 0 1 126.3618 160.2889)"/>
					</g>
				</g>
			</g>
		</g>
		<g>
			
				<radialGradient id="SVGID_9_" cx="1449.165" cy="30.35" r="138.8232" gradientTransform="matrix(-1 0 0 1 1511.1875 0)" gradientUnits="userSpaceOnUse">
				<stop  offset="0" style="stop-color:#BAD0D6"/>
				<stop  offset="0.198" style="stop-color:#9BBAC2"/>
				<stop  offset="1" style="stop-color:#5D8BB8"/>
			</radialGradient>
			<path class="st0" d="M83,15c26.3,0,48.4,18.2,54.3,42.7c4.8-2.3,10.1-3.7,15.8-3.7c20.1,0,36.4,16.3,36.4,36.4
				c0,20.1-16.3,36.4-36.4,36.4H83c-30.9,0-55.9-25-55.9-55.9C27.1,40,52.1,15,83,15z"/>
			
				<radialGradient id="SVGID_10_" cx="560.8301" cy="-2348.0759" r="16.2899" gradientTransform="matrix(0.8392 1.1536 1.6186 -1.3126 3392.0977 -3679.4204)" gradientUnits="userSpaceOnUse">
				<stop  offset="0" style="stop-color:#FFFFFF"/>
				<stop  offset="1" style="stop-color:#FFFFFF;stop-opacity:0"/>
			</radialGradient>
			<path class="st1" d="M75.8,68.4c14.5-11.8,20.2-29.8,12.7-40.2C81,17.9,63,19,48.5,30.8C33.9,42.7,28.2,60.7,35.8,71
				C43.3,81.4,61.3,80.2,75.8,68.4z"/>
			
				<radialGradient id="SVGID_11_" cx="608.9209" cy="-2323.9456" r="8.9531" gradientTransform="matrix(0.8392 1.1536 1.6186 -1.3126 3392.0977 -3679.4204)" gradientUnits="userSpaceOnUse">
				<stop  offset="0" style="stop-color:#FFFFFF"/>
				<stop  offset="1" style="stop-color:#FFFFFF;stop-opacity:0"/>
			</radialGradient>
			<path class="st2" d="M149.1,83.8c8-6.5,11.1-16.4,7-22.1c-4.1-5.7-14-5.1-22,1.4c-8,6.5-11.1,16.4-7,22.1
				C131.2,90.9,141.1,90.3,149.1,83.8z"/>
			
				<radialGradient id="SVGID_12_" cx="1505.376" cy="135.5665" r="9.3613" gradientTransform="matrix(-0.7056 -0.4583 -1.3993 1.8312 1423.1511 547.9679)" gradientUnits="userSpaceOnUse">
				<stop  offset="0" style="stop-color:#FFFFFF"/>
				<stop  offset="1" style="stop-color:#FFFFFF;stop-opacity:0"/>
			</radialGradient>
			<path class="st3" d="M166.8,97.9c8.8-8.9,17.9-12.4,20.3-7.8c2.4,4.6-2.8,15.5-11.6,24.5c-8.8,8.9-17.9,12.4-20.3,7.8
				C152.9,117.8,158,106.8,166.8,97.9z"/>
		</g>
	</g>
	<g>
		<g>
			
				<radialGradient id="SVGID_13_" cx="-210.0094" cy="62.6209" r="18.3666" gradientTransform="matrix(0.866 0.5 -0.5 0.866 267.4508 180.8255)" gradientUnits="userSpaceOnUse">
				<stop  offset="0" style="stop-color:#D4F6FF"/>
				<stop  offset="0.198" style="stop-color:#D9F7FF"/>
				<stop  offset="1" style="stop-color:#89C0F5"/>
			</radialGradient>
			<path class="st4" d="M64.5,131.8c-2.1,3.7-6.8,4.9-10.4,2.8c-3.7-2.1-4.9-6.8-2.8-10.4c2.1-3.7,15.1-11,15.1-11
				S66.6,128.1,64.5,131.8z"/>
			
				<radialGradient id="SVGID_14_" cx="1300.6296" cy="-1706.6692" r="2.8772" gradientTransform="matrix(-1.3036 0.5794 -0.7454 -1.946 478.5913 -3945.9104)" gradientUnits="userSpaceOnUse">
				<stop  offset="0" style="stop-color:#FFFFFF"/>
				<stop  offset="1" style="stop-color:#FFFFFF;stop-opacity:0"/>
			</radialGradient>
			<path class="st5" d="M51.5,130.5c-1.2-3.1-0.5-6.3,1.6-7.3c2.1-0.9,4.7,0.8,5.9,3.9c1.2,3.1,0.5,6.3-1.6,7.3
				C55.3,135.4,52.7,133.6,51.5,130.5z"/>
		</g>
		<g>
			
				<radialGradient id="SVGID_15_" cx="-182.1977" cy="46.5614" r="18.3666" gradientTransform="matrix(0.866 0.5 -0.5 0.866 267.4508 180.8255)" gradientUnits="userSpaceOnUse">
				<stop  offset="0" style="stop-color:#D4F6FF"/>
				<stop  offset="0.198" style="stop-color:#D9F7FF"/>
				<stop  offset="1" style="stop-color:#89C0F5"/>
			</radialGradient>
			<path class="st6" d="M96.6,131.8c-2.1,3.7-6.8,4.9-10.4,2.8s-4.9-6.8-2.8-10.4c2.1-3.7,15.1-11,15.1-11S98.7,128.1,96.6,131.8z"
				/>
			
				<radialGradient id="SVGID_16_" cx="1279.5775" cy="-1712.9371" r="2.8765" gradientTransform="matrix(-1.3036 0.5794 -0.7454 -1.946 478.5913 -3945.9104)" gradientUnits="userSpaceOnUse">
				<stop  offset="0" style="stop-color:#FFFFFF"/>
				<stop  offset="1" style="stop-color:#FFFFFF;stop-opacity:0"/>
			</radialGradient>
			<path class="st7" d="M83.6,130.5c-1.2-3.1-0.5-6.3,1.6-7.3c2.1-0.9,4.7,0.8,5.9,3.9c1.2,3.1,0.5,6.3-1.6,7.3
				C87.4,135.4,84.8,133.6,83.6,130.5z"/>
		</g>
		<g>
			
				<radialGradient id="SVGID_17_" cx="-154.3827" cy="30.5024" r="18.3664" gradientTransform="matrix(0.866 0.5 -0.5 0.866 267.4508 180.8255)" gradientUnits="userSpaceOnUse">
				<stop  offset="0" style="stop-color:#D4F6FF"/>
				<stop  offset="0.198" style="stop-color:#D9F7FF"/>
				<stop  offset="1" style="stop-color:#89C0F5"/>
			</radialGradient>
			<path class="st8" d="M128.7,131.8c-2.1,3.7-6.8,4.9-10.4,2.8c-3.7-2.1-4.9-6.8-2.8-10.4c2.1-3.7,15.1-11,15.1-11
				S130.8,128.1,128.7,131.8z"/>
			
				<radialGradient id="SVGID_18_" cx="1258.5244" cy="-1719.2056" r="2.8764" gradientTransform="matrix(-1.3036 0.5794 -0.7454 -1.946 478.5913 -3945.9104)" gradientUnits="userSpaceOnUse">
				<stop  offset="0" style="stop-color:#FFFFFF"/>
				<stop  offset="1" style="stop-color:#FFFFFF;stop-opacity:0"/>
			</radialGradient>
			<path class="st9" d="M115.7,130.5c-1.2-3.1-0.5-6.3,1.6-7.3c2.1-0.9,4.7,0.8,5.9,3.9c1.2,3.1,0.5,6.3-1.6,7.3
				C119.5,135.4,116.9,133.6,115.7,130.5z"/>
		</g>
		<g>
			
				<radialGradient id="SVGID_19_" cx="-126.5694" cy="14.4438" r="18.3664" gradientTransform="matrix(0.866 0.5 -0.5 0.866 267.4508 180.8255)" gradientUnits="userSpaceOnUse">
				<stop  offset="0" style="stop-color:#D4F6FF"/>
				<stop  offset="0.198" style="stop-color:#D9F7FF"/>
				<stop  offset="1" style="stop-color:#89C0F5"/>
			</radialGradient>
			<path class="st10" d="M160.8,131.8c-2.1,3.7-6.8,4.9-10.4,2.8c-3.7-2.1-4.9-6.8-2.8-10.4c2.1-3.7,15.1-11,15.1-11
				S162.9,128.1,160.8,131.8z"/>
			
				<radialGradient id="SVGID_20_" cx="1237.4723" cy="-1725.4735" r="2.8764" gradientTransform="matrix(-1.3036 0.5794 -0.7454 -1.946 478.5913 -3945.9104)" gradientUnits="userSpaceOnUse">
				<stop  offset="0" style="stop-color:#FFFFFF"/>
				<stop  offset="1" style="stop-color:#FFFFFF;stop-opacity:0"/>
			</radialGradient>
			<path class="st11" d="M147.8,130.5c-1.2-3.1-0.5-6.3,1.6-7.3c2.1-0.9,4.7,0.8,5.9,3.9c1.2,3.1,0.5,6.3-1.6,7.3
				C151.7,135.4,149,133.6,147.8,130.5z"/>
		</g>
	</g>
</g>
</svg>
