<?xml version="1.0" encoding="utf-8"?>
<!-- Generator: Adobe Illustrator 25.0.1, SVG Export Plug-In . SVG Version: 6.00 Build 0)  -->
<svg version="1.1" id="Layer_1" xmlns="http://www.w3.org/2000/svg" xmlns:xlink="http://www.w3.org/1999/xlink" x="0px" y="0px"
	 viewBox="0 0 235.6 196.7" style="enable-background:new 0 0 235.6 196.7;" xml:space="preserve">
<style type="text/css">
	.st0{fill:url(#SVGID_1_);}
	.st1{fill:url(#SVGID_2_);}
	.st2{opacity:0.4;fill:url(#SVGID_3_);}
	.st3{opacity:0.2;fill:url(#SVGID_4_);}
</style>
<g>
	<g>
		
			<radialGradient id="SVGID_1_" cx="1453.6146" cy="60.8287" r="135.5733" gradientTransform="matrix(-1 0 0 1 1521.1875 0)" gradientUnits="userSpaceOnUse">
			<stop  offset="0" style="stop-color:#FFFFFF"/>
			<stop  offset="0.198" style="stop-color:#D9F7FF"/>
			<stop  offset="1" style="stop-color:#89C0F5"/>
		</radialGradient>
		<path class="st0" d="M88,45.8c25.7,0,47.3,17.8,53.1,41.7c4.7-2.3,9.9-3.6,15.4-3.6c19.6,0,35.5,15.9,35.5,35.5
			c0,19.6-15.9,35.5-35.5,35.5H88c-30.2,0-54.6-24.4-54.6-54.6S57.9,45.8,88,45.8z"/>
		
			<radialGradient id="SVGID_2_" cx="575.9005" cy="-2340.9585" r="15.9089" gradientTransform="matrix(0.8392 1.1536 1.6186 -1.3126 3373.4785 -3657.437)" gradientUnits="userSpaceOnUse">
			<stop  offset="0" style="stop-color:#FFFFFF"/>
			<stop  offset="1" style="stop-color:#FFFFFF;stop-opacity:0"/>
		</radialGradient>
		<path class="st1" d="M81.1,98c14.2-11.5,19.8-29.1,12.4-39.2c-7.4-10.1-24.9-9-39.1,2.5C40.1,72.8,34.6,90.4,42,100.5
			C49.3,110.7,66.8,109.5,81.1,98z"/>
		
			<radialGradient id="SVGID_3_" cx="622.8664" cy="-2317.3916" r="8.7432" gradientTransform="matrix(0.8392 1.1536 1.6186 -1.3126 3373.4785 -3657.437)" gradientUnits="userSpaceOnUse">
			<stop  offset="0" style="stop-color:#FFFFFF"/>
			<stop  offset="1" style="stop-color:#FFFFFF;stop-opacity:0"/>
		</radialGradient>
		<path class="st2" d="M152.6,113c7.8-6.3,10.9-16,6.8-21.6c-4.1-5.6-13.7-4.9-21.5,1.4c-7.8,6.3-10.9,16-6.8,21.6
			C135.2,120,144.8,119.3,152.6,113z"/>
		
			<radialGradient id="SVGID_4_" cx="1509.491" cy="169.2191" r="9.1421" gradientTransform="matrix(-0.7056 -0.4583 -1.3993 1.8312 1476.1411 516.9308)" gradientUnits="userSpaceOnUse">
			<stop  offset="0" style="stop-color:#FFFFFF"/>
			<stop  offset="1" style="stop-color:#FFFFFF;stop-opacity:0"/>
		</radialGradient>
		<path class="st3" d="M169.9,126.8c8.6-8.7,17.5-12.1,19.8-7.6c2.4,4.5-2.7,15.2-11.3,23.9c-8.6,8.7-17.5,12.1-19.8,7.6
			C156.3,146.2,161.3,135.5,169.9,126.8z"/>
	</g>
	<g>
		<g>
			<g>
				<defs>
					<path id="SVGID_5_" d="M153.3,80.8l-0.2,0l-0.5,0c-2.5-0.1-4.4-2.3-4.2-4.7c0.1-2.5,2.2-4.3,4.7-4.2l0.4,0L153.3,80.8z"/>
				</defs>
				<clipPath id="SVGID_6_">
					<use xlink:href="#SVGID_5_"  style="overflow:visible;"/>
				</clipPath>
				<g style="clip-path:url(#SVGID_6_);">
					
						<image style="overflow:visible;" width="19.2" height="9.9" xlink:href="64A558BB.png"  transform="matrix(1 0 0 1 135.1007 70.9396)"/>
				</g>
			</g>
			
				<image style="overflow:visible;" width="70" height="44.8" xlink:href="64A558B9.png"  transform="matrix(1 0 0 1 105.466 71.7644)"/>
			<g>
				<defs>
					<path id="SVGID_7_" d="M105.8,116.5h-0.3c-2.5,0-4.5-2-4.5-4.5c0-2.5,2-4.5,4.5-4.5h0.3V116.5z"/>
				</defs>
				<clipPath id="SVGID_8_">
					<use xlink:href="#SVGID_7_"  style="overflow:visible;"/>
				</clipPath>
				<g style="clip-path:url(#SVGID_8_);">
					
						<image style="overflow:visible;" width="19" height="9" xlink:href="64A558BF.png"  transform="matrix(1 0 0 1 87.466 107.5222)"/>
				</g>
			</g>
		</g>
	</g>
	<g>
		<g>
			<g>
				<defs>
					<path id="SVGID_9_" d="M170.6,168.6l-0.4,0c-2.5,0.1-4.6-1.8-4.7-4.3c-0.1-2.5,1.8-4.5,4.2-4.7l0.5,0l0.2,0L170.6,168.6z"/>
				</defs>
				<clipPath id="SVGID_10_">
					<use xlink:href="#SVGID_9_"  style="overflow:visible;"/>
				</clipPath>
				<g style="clip-path:url(#SVGID_10_);">
					
						<image style="overflow:visible;" width="19.3" height="9.9" xlink:href="64A558B8.png"  transform="matrix(1 0 0 1 152.1968 159.5524)"/>
				</g>
			</g>
			
				<image style="overflow:visible;" width="57.9" height="38.2" xlink:href="64A558B6.png"  transform="matrix(1 0 0 1 131.3469 130.4284)"/>
			<g>
				<defs>
					<path id="SVGID_11_" d="M131.7,139.4h-0.3c-2.5,0-4.5-2-4.5-4.5s2-4.5,4.5-4.5h0.3V139.4z"/>
				</defs>
				<clipPath id="SVGID_12_">
					<use xlink:href="#SVGID_11_"  style="overflow:visible;"/>
				</clipPath>
				<g style="clip-path:url(#SVGID_12_);">
					
						<image style="overflow:visible;" width="19" height="9" xlink:href="64A558B7.png"  transform="matrix(1 0 0 1 113.3469 130.4284)"/>
				</g>
			</g>
		</g>
	</g>
</g>
</svg>
