<?xml version="1.0" encoding="utf-8"?>
<!-- Generator: Adobe Illustrator 25.0.1, SVG Export Plug-In . SVG Version: 6.00 Build 0)  -->
<svg version="1.1" id="Layer_1" xmlns="http://www.w3.org/2000/svg" xmlns:xlink="http://www.w3.org/1999/xlink" x="0px" y="0px"
	 viewBox="0 0 193 167" style="enable-background:new 0 0 193 167;" xml:space="preserve">
<style type="text/css">
	.st0{fill:url(#SVGID_1_);}
	.st1{opacity:0.5;fill:#FFFFFF;enable-background:new    ;}
	.st2{fill:url(#SVGID_2_);}
	.st3{fill:#B0B1B6;}
	.st4{fill:#5D5E61;}
	.st5{fill:url(#SVGID_3_);}
	.st6{opacity:0.4;fill:url(#SVGID_4_);enable-background:new    ;}
</style>
<g>
	
		<radialGradient id="SVGID_1_" cx="1213.667" cy="4275.8086" r="967.6971" gradientTransform="matrix(0.147 0 0 0.1471 -98.4214 -591.7329)" gradientUnits="userSpaceOnUse">
		<stop  offset="0" style="stop-color:#FCFCFC"/>
		<stop  offset="0.1559" style="stop-color:#F1EDF5"/>
		<stop  offset="1" style="stop-color:#9FA1A6"/>
	</radialGradient>
	<path class="st0" d="M172,84.2c0,41.4-33.6,75-75,75s-75-33.6-75-75s33.6-75,75-75C138.5,9.2,172,42.8,172,84.2z"/>
	<path class="st1" d="M86.2,61.2c0,38.2,28.6,69.6,65.4,74.4c1.8-1.9,3.4-3.9,5-5.9c9.1-12.4,14.6-27.8,14.6-44.5
		c0-38.2-28.6-69.8-65.7-74.4C93.6,24.1,86.2,41.8,86.2,61.2z"/>
	
		<radialGradient id="SVGID_2_" cx="3850.2095" cy="3959.1895" r="858.9374" gradientTransform="matrix(0.147 0 0 0.1471 -384.8985 -591.7329)" gradientUnits="userSpaceOnUse">
		<stop  offset="0" style="stop-color:#FCFCFC"/>
		<stop  offset="0.1559" style="stop-color:#ADAAB0"/>
		<stop  offset="1" style="stop-color:#6B6D70"/>
	</radialGradient>
	<path class="st2" d="M106.4,9.8c-12.1,13.3-19.5,31-19.5,50.4c0,38.2,28.6,69.8,65.7,74.4c12.1-13.3,19.5-31,19.5-50.4
		C172,46,143.3,14.4,106.4,9.8z"/>
	<g>
		<path class="st3" d="M44.7,97.5c7-0.6,12.1-8.6,11.2-17.8c-0.8-9.2-7.2-16.2-14.2-15.5c-7,0.6-12.1,8.6-11.2,17.8
			C31.3,91.2,37.6,98.1,44.7,97.5z"/>
		<path class="st3" d="M38.5,104.1c-4.2,2.2-5.3,8.5-2.4,14c2.9,5.5,8.7,8.2,12.9,6c4.2-2.2,5.2-8.5,2.4-14
			C48.6,104.7,42.8,102,38.5,104.1z"/>
		<path class="st3" d="M55.3,97.5c-2.5,1.3-3.1,5-1.4,8.2c1.7,3.3,5.1,4.9,7.6,3.5c2.5-1.3,3.1-5,1.4-8.2
			C61.2,97.8,57.8,96.2,55.3,97.5z"/>
		<path class="st4" d="M166.3,86.9c-1.3-9.1-8-15.8-15-14.8c-7,1-11.6,9.2-10.3,18.4c1.3,9.1,8,15.8,15,14.8
			C163,104.3,167.6,96,166.3,86.9z"/>
		<path class="st4" d="M157.1,65.1c4.1-2.4,4.9-8.8,1.6-14.1c-3.1-5.4-9.1-7.7-13.2-5.3s-4.9,8.8-1.6,14.1
			C147,65.2,152.9,67.5,157.1,65.1z"/>
		<path class="st4" d="M141.7,64.3c-1.9-3.1-5.3-4.6-7.8-3.1c-2.4,1.4-2.8,5.2-1,8.3s5.4,4.6,7.8,3.1S143.6,67.4,141.7,64.3z"/>
	</g>
	<g>
		
			<radialGradient id="SVGID_3_" cx="3170.9109" cy="-2272.9766" r="145.3566" gradientTransform="matrix(0.1759 0.1142 0.1531 -0.2654 -149.5681 -904.9054)" gradientUnits="userSpaceOnUse">
			<stop  offset="0" style="stop-color:#FFFFFF"/>
			<stop  offset="1" style="stop-color:#FFFFFF;stop-opacity:0"/>
		</radialGradient>
		<path class="st5" d="M85.8,77.2c12.3-21.3,10.8-46-3.3-55.2c-14.1-9.1-35.5,0.7-47.8,22s-10.8,46,3.3,55.2
			C52.2,108.3,73.5,98.4,85.8,77.2z"/>
		
			<radialGradient id="SVGID_4_" cx="-2016.0288" cy="-2833.6611" r="140.1564" gradientTransform="matrix(0.2149 -9.838235e-02 3.279084e-03 -0.1119 575.6888 -385.7722)" gradientUnits="userSpaceOnUse">
			<stop  offset="0" style="stop-color:#FFFFFF"/>
			<stop  offset="1" style="stop-color:#FFFFFF;stop-opacity:0"/>
		</radialGradient>
		<path class="st6" d="M163.1,115.6c0.2-8.7-13-9.5-29.7-1.9s-30.4,20.8-30.6,29.5c-0.2,8.7,13,9.5,29.7,1.9
			S162.8,124.2,163.1,115.6z"/>
	</g>
</g>
</svg>
