<?xml version="1.0" encoding="utf-8"?>
<!-- Generator: Adobe Illustrator 25.0.1, SVG Export Plug-In . SVG Version: 6.00 Build 0)  -->
<svg version="1.1" id="Layer_1" xmlns="http://www.w3.org/2000/svg" xmlns:xlink="http://www.w3.org/1999/xlink" x="0px" y="0px"
	 viewBox="0 0 220.8 188.7" style="enable-background:new 0 0 220.8 188.7;" xml:space="preserve">
<style type="text/css">
	.st0{fill:url(#SVGID_1_);}
	.st1{fill:url(#SVGID_2_);}
	.st2{opacity:0.4;fill:url(#SVGID_3_);enable-background:new    ;}
	.st3{fill:url(#SVGID_4_);}
	.st4{fill:url(#SVGID_5_);}
	.st5{fill:url(#SVGID_6_);}
	.st6{fill:url(#SVGID_7_);}
	.st7{fill:url(#SVGID_8_);}
	.st8{fill:url(#SVGID_9_);}
	.st9{fill:url(#SVGID_10_);}
	.st10{fill:url(#SVGID_11_);}
	.st11{fill:url(#SVGID_12_);}
	.st12{fill:url(#SVGID_13_);}
	.st13{fill:url(#SVGID_14_);}
	.st14{opacity:0.4;fill:url(#SVGID_15_);enable-background:new    ;}
	.st15{opacity:0.2;fill:url(#SVGID_16_);enable-background:new    ;}
</style>
<g>
	<g>
		
			<radialGradient id="SVGID_1_" cx="-72.7923" cy="220.5717" r="90.9946" gradientTransform="matrix(-1 0 0 -1 73.6592 275.7775)" gradientUnits="userSpaceOnUse">
			<stop  offset="0" style="stop-color:#FFF8C7"/>
			<stop  offset="0.1559" style="stop-color:#FFE436"/>
			<stop  offset="1" style="stop-color:#FE761C"/>
		</radialGradient>
		<path class="st0" d="M87.6,85.3c0,26.5,21.5,47.9,47.9,47.9s47.9-21.5,47.9-47.9c0-26.5-21.5-47.9-47.9-47.9
			C109,37.3,87.6,58.8,87.6,85.3z"/>
		<g>
			
				<radialGradient id="SVGID_2_" cx="1129.0107" cy="2054.1155" r="13.6574" gradientTransform="matrix(-0.8392 1.1536 1.6186 1.3126 -2223.0779 -3934.0896)" gradientUnits="userSpaceOnUse">
				<stop  offset="0" style="stop-color:#FFFFFF"/>
				<stop  offset="1" style="stop-color:#FFFFFF;stop-opacity:0"/>
			</radialGradient>
			<path class="st1" d="M142.8,80.3c-12.2-9.9-17-25-10.7-33.7c6.3-8.7,21.4-7.7,33.6,2.2c12.2,9.9,17,25,10.6,33.7
				C170,91.2,155,90.2,142.8,80.3z"/>
			
				<radialGradient id="SVGID_3_" cx="-2902.9077" cy="-2773.9685" r="13.181" gradientTransform="matrix(-1.1717 -1.1007 -0.222 0.7283 -3908.5898 -1064.5906)" gradientUnits="userSpaceOnUse">
				<stop  offset="0" style="stop-color:#FFFFFF"/>
				<stop  offset="1" style="stop-color:#FFFFFF;stop-opacity:0"/>
			</radialGradient>
			<path class="st2" d="M93.1,95.8c1.6-5.3,9.8-3.1,18.4,4.9c8.5,8,14.1,18.8,12.5,24.1c-1.6,5.3-9.8,3.1-18.4-4.9
				C97.1,111.9,91.5,101.1,93.1,95.8z"/>
		</g>
		
			<radialGradient id="SVGID_4_" cx="136.5474" cy="263.75" r="15.8324" gradientTransform="matrix(1 0 0 -1 0 275.7775)" gradientUnits="userSpaceOnUse">
			<stop  offset="0" style="stop-color:#FFF8C7"/>
			<stop  offset="0.1559" style="stop-color:#FFE436"/>
			<stop  offset="1" style="stop-color:#FE761C"/>
		</radialGradient>
		<path class="st3" d="M141.3,23.1c0,3.2-2.6,5.8-5.8,5.8l0,0c-3.2,0-5.8-2.6-5.8-5.8v-8.2c0-3.2,2.6-5.8,5.8-5.8l0,0
			c3.2,0,5.8,2.6,5.8,5.8V23.1z"/>
		
			<radialGradient id="SVGID_5_" cx="570.5968" cy="477.0863" r="15.8331" gradientTransform="matrix(0.7071 -0.7071 -0.7071 -0.7071 18.3307 773.546)" gradientUnits="userSpaceOnUse">
			<stop  offset="0" style="stop-color:#FFF8C7"/>
			<stop  offset="0.1559" style="stop-color:#FFE436"/>
			<stop  offset="1" style="stop-color:#FE761C"/>
		</radialGradient>
		<path class="st4" d="M95.7,37.2c2.3,2.3,2.3,6,0,8.2l0,0c-2.3,2.3-6,2.3-8.2,0l-5.8-5.8c-2.3-2.3-2.3-6,0-8.2l0,0
			c2.3-2.3,6-2.3,8.2,0L95.7,37.2z"/>
		
			<radialGradient id="SVGID_6_" cx="1028.2792" cy="321.2053" r="15.834" gradientTransform="matrix(0 -1 -1 0 383.4589 1112.4835)" gradientUnits="userSpaceOnUse">
			<stop  offset="0" style="stop-color:#FFF8C7"/>
			<stop  offset="0.1559" style="stop-color:#FFE436"/>
			<stop  offset="1" style="stop-color:#FE761C"/>
		</radialGradient>
		<path class="st5" d="M73.4,79.4c3.2,0,5.8,2.6,5.8,5.8l0,0c0,3.2-2.6,5.8-5.8,5.8h-8.2c-3.2,0-5.8-2.6-5.8-5.8l0,0
			c0-3.2,2.6-5.8,5.8-5.8H73.4z"/>
		
			<radialGradient id="SVGID_7_" cx="1241.7798" cy="-112.8434" r="15.8343" gradientTransform="matrix(-0.7071 -0.7071 -0.7071 0.7071 881.2266 1094.1517)" gradientUnits="userSpaceOnUse">
			<stop  offset="0" style="stop-color:#FFF8C7"/>
			<stop  offset="0.1559" style="stop-color:#FFE436"/>
			<stop  offset="1" style="stop-color:#FE761C"/>
		</radialGradient>
		<path class="st6" d="M87.5,125.1c2.3-2.3,6-2.3,8.2,0l0,0c2.3,2.3,2.3,6,0,8.2l-5.8,5.8c-2.3,2.3-6,2.3-8.2,0l0,0
			c-2.3-2.3-2.3-6,0-8.2L87.5,125.1z"/>
		
			<radialGradient id="SVGID_8_" cx="1085.7312" cy="-570.5291" r="15.8324" gradientTransform="matrix(-1 0 0 1 1220.1621 729.0254)" gradientUnits="userSpaceOnUse">
			<stop  offset="0" style="stop-color:#FFF8C7"/>
			<stop  offset="0.1559" style="stop-color:#FFE436"/>
			<stop  offset="1" style="stop-color:#FE761C"/>
		</radialGradient>
		<path class="st7" d="M129.7,147.4c0-3.2,2.6-5.8,5.8-5.8l0,0c3.2,0,5.8,2.6,5.8,5.8v8.2c0,3.2-2.6,5.8-5.8,5.8l0,0
			c-3.2,0-5.8-2.6-5.8-5.8L129.7,147.4z"/>
		
			<radialGradient id="SVGID_9_" cx="651.8459" cy="-784.0293" r="15.8332" gradientTransform="matrix(-0.7071 0.7071 0.7071 0.7071 1201.8344 231.2599)" gradientUnits="userSpaceOnUse">
			<stop  offset="0" style="stop-color:#FFF8C7"/>
			<stop  offset="0.1559" style="stop-color:#FFE436"/>
			<stop  offset="1" style="stop-color:#FE761C"/>
		</radialGradient>
		<path class="st8" d="M175.3,133.3c-2.3-2.3-2.3-6,0-8.2l0,0c2.3-2.3,6-2.3,8.2,0l5.8,5.8c2.3,2.3,2.3,6,0,8.2l0,0
			c-2.3,2.3-6,2.3-8.2,0L175.3,133.3z"/>
		
			<radialGradient id="SVGID_10_" cx="193.9969" cy="-627.9857" r="15.832" gradientTransform="matrix(0 1 1 0 836.7099 -107.6786)" gradientUnits="userSpaceOnUse">
			<stop  offset="0" style="stop-color:#FFF8C7"/>
			<stop  offset="0.1559" style="stop-color:#FFE436"/>
			<stop  offset="1" style="stop-color:#FE761C"/>
		</radialGradient>
		<path class="st9" d="M197.6,91.1c-3.2,0-5.8-2.6-5.8-5.8l0,0c0-3.2,2.6-5.8,5.8-5.8h8.2c3.2,0,5.8,2.6,5.8,5.8l0,0
			c0,3.2-2.6,5.8-5.8,5.8L197.6,91.1L197.6,91.1z"/>
		
			<radialGradient id="SVGID_11_" cx="-19.3375" cy="-194.0993" r="15.8331" gradientTransform="matrix(0.7071 0.7071 0.7071 -0.7071 338.9424 -89.3508)" gradientUnits="userSpaceOnUse">
			<stop  offset="0" style="stop-color:#FFF8C7"/>
			<stop  offset="0.1559" style="stop-color:#FFE436"/>
			<stop  offset="1" style="stop-color:#FE761C"/>
		</radialGradient>
		<path class="st10" d="M183.5,45.4c-2.3,2.3-6,2.3-8.2,0l0,0c-2.3-2.3-2.3-6,0-8.2l5.8-5.8c2.3-2.3,6-2.3,8.2,0l0,0
			c2.3,2.3,2.3,6,0,8.2L183.5,45.4z"/>
	</g>
	<g>
		
			<radialGradient id="SVGID_12_" cx="1482.584" cy="204.9976" r="156.2858" gradientTransform="matrix(-1 0 0 -1 1533.1738 275.7775)" gradientUnits="userSpaceOnUse">
			<stop  offset="0" style="stop-color:#FFFFFF"/>
			<stop  offset="0.198" style="stop-color:#D9F7FF"/>
			<stop  offset="1" style="stop-color:#89C0F5"/>
		</radialGradient>
		<path class="st11" d="M74.2,53.5c29.7,0,54.5,20.5,61.2,48.1c5.4-2.6,11.4-4.1,17.8-4.1c22.6,0,41,18.3,41,41
			c0,22.6-18.3,41-41,41h-79c-34.8,0-63-28.2-63-63C11.2,81.7,39.4,53.5,74.2,53.5z"/>
		
			<radialGradient id="SVGID_13_" cx="123.1319" cy="190.786" r="89.2845" gradientTransform="matrix(1 0 0 -1 0 275.7775)" gradientUnits="userSpaceOnUse">
			<stop  offset="0" style="stop-color:#FFE436"/>
			<stop  offset="1.980000e-02" style="stop-color:#FFDF35;stop-opacity:0.9742"/>
			<stop  offset="0.1739" style="stop-color:#FFB92C;stop-opacity:0.7739"/>
			<stop  offset="0.3276" style="stop-color:#FE9C25;stop-opacity:0.5739"/>
			<stop  offset="0.4791" style="stop-color:#FE8720;stop-opacity:0.3768"/>
			<stop  offset="0.6274" style="stop-color:#FE7A1D;stop-opacity:0.1839"/>
			<stop  offset="0.7688" style="stop-color:#FE761C;stop-opacity:0"/>
		</radialGradient>
		<path class="st12" d="M74.2,53.5c29.7,0,54.5,20.5,61.2,48.1c5.4-2.6,11.4-4.1,17.8-4.1c22.6,0,41,18.3,41,41
			c0,22.6-18.3,41-41,41h-79c-34.8,0-63-28.2-63-63C11.2,81.7,39.4,53.5,74.2,53.5z"/>
		
			<radialGradient id="SVGID_14_" cx="556.9877" cy="2578.123" r="18.3399" gradientTransform="matrix(0.8392 1.1536 -1.6186 1.3126 3756.2517 -3934.0896)" gradientUnits="userSpaceOnUse">
			<stop  offset="0" style="stop-color:#FFFFFF"/>
			<stop  offset="1" style="stop-color:#FFFFFF;stop-opacity:0"/>
		</radialGradient>
		<path class="st13" d="M66.1,113.6c16.4-13.3,22.8-33.5,14.3-45.2C71.9,56.7,51.7,58,35.3,71.3C19,84.6,12.6,104.9,21,116.6
			C29.6,128.2,49.7,126.9,66.1,113.6z"/>
		
			<radialGradient id="SVGID_15_" cx="611.1305" cy="2550.9475" r="10.0797" gradientTransform="matrix(0.8392 1.1536 -1.6186 1.3126 3756.2517 -3934.0896)" gradientUnits="userSpaceOnUse">
			<stop  offset="0" style="stop-color:#FFFFFF"/>
			<stop  offset="1" style="stop-color:#FFFFFF;stop-opacity:0"/>
		</radialGradient>
		<path class="st14" d="M148.6,130.9c9-7.3,12.5-18.4,7.9-24.9c-4.7-6.4-15.8-5.7-24.8,1.6c-9,7.3-12.5,18.4-7.8,24.8
			C128.5,138.9,139.6,138.2,148.6,130.9z"/>
		
			<radialGradient id="SVGID_16_" cx="1526.7498" cy="88.9366" r="10.5312" gradientTransform="matrix(-0.7056 -0.4583 1.3993 -1.8312 1126.4156 1018.847)" gradientUnits="userSpaceOnUse">
			<stop  offset="0" style="stop-color:#FFFFFF"/>
			<stop  offset="1" style="stop-color:#FFFFFF;stop-opacity:0"/>
		</radialGradient>
		<path class="st15" d="M168.6,146.8c9.9-10,20.1-13.9,22.9-8.8c2.7,5.2-3.1,17.5-13,27.5c-9.9,10-20.1,13.9-22.9,8.8
			C152.9,169.2,158.7,156.9,168.6,146.8z"/>
	</g>
</g>
</svg>
