<?xml version="1.0" encoding="utf-8"?>
<!-- Generator: Adobe Illustrator 25.0.1, SVG Export Plug-In . SVG Version: 6.00 Build 0)  -->
<svg version="1.1" id="Layer_1" xmlns="http://www.w3.org/2000/svg" xmlns:xlink="http://www.w3.org/1999/xlink" x="0px" y="0px"
	 viewBox="0 0 221.1 171.8" style="enable-background:new 0 0 221.1 171.8;" xml:space="preserve">
<style type="text/css">
	.st0{fill:url(#SVGID_1_);}
	.st1{fill:url(#SVGID_2_);}
	.st2{opacity:0.4;fill:url(#SVGID_3_);enable-background:new    ;}
	.st3{opacity:0.2;fill:url(#SVGID_4_);enable-background:new    ;}
	.st4{fill:url(#SVGID_5_);}
	.st5{fill:url(#SVGID_6_);}
	.st6{opacity:0.4;fill:url(#SVGID_7_);enable-background:new    ;}
	.st7{opacity:0.2;fill:url(#SVGID_8_);enable-background:new    ;}
</style>
<g>
	<g>
		
			<radialGradient id="SVGID_1_" cx="-701.5422" cy="261.4363" r="94.9506" gradientTransform="matrix(1 0 0 -1 891.3594 284.503)" gradientUnits="userSpaceOnUse">
			<stop  offset="0" style="stop-color:#FFFFFF"/>
			<stop  offset="0.198" style="stop-color:#D9F7FF"/>
			<stop  offset="1" style="stop-color:#89C0F5"/>
		</radialGradient>
		<path class="st0" d="M175.5,12.6c-18,0-33.1,12.5-37.2,29.2c-3.3-1.6-6.9-2.5-10.8-2.5c-13.7,0-24.9,11.1-24.9,24.9
			s11.1,24.9,24.9,24.9h48c21.1,0,38.2-17.1,38.2-38.2C213.7,29.7,196.6,12.6,175.5,12.6z"/>
		
			<radialGradient id="SVGID_2_" cx="1516.8158" cy="1709.3348" r="11.1436" gradientTransform="matrix(-0.8392 1.1536 1.6186 1.3126 -1304.0852 -3957.2151)" gradientUnits="userSpaceOnUse">
			<stop  offset="0" style="stop-color:#FFFFFF"/>
			<stop  offset="1" style="stop-color:#FFFFFF;stop-opacity:0"/>
		</radialGradient>
		<path class="st1" d="M180.4,49.1c-10-8.1-13.8-20.4-8.7-27.5s17.4-6.3,27.4,1.8c10,8.1,13.8,20.4,8.7,27.5
			C202.6,58,190.3,57.2,180.4,49.1z"/>
		
			<radialGradient id="SVGID_3_" cx="1549.7111" cy="1692.8271" r="6.1233" gradientTransform="matrix(-0.8392 1.1536 1.6186 1.3126 -1304.0852 -3957.2151)" gradientUnits="userSpaceOnUse">
			<stop  offset="0" style="stop-color:#FFFFFF"/>
			<stop  offset="1" style="stop-color:#FFFFFF;stop-opacity:0"/>
		</radialGradient>
		<path class="st2" d="M130.3,59.6c-5.5-4.4-7.6-11.2-4.8-15.1c2.8-3.9,9.6-3.5,15,1c5.5,4.4,7.6,11.2,4.8,15.1
			C142.5,64.5,135.7,64,130.3,59.6z"/>
		
			<radialGradient id="SVGID_4_" cx="-921.7655" cy="656.6138" r="6.4031" gradientTransform="matrix(0.7056 -0.4583 -1.3993 -1.8312 1684.3542 854.9183)" gradientUnits="userSpaceOnUse">
			<stop  offset="0" style="stop-color:#FFFFFF"/>
			<stop  offset="1" style="stop-color:#FFFFFF;stop-opacity:0"/>
		</radialGradient>
		<path class="st3" d="M118.1,69.3c-6-6.1-12.2-8.5-13.9-5.3c-1.7,3.1,1.9,10.6,7.9,16.7c6,6.1,12.2,8.5,13.9,5.3
			C127.7,82.9,124.1,75.4,118.1,69.3z"/>
	</g>
	<g>
		
			<radialGradient id="SVGID_5_" cx="1528.3469" cy="201.6809" r="117.7606" gradientTransform="matrix(-1 0 0 -1 1570.902 284.503)" gradientUnits="userSpaceOnUse">
			<stop  offset="0" style="stop-color:#FFFFFF"/>
			<stop  offset="0.198" style="stop-color:#D9F7FF"/>
			<stop  offset="1" style="stop-color:#89C0F5"/>
		</radialGradient>
		<path class="st4" d="M60.3,69.8c22.3,0,41.1,15.5,46.1,36.2c4.1-2,8.6-3.1,13.4-3.1c17,0,30.8,13.8,30.8,30.9
			c0,17-13.8,30.8-30.8,30.8H60.3c-26.2,0-47.4-21.2-47.4-47.4C12.9,91,34.1,69.8,60.3,69.8z"/>
		
			<radialGradient id="SVGID_6_" cx="565.2076" cy="2593.6064" r="13.8206" gradientTransform="matrix(0.8392 1.1536 -1.6186 1.3126 3766.3467 -3957.2151)" gradientUnits="userSpaceOnUse">
			<stop  offset="0" style="stop-color:#FFFFFF"/>
			<stop  offset="1" style="stop-color:#FFFFFF;stop-opacity:0"/>
		</radialGradient>
		<path class="st5" d="M54.3,115.1C66.6,105.1,71.4,89.8,65,81c-6.4-8.8-21.6-7.8-34,2.2c-12.3,10-17.2,25.3-10.8,34.1
			C26.7,126.1,41.9,125.1,54.3,115.1z"/>
		
			<radialGradient id="SVGID_7_" cx="606.0122" cy="2573.134" r="7.5939" gradientTransform="matrix(0.8392 1.1536 -1.6186 1.3126 3766.3467 -3957.2151)" gradientUnits="userSpaceOnUse">
			<stop  offset="0" style="stop-color:#FFFFFF"/>
			<stop  offset="1" style="stop-color:#FFFFFF;stop-opacity:0"/>
		</radialGradient>
		<path class="st6" d="M116.4,128.1c6.8-5.5,9.4-13.9,5.9-18.7c-3.5-4.8-11.9-4.3-18.7,1.2c-6.8,5.5-9.4,13.9-5.9,18.7
			C101.3,134.2,109.6,133.6,116.4,128.1z"/>
		
			<radialGradient id="SVGID_8_" cx="1614.1055" cy="98.227" r="7.9408" gradientTransform="matrix(-0.7056 -0.4583 1.3993 -1.8312 1136.6964 1066.9106)" gradientUnits="userSpaceOnUse">
			<stop  offset="0" style="stop-color:#FFFFFF"/>
			<stop  offset="1" style="stop-color:#FFFFFF;stop-opacity:0"/>
		</radialGradient>
		<path class="st7" d="M131.5,140.1c7.5-7.5,15.2-10.5,17.2-6.6c2,3.9-2.3,13.2-9.8,20.7s-15.2,10.5-17.2,6.6
			C119.6,157,124,147.7,131.5,140.1z"/>
	</g>
</g>
</svg>
