<?xml version="1.0" encoding="utf-8"?>
<!-- Generator: Adobe Illustrator 25.0.1, SVG Export Plug-In . SVG Version: 6.00 Build 0)  -->
<svg version="1.1" id="Layer_1" xmlns="http://www.w3.org/2000/svg" xmlns:xlink="http://www.w3.org/1999/xlink" x="0px" y="0px"
	 viewBox="0 0 226.6 171.5" style="enable-background:new 0 0 226.6 171.5;" xml:space="preserve">
<style type="text/css">
	.st0{fill:url(#SVGID_1_);}
	.st1{fill:url(#SVGID_2_);}
	.st2{opacity:0.4;fill:url(#SVGID_3_);enable-background:new    ;}
	.st3{opacity:0.2;fill:url(#SVGID_4_);enable-background:new    ;}
</style>
<g>
	
		<radialGradient id="SVGID_1_" cx="1505.8544" cy="204.2194" r="182.3027" gradientTransform="matrix(-0.9376 0 0 -0.9376 1468.0078 225.3855)" gradientUnits="userSpaceOnUse">
		<stop  offset="0" style="stop-color:#FFFFFF"/>
		<stop  offset="0.198" style="stop-color:#D9F7FF"/>
		<stop  offset="1" style="stop-color:#89C0F5"/>
	</radialGradient>
	<path class="st0" d="M81.9,15c32.4,0,59.6,22.4,66.9,52.6c5.9-2.8,12.5-4.5,19.5-4.5c24.7,0,44.8,20,44.8,44.8
		c0,24.7-20,44.8-44.8,44.8H81.9c-38,0-68.8-30.8-68.8-68.8S43.9,15,81.9,15z"/>
	
		<radialGradient id="SVGID_2_" cx="555.9379" cy="2557.2795" r="21.3919" gradientTransform="matrix(0.7869 1.0816 -1.5176 1.2307 3499.8049 -3690.9712)" gradientUnits="userSpaceOnUse">
		<stop  offset="0" style="stop-color:#FFFFFF"/>
		<stop  offset="1" style="stop-color:#FFFFFF;stop-opacity:0"/>
	</radialGradient>
	<path class="st1" d="M73.1,80.8C91,66.3,98,44.1,88.7,31.4C79.4,18.6,57.3,20,39.4,34.5C21.5,49.1,14.5,71.2,23.8,84
		C33.1,96.8,55.1,95.4,73.1,80.8z"/>
	
		<radialGradient id="SVGID_3_" cx="619.0927" cy="2525.5896" r="11.7559" gradientTransform="matrix(0.7869 1.0816 -1.5176 1.2307 3499.8049 -3690.9712)" gradientUnits="userSpaceOnUse">
		<stop  offset="0" style="stop-color:#FFFFFF"/>
		<stop  offset="1" style="stop-color:#FFFFFF;stop-opacity:0"/>
	</radialGradient>
	<path class="st2" d="M163.3,99.7c9.8-8,13.7-20.2,8.6-27.2c-5.1-7-17.2-6.2-27.1,1.8c-9.8,8-13.7,20.2-8.6,27.2
		C141.3,108.5,153.4,107.7,163.3,99.7z"/>
	
		<radialGradient id="SVGID_4_" cx="1529.1278" cy="77.4426" r="12.2933" gradientTransform="matrix(-0.6616 -0.4297 1.312 -1.717 1100.6129 917.5372)" gradientUnits="userSpaceOnUse">
		<stop  offset="0" style="stop-color:#FFFFFF"/>
		<stop  offset="1" style="stop-color:#FFFFFF;stop-opacity:0"/>
	</radialGradient>
	<path class="st3" d="M185.1,117.1c10.8-11,22-15.2,25-9.6c3,5.7-3.4,19.1-14.2,30.1c-10.8,11-22,15.2-25,9.6
		C167.9,141.5,174.3,128.1,185.1,117.1z"/>
</g>
</svg>
