<?xml version="1.0" encoding="utf-8"?>
<!-- Generator: Adobe Illustrator 25.0.1, SVG Export Plug-In . SVG Version: 6.00 Build 0)  -->
<svg version="1.1" id="Layer_1" xmlns="http://www.w3.org/2000/svg" xmlns:xlink="http://www.w3.org/1999/xlink" x="0px" y="0px"
	 viewBox="0 0 235.6 196.7" style="enable-background:new 0 0 235.6 196.7;" xml:space="preserve">
<style type="text/css">
	.st0{fill:url(#SVGID_1_);}
	.st1{opacity:0.5;fill:url(#SVGID_2_);enable-background:new    ;}
	.st2{opacity:0.3;fill:url(#SVGID_3_);enable-background:new    ;}
	.st3{opacity:0.2;fill:url(#SVGID_4_);enable-background:new    ;}
	.st4{fill:url(#SVGID_5_);}
	.st5{fill:url(#SVGID_6_);}
	.st6{opacity:0.4;fill:url(#SVGID_7_);enable-background:new    ;}
	.st7{opacity:0.2;fill:url(#SVGID_8_);enable-background:new    ;}
	.st8{fill:url(#SVGID_9_);}
	.st9{fill:url(#SVGID_10_);}
	.st10{fill:url(#SVGID_11_);}
	.st11{fill:url(#SVGID_12_);}
	.st12{fill:url(#SVGID_13_);}
	.st13{fill:url(#SVGID_14_);}
</style>
<g>
	<g>
		<g>
			
				<radialGradient id="SVGID_1_" cx="1411.302" cy="252.811" r="136.8705" gradientTransform="matrix(-1 0 0 -1 1504.9364 279.6891)" gradientUnits="userSpaceOnUse">
				<stop  offset="0" style="stop-color:#BAD0D6"/>
				<stop  offset="0.198" style="stop-color:#9BBAC2"/>
				<stop  offset="1" style="stop-color:#5D8BB8"/>
			</radialGradient>
			<path class="st0" d="M114.3,11.7c26,0,47.7,18,53.6,42.1c4.7-2.3,10-3.6,15.6-3.6c19.8,0,35.9,16.1,35.9,35.9
				c0,19.8-16.1,35.9-35.9,35.9h-69.2c-30.5,0-55.1-24.7-55.1-55.1C59.2,36.4,83.9,11.7,114.3,11.7z"/>
			
				<radialGradient id="SVGID_2_" cx="541.6693" cy="2544.1436" r="16.06" gradientTransform="matrix(0.8392 1.1536 -1.6186 1.3126 3757.147 -3918.4136)" gradientUnits="userSpaceOnUse">
				<stop  offset="0" style="stop-color:#FFFFFF"/>
				<stop  offset="1" style="stop-color:#FFFFFF;stop-opacity:0"/>
			</radialGradient>
			<path class="st1" d="M107.2,64.4c14.3-11.6,20-29.4,12.5-39.6c-7.4-10.2-25.1-9.1-39.5,2.5C65.9,39,60.3,56.8,67.8,67
				S92.9,76.1,107.2,64.4z"/>
			
				<radialGradient id="SVGID_3_" cx="589.0795" cy="2520.3499" r="8.8284" gradientTransform="matrix(0.8392 1.1536 -1.6186 1.3126 3757.147 -3918.4136)" gradientUnits="userSpaceOnUse">
				<stop  offset="0" style="stop-color:#FFFFFF"/>
				<stop  offset="1" style="stop-color:#FFFFFF;stop-opacity:0"/>
			</radialGradient>
			<path class="st2" d="M179.5,79.5c7.9-6.4,11-16.2,6.9-21.8c-4.1-5.6-13.8-5-21.7,1.4c-7.9,6.4-11,16.2-6.9,21.8
				C161.9,86.6,171.6,85.9,179.5,79.5z"/>
			
				<radialGradient id="SVGID_4_" cx="1475.1404" cy="171.498" r="9.2297" gradientTransform="matrix(-0.7056 -0.4583 1.3993 -1.8312 1002.2221 1091.8947)" gradientUnits="userSpaceOnUse">
				<stop  offset="0" style="stop-color:#FFFFFF"/>
				<stop  offset="1" style="stop-color:#FFFFFF;stop-opacity:0"/>
			</radialGradient>
			<path class="st3" d="M197,93.5c8.7-8.8,17.6-12.2,20-7.7c2.4,4.5-2.7,15.3-11.4,24.1c-8.7,8.8-17.6,12.2-20,7.7
				C183.2,113.1,188.3,102.3,197,93.5z"/>
		</g>
		<g>
			
				<radialGradient id="SVGID_5_" cx="1451.1587" cy="223.0065" r="136.8684" gradientTransform="matrix(-1 0 0 -1 1504.9364 279.6891)" gradientUnits="userSpaceOnUse">
				<stop  offset="0" style="stop-color:#FFFFFF"/>
				<stop  offset="0.198" style="stop-color:#D9F7FF"/>
				<stop  offset="1" style="stop-color:#89C0F5"/>
			</radialGradient>
			<path class="st4" d="M74.4,41.5c26,0,47.7,18,53.6,42.1c4.7-2.3,10-3.6,15.6-3.6c19.8,0,35.9,16.1,35.9,35.9
				s-16.1,35.9-35.9,35.9H74.4c-30.5,0-55.1-24.7-55.1-55.1S44,41.5,74.4,41.5z"/>
			
				<radialGradient id="SVGID_6_" cx="540.293" cy="2568.0562" r="16.06" gradientTransform="matrix(0.8392 1.1536 -1.6186 1.3126 3757.147 -3918.4136)" gradientUnits="userSpaceOnUse">
				<stop  offset="0" style="stop-color:#FFFFFF"/>
				<stop  offset="1" style="stop-color:#FFFFFF;stop-opacity:0"/>
			</radialGradient>
			<path class="st5" d="M67.4,94.2c14.3-11.7,20-29.4,12.5-39.6c-7.5-10.2-25.1-9.1-39.5,2.5c-14.3,11.6-20,29.4-12.5,39.6
				C35.4,107,53,105.9,67.4,94.2z"/>
			
				<radialGradient id="SVGID_7_" cx="587.7059" cy="2544.2637" r="8.8264" gradientTransform="matrix(0.8392 1.1536 -1.6186 1.3126 3757.147 -3918.4136)" gradientUnits="userSpaceOnUse">
				<stop  offset="0" style="stop-color:#FFFFFF"/>
				<stop  offset="1" style="stop-color:#FFFFFF;stop-opacity:0"/>
			</radialGradient>
			<path class="st6" d="M139.6,109.3c7.9-6.4,11-16.1,6.9-21.8c-4.1-5.6-13.8-5-21.7,1.4c-7.9,6.4-11,16.2-6.9,21.8
				C122,116.4,131.7,115.7,139.6,109.3z"/>
			
				<radialGradient id="SVGID_8_" cx="1515.3831" cy="125.2242" r="9.2219" gradientTransform="matrix(-0.7056 -0.4583 1.3993 -1.8312 1055.5374 1055.3732)" gradientUnits="userSpaceOnUse">
				<stop  offset="0" style="stop-color:#FFFFFF"/>
				<stop  offset="1" style="stop-color:#FFFFFF;stop-opacity:0"/>
			</radialGradient>
			<path class="st7" d="M157.1,123.3c8.7-8.8,17.6-12.2,20-7.7c2.4,4.5-2.7,15.3-11.4,24.1c-8.7,8.8-17.6,12.2-20,7.7
				C143.3,142.9,148.4,132.1,157.1,123.3z"/>
		</g>
	</g>
	<g>
		<g>
			
				<radialGradient id="SVGID_9_" cx="-206.723" cy="173.3519" r="19.2064" gradientTransform="matrix(0.866 0.5 0.5 -0.866 154.1097 431.8141)" gradientUnits="userSpaceOnUse">
				<stop  offset="0" style="stop-color:#D4F6FF"/>
				<stop  offset="0.198" style="stop-color:#D9F7FF"/>
				<stop  offset="1" style="stop-color:#89C0F5"/>
			</radialGradient>
			<path class="st8" d="M72.5,180.1c-2.2,3.8-7.1,5.1-10.9,2.9c-3.8-2.2-5.1-7.1-2.9-10.9s15.8-11.5,15.8-11.5
				S74.7,176.3,72.5,180.1z"/>
			
				<radialGradient id="SVGID_10_" cx="1289.1039" cy="1932.1281" r="3.0101" gradientTransform="matrix(-1.3036 0.5794 0.7454 1.946 303.0469 -4329.7485)" gradientUnits="userSpaceOnUse">
				<stop  offset="0" style="stop-color:#FFFFFF"/>
				<stop  offset="1" style="stop-color:#FFFFFF;stop-opacity:0"/>
			</radialGradient>
			<path class="st9" d="M58.9,178.8c-1.2-3.2-0.5-6.6,1.7-7.6c2.2-1,4.9,0.9,6.2,4.1c1.2,3.2,0.5,6.6-1.7,7.6
				C62.9,183.9,60.1,182.1,58.9,178.8z"/>
		</g>
		<g>
			
				<radialGradient id="SVGID_11_" cx="-177.8138" cy="190.0449" r="19.2064" gradientTransform="matrix(0.866 0.5 0.5 -0.866 154.1097 431.8141)" gradientUnits="userSpaceOnUse">
				<stop  offset="0" style="stop-color:#D4F6FF"/>
				<stop  offset="0.198" style="stop-color:#D9F7FF"/>
				<stop  offset="1" style="stop-color:#89C0F5"/>
			</radialGradient>
			<path class="st10" d="M105.8,180.1c-2.2,3.8-7.1,5.1-10.9,2.9s-5.1-7.1-2.9-10.9s15.8-11.5,15.8-11.5S108,176.3,105.8,180.1z"/>
			
				<radialGradient id="SVGID_12_" cx="1267.2263" cy="1938.6418" r="3.008" gradientTransform="matrix(-1.3036 0.5794 0.7454 1.946 303.0469 -4329.7485)" gradientUnits="userSpaceOnUse">
				<stop  offset="0" style="stop-color:#FFFFFF"/>
				<stop  offset="1" style="stop-color:#FFFFFF;stop-opacity:0"/>
			</radialGradient>
			<path class="st11" d="M92.2,178.8c-1.2-3.2-0.5-6.6,1.7-7.6c2.2-1,4.9,0.9,6.2,4.1c1.2,3.2,0.5,6.6-1.7,7.6
				C96.2,183.9,93.5,182.1,92.2,178.8z"/>
		</g>
		<g>
			
				<radialGradient id="SVGID_13_" cx="-148.9012" cy="206.7377" r="19.2062" gradientTransform="matrix(0.866 0.5 0.5 -0.866 154.1097 431.8141)" gradientUnits="userSpaceOnUse">
				<stop  offset="0" style="stop-color:#D4F6FF"/>
				<stop  offset="0.198" style="stop-color:#D9F7FF"/>
				<stop  offset="1" style="stop-color:#89C0F5"/>
			</radialGradient>
			<path class="st12" d="M139.2,180.1c-2.2,3.8-7.1,5.1-10.9,2.9s-5.1-7.1-2.9-10.9s15.8-11.5,15.8-11.5S141.4,176.3,139.2,180.1z"
				/>
			
				<radialGradient id="SVGID_14_" cx="1245.3389" cy="1945.1586" r="3.008" gradientTransform="matrix(-1.3036 0.5794 0.7454 1.946 303.0469 -4329.7485)" gradientUnits="userSpaceOnUse">
				<stop  offset="0" style="stop-color:#FFFFFF"/>
				<stop  offset="1" style="stop-color:#FFFFFF;stop-opacity:0"/>
			</radialGradient>
			<path class="st13" d="M125.6,178.8c-1.2-3.2-0.5-6.6,1.7-7.6c2.2-1,4.9,0.9,6.2,4.1c1.2,3.2,0.5,6.6-1.7,7.6
				C129.6,183.9,126.9,182.1,125.6,178.8z"/>
		</g>
	</g>
</g>
</svg>
