<?xml version="1.0" encoding="utf-8"?>
<!-- Generator: Adobe Illustrator 25.0.1, SVG Export Plug-In . SVG Version: 6.00 Build 0)  -->
<svg version="1.1" id="Layer_1" xmlns="http://www.w3.org/2000/svg" xmlns:xlink="http://www.w3.org/1999/xlink" x="0px" y="0px"
	 viewBox="0 0 233.3 187" style="enable-background:new 0 0 233.3 187;" xml:space="preserve">
<style type="text/css">
	.st0{fill:url(#SVGID_1_);}
	.st1{fill:url(#SVGID_2_);}
	.st2{opacity:0.4;fill:url(#SVGID_3_);enable-background:new    ;}
	.st3{fill:url(#SVGID_4_);}
	.st4{fill:url(#SVGID_5_);}
	.st5{fill:url(#SVGID_6_);}
	.st6{fill:url(#SVGID_7_);}
	.st7{fill:url(#SVGID_8_);}
	.st8{fill:url(#SVGID_9_);}
	.st9{fill:url(#SVGID_10_);}
	.st10{fill:url(#SVGID_11_);}
	.st11{clip-path:url(#SVGID_13_);}
	.st12{clip-path:url(#SVGID_15_);}
	.st13{clip-path:url(#SVGID_17_);}
	.st14{clip-path:url(#SVGID_19_);}
</style>
<g>
	
		<radialGradient id="SVGID_1_" cx="-1374.4054" cy="1306.2887" r="95.3485" gradientTransform="matrix(-1 0 0 1 -1255.6008 -1236.6871)" gradientUnits="userSpaceOnUse">
		<stop  offset="0" style="stop-color:#FFF8C7"/>
		<stop  offset="0.1559" style="stop-color:#FFE436"/>
		<stop  offset="1" style="stop-color:#FE761C"/>
	</radialGradient>
	<path class="st0" d="M57.1,101.1c0,27.7,22.5,50.3,50.2,50.3s50.3-22.5,50.3-50.3S135,50.9,107.3,50.9S57.1,73.3,57.1,101.1z"/>
	<g>
		
			<radialGradient id="SVGID_2_" cx="547.3534" cy="-1632.6847" r="14.3267" gradientTransform="matrix(-0.8392 1.1536 -1.6186 -1.3126 -2056.3306 -2695.0891)" gradientUnits="userSpaceOnUse">
			<stop  offset="0" style="stop-color:#FFFFFF"/>
			<stop  offset="1" style="stop-color:#FFFFFF;stop-opacity:0"/>
		</radialGradient>
		<path class="st1" d="M114.9,95.9c-12.8-10.4-17.7-26.2-11.1-35.3c6.6-9.1,22.4-8.1,35.2,2.3c12.8,10.4,17.7,26.2,11.1,35.3
			C143.5,107.3,127.7,106.3,114.9,95.9z"/>
		
			<radialGradient id="SVGID_3_" cx="-4124.7129" cy="3552.582" r="13.8089" gradientTransform="matrix(-1.1717 -1.1007 0.222 -0.7283 -5542.4941 -1825.3307)" gradientUnits="userSpaceOnUse">
			<stop  offset="0" style="stop-color:#FFFFFF"/>
			<stop  offset="1" style="stop-color:#FFFFFF;stop-opacity:0"/>
		</radialGradient>
		<path class="st2" d="M62.9,112.2c1.7-5.6,10.3-3.2,19.2,5.1c9,8.4,14.8,19.7,13.1,25.2c-1.7,5.6-10.3,3.2-19.2-5.1
			C67.1,129.1,61.2,117.8,62.9,112.2z"/>
	</g>
	
		<radialGradient id="SVGID_4_" cx="108.4266" cy="1261.0448" r="16.5905" gradientTransform="matrix(1 0 0 1 0 -1236.6871)" gradientUnits="userSpaceOnUse">
		<stop  offset="0" style="stop-color:#FFF8C7"/>
		<stop  offset="0.1559" style="stop-color:#FFE436"/>
		<stop  offset="1" style="stop-color:#FE761C"/>
	</radialGradient>
	<path class="st3" d="M113.4,36c0,3.4-2.7,6.1-6.1,6.1l0,0c-3.4,0-6.1-2.7-6.1-6.1v-8.6c0-3.4,2.7-6.1,6.1-6.1l0,0
		c3.4,0,6.1,2.7,6.1,6.1V36z"/>
	
		<radialGradient id="SVGID_5_" cx="-117.7452" cy="1301.5046" r="16.5912" gradientTransform="matrix(0.7071 -0.7071 0.7071 0.7071 -783.1955 -957.5023)" gradientUnits="userSpaceOnUse">
		<stop  offset="0" style="stop-color:#FFF8C7"/>
		<stop  offset="0.1559" style="stop-color:#FFE436"/>
		<stop  offset="1" style="stop-color:#FE761C"/>
	</radialGradient>
	<path class="st4" d="M65.6,50.8c2.3,2.3,2.3,6.3,0,8.6l0,0c-2.3,2.3-6.3,2.3-8.6,0l-6.1-6.1c-2.3-2.3-2.3-6.3,0-8.6l0,0
		c2.3-2.3,6.3-2.3,8.6,0L65.6,50.8z"/>
	
		<radialGradient id="SVGID_6_" cx="-306.3656" cy="1169.9839" r="16.5905" gradientTransform="matrix(0 -1 1 0 -1139.4036 -206.3788)" gradientUnits="userSpaceOnUse">
		<stop  offset="0" style="stop-color:#FFF8C7"/>
		<stop  offset="0.1559" style="stop-color:#FFE436"/>
		<stop  offset="1" style="stop-color:#FE761C"/>
	</radialGradient>
	<path class="st5" d="M42.2,95c3.4,0,6.1,2.7,6.1,6.1l0,0c0,3.4-2.7,6.1-6.1,6.1h-8.6c-3.4,0-6.1-2.7-6.1-6.1l0,0
		c0-3.4,2.7-6.1,6.1-6.1H42.2z"/>
	
		<radialGradient id="SVGID_7_" cx="-346.6619" cy="943.8088" r="16.5913" gradientTransform="matrix(-0.7071 -0.7071 0.7071 -0.7071 -860.2194 576.8157)" gradientUnits="userSpaceOnUse">
		<stop  offset="0" style="stop-color:#FFF8C7"/>
		<stop  offset="0.1559" style="stop-color:#FFE436"/>
		<stop  offset="1" style="stop-color:#FE761C"/>
	</radialGradient>
	<path class="st6" d="M57,142.8c2.3-2.3,6.3-2.3,8.6,0l0,0c2.3,2.3,2.3,6.3,0,8.6l-6.1,6.1c-2.3,2.3-6.3,2.3-8.6,0l0,0
		c-2.3-2.3-2.3-6.3,0-8.6L57,142.8z"/>
	
		<radialGradient id="SVGID_8_" cx="-215.3072" cy="755.1923" r="16.5908" gradientTransform="matrix(-1 0 0 -1 -109.0979 933.0254)" gradientUnits="userSpaceOnUse">
		<stop  offset="0" style="stop-color:#FFF8C7"/>
		<stop  offset="0.1559" style="stop-color:#FFE436"/>
		<stop  offset="1" style="stop-color:#FE761C"/>
	</radialGradient>
	<path class="st7" d="M101.2,166.2c0-3.4,2.7-6.1,6.1-6.1l0,0c3.4,0,6.1,2.7,6.1,6.1v8.6c0,3.4-2.7,6.1-6.1,6.1l0,0
		c-3.4,0-6.1-2.7-6.1-6.1V166.2z"/>
	
		<radialGradient id="SVGID_9_" cx="11.0307" cy="714.8956" r="16.5913" gradientTransform="matrix(-0.7071 0.7071 -0.7071 -0.7071 674.1005 653.8434)" gradientUnits="userSpaceOnUse">
		<stop  offset="0" style="stop-color:#FFF8C7"/>
		<stop  offset="0.1559" style="stop-color:#FFE436"/>
		<stop  offset="1" style="stop-color:#FE761C"/>
	</radialGradient>
	<path class="st8" d="M149,151.4c-2.3-2.3-2.3-6.3,0-8.6l0,0c2.3-2.3,6.3-2.3,8.6,0l6.1,6.1c2.3,2.3,2.3,6.3,0,8.6l0,0
		c-2.3,2.3-6.3,2.3-8.6,0L149,151.4z"/>
	
		<radialGradient id="SVGID_10_" cx="199.4831" cy="846.2545" r="16.5938" gradientTransform="matrix(0 1 -1 0 1030.3123 -97.2809)" gradientUnits="userSpaceOnUse">
		<stop  offset="0" style="stop-color:#FFF8C7"/>
		<stop  offset="0.1559" style="stop-color:#FFE436"/>
		<stop  offset="1" style="stop-color:#FE761C"/>
	</radialGradient>
	<path class="st9" d="M172.4,107.1c-3.4,0-6.1-2.7-6.1-6.1l0,0c0-3.4,2.7-6.1,6.1-6.1h8.6c3.4,0,6.1,2.7,6.1,6.1l0,0
		c0,3.4-2.7,6.1-6.1,6.1H172.4L172.4,107.1z"/>
	
		<radialGradient id="SVGID_11_" cx="239.9447" cy="1072.5908" r="16.5884" gradientTransform="matrix(0.7071 0.7071 -0.7071 0.7071 751.1284 -880.4793)" gradientUnits="userSpaceOnUse">
		<stop  offset="0" style="stop-color:#FFF8C7"/>
		<stop  offset="0.1559" style="stop-color:#FFE436"/>
		<stop  offset="1" style="stop-color:#FE761C"/>
	</radialGradient>
	<path class="st10" d="M157.7,59.4c-2.3,2.3-6.3,2.3-8.6,0l0,0c-2.3-2.3-2.3-6.3,0-8.6l6.1-6.1c2.3-2.3,6.3-2.3,8.6,0l0,0
		c2.3,2.3,2.3,6.3,0,8.6L157.7,59.4z"/>
</g>
<g>
	<g>
		<g>
			<g>
				<g>
					<defs>
						<path id="SVGID_12_" d="M92.9,104.3h-0.3h-0.3c-2.2-0.1-3.8-1.9-3.7-4.1c0.1-2.2,1.9-3.7,4.1-3.7h0.3L92.9,104.3z"/>
					</defs>
					<clipPath id="SVGID_13_">
						<use xlink:href="#SVGID_12_"  style="overflow:visible;"/>
					</clipPath>
					<g class="st11">
						
							<image style="overflow:visible;enable-background:new    ;" width="21" height="12" xlink:href="E672C86C.png"  transform="matrix(0.7335 0 0 0.7335 77.7369 95.614)">
						</image>
					</g>
				</g>
			</g>
		</g>
		
			<image style="overflow:visible;enable-background:new    ;" width="127" height="20" xlink:href="E672C86D.png"  transform="matrix(0.8371 0 0 0.8371 94.0886 96.077)">
		</image>
		<g>
			<g>
				<g>
					<defs>
						<path id="SVGID_14_" d="M201.5,104.6h0.3h0.3c2.2,0.1,3.8,1.9,3.7,4.1c-0.1,2.2-1.9,3.7-4.1,3.7h-0.3L201.5,104.6z"/>
					</defs>
					<clipPath id="SVGID_15_">
						<use xlink:href="#SVGID_14_"  style="overflow:visible;"/>
					</clipPath>
					<g class="st12">
						
							<image style="overflow:visible;enable-background:new    ;" width="20" height="12" xlink:href="E672C86B.png"  transform="matrix(0.7606 0 0 0.7606 201.444 104.3216)">
						</image>
					</g>
				</g>
			</g>
		</g>
	</g>
</g>
<g>
	<g>
		<g>
			<g>
				<g>
					<defs>
						<path id="SVGID_16_" d="M92.9,132.7h-0.3h-0.3c-2.2-0.1-3.8-1.9-3.7-4.1c0.1-2.2,1.9-3.7,4.1-3.7h0.3L92.9,132.7z"/>
					</defs>
					<clipPath id="SVGID_17_">
						<use xlink:href="#SVGID_16_"  style="overflow:visible;"/>
					</clipPath>
					<g class="st13">
						
							<image style="overflow:visible;enable-background:new    ;" width="21" height="12" xlink:href="E672C874.png"  transform="matrix(0.7335 0 0 0.7335 77.7369 124.1051)">
						</image>
					</g>
				</g>
			</g>
		</g>
		
			<image style="overflow:visible;enable-background:new    ;" width="128" height="22" xlink:href="E672C877.png"  transform="matrix(0.7881 0 0 0.7881 96.8023 124.2694)">
		</image>
		<g>
			<g>
				<g>
					<defs>
						<path id="SVGID_18_" d="M201.5,133.2h0.3h0.3c2.2,0.1,3.8,1.9,3.7,4.1c-0.1,2.2-1.9,3.7-4.1,3.7h-0.3L201.5,133.2z"/>
					</defs>
					<clipPath id="SVGID_19_">
						<use xlink:href="#SVGID_18_"  style="overflow:visible;"/>
					</clipPath>
					<g class="st14">
						
							<image style="overflow:visible;enable-background:new    ;" width="20" height="12" xlink:href="E672C875.png"  transform="matrix(0.7606 0 0 0.7606 201.444 132.8129)">
						</image>
					</g>
				</g>
			</g>
		</g>
	</g>
</g>
</svg>
