<?xml version="1.0" encoding="utf-8"?>
<!-- Generator: Adobe Illustrator 25.0.1, SVG Export Plug-In . SVG Version: 6.00 Build 0)  -->
<svg version="1.1" id="Layer_1" xmlns="http://www.w3.org/2000/svg" xmlns:xlink="http://www.w3.org/1999/xlink" x="0px" y="0px"
	 viewBox="0 0 233.3 202.2" style="enable-background:new 0 0 233.3 202.2;" xml:space="preserve">
<style type="text/css">
	.st0{fill:url(#SVGID_1_);}
	.st1{fill:url(#SVGID_2_);}
	.st2{opacity:0.4;fill:url(#SVGID_3_);enable-background:new    ;}
	.st3{fill:url(#SVGID_4_);}
	.st4{fill:url(#SVGID_5_);}
	.st5{fill:url(#SVGID_6_);}
	.st6{fill:url(#SVGID_7_);}
	.st7{fill:url(#SVGID_8_);}
	.st8{fill:url(#SVGID_9_);}
	.st9{fill:url(#SVGID_10_);}
	.st10{fill:url(#SVGID_11_);}
	.st11{clip-path:url(#SVGID_13_);}
	.st12{clip-path:url(#SVGID_15_);}
	.st13{clip-path:url(#SVGID_17_);}
	.st14{clip-path:url(#SVGID_19_);}
</style>
<g>
	<g>
		
			<radialGradient id="SVGID_1_" cx="-112.2352" cy="197.4782" r="109.6269" gradientTransform="matrix(-1 0 0 -1 8.3992 263.3129)" gradientUnits="userSpaceOnUse">
			<stop  offset="0" style="stop-color:#FFF8C7"/>
			<stop  offset="0.1559" style="stop-color:#FFE436"/>
			<stop  offset="1" style="stop-color:#FE761C"/>
		</radialGradient>
		<path class="st0" d="M49.7,102c0,31.9,25.9,57.8,57.7,57.8s57.8-25.9,57.8-57.8s-25.9-57.7-57.8-57.7S49.7,70.1,49.7,102z"/>
		<g>
			
				<radialGradient id="SVGID_2_" cx="1102.8988" cy="2056.46" r="16.4549" gradientTransform="matrix(-0.8392 1.1536 1.6186 1.3126 -2273.0034 -3894.4995)" gradientUnits="userSpaceOnUse">
				<stop  offset="0" style="stop-color:#FFFFFF"/>
				<stop  offset="1" style="stop-color:#FFFFFF;stop-opacity:0"/>
			</radialGradient>
			<path class="st1" d="M116.2,96.1C101.5,84.2,95.8,66,103.4,55.5c7.6-10.5,25.7-9.3,40.5,2.6c14.7,11.9,20.4,30.1,12.8,40.6
				C149,109.2,130.9,108,116.2,96.1z"/>
			
				<radialGradient id="SVGID_3_" cx="-2940.606" cy="-2749.1951" r="15.881" gradientTransform="matrix(-1.1717 -1.1007 -0.222 0.7283 -3980.8359 -1102.1998)" gradientUnits="userSpaceOnUse">
				<stop  offset="0" style="stop-color:#FFFFFF"/>
				<stop  offset="1" style="stop-color:#FFFFFF;stop-opacity:0"/>
			</radialGradient>
			<path class="st2" d="M56.4,114.8c2-6.4,11.8-3.7,22.1,5.9c10.3,9.7,17,22.7,15.1,29c-1.9,6.4-11.8,3.7-22.1-5.9
				C61.2,134.2,54.4,121.2,56.4,114.8z"/>
		</g>
		
			<radialGradient id="SVGID_4_" cx="108.7024" cy="249.4973" r="19.0749" gradientTransform="matrix(1 0 0 -1 0 263.3129)" gradientUnits="userSpaceOnUse">
			<stop  offset="0" style="stop-color:#FFF8C7"/>
			<stop  offset="0.1559" style="stop-color:#FFE436"/>
			<stop  offset="1" style="stop-color:#FE761C"/>
		</radialGradient>
		<path class="st3" d="M114.4,27.2c0,3.9-3.1,7-7,7l0,0c-3.9,0-7-3.1-7-7v-9.9c0-3.9,3.1-7,7-7l0,0c3.9,0,7,3.1,7,7V27.2z"/>
		
			<radialGradient id="SVGID_5_" cx="525.1411" cy="466.3434" r="19.0757" gradientTransform="matrix(0.7071 -0.7071 -0.7071 -0.7071 4.3665 739.8341)" gradientUnits="userSpaceOnUse">
			<stop  offset="0" style="stop-color:#FFF8C7"/>
			<stop  offset="0.1559" style="stop-color:#FFE436"/>
			<stop  offset="1" style="stop-color:#FE761C"/>
		</radialGradient>
		<path class="st4" d="M59.5,44.2c2.7,2.7,2.7,7.2,0,9.9l0,0c-2.7,2.7-7.2,2.7-9.9,0l-7-7c-2.7-2.7-2.7-7.2,0-9.9l0,0
			c2.7-2.7,7.2-2.7,9.9,0L59.5,44.2z"/>
		
			<radialGradient id="SVGID_6_" cx="972.8511" cy="325.3977" r="19.0749" gradientTransform="matrix(0 -1 -1 0 344.5965 1073.6212)" gradientUnits="userSpaceOnUse">
			<stop  offset="0" style="stop-color:#FFF8C7"/>
			<stop  offset="0.1559" style="stop-color:#FFE436"/>
			<stop  offset="1" style="stop-color:#FE761C"/>
		</radialGradient>
		<path class="st5" d="M32.6,95c3.9,0,7,3.1,7,7l0,0c0,3.9-3.1,7-7,7h-9.9c-3.9,0-7-3.1-7-7l0,0c0-3.9,3.1-7,7-7H32.6z"/>
		
			<radialGradient id="SVGID_7_" cx="1189.8606" cy="-91.0375" r="19.0758" gradientTransform="matrix(-0.7071 -0.7071 -0.7071 0.7071 821.117 1069.2537)" gradientUnits="userSpaceOnUse">
			<stop  offset="0" style="stop-color:#FFF8C7"/>
			<stop  offset="0.1559" style="stop-color:#FFE436"/>
			<stop  offset="1" style="stop-color:#FE761C"/>
		</radialGradient>
		<path class="st6" d="M49.6,150c2.7-2.7,7.2-2.7,9.9,0l0,0c2.7,2.7,2.7,7.2,0,9.9l-7,7c-2.7,2.7-7.2,2.7-9.9,0l0,0
			c-2.7-2.7-2.7-7.2,0-9.9L49.6,150z"/>
		
			<radialGradient id="SVGID_8_" cx="1048.749" cy="-538.7515" r="19.0753" gradientTransform="matrix(-1 0 0 1 1154.9021 729.0254)" gradientUnits="userSpaceOnUse">
			<stop  offset="0" style="stop-color:#FFF8C7"/>
			<stop  offset="0.1559" style="stop-color:#FFE436"/>
			<stop  offset="1" style="stop-color:#FE761C"/>
		</radialGradient>
		<path class="st7" d="M100.4,176.9c0-3.9,3.1-7,7-7l0,0c3.9,0,7,3.1,7,7v9.9c0,3.9-3.1,7-7,7l0,0c-3.9,0-7-3.1-7-7V176.9z"/>
		
			<radialGradient id="SVGID_9_" cx="632.4763" cy="-755.7604" r="19.0758" gradientTransform="matrix(-0.7071 0.7071 0.7071 0.7071 1150.5385 252.5071)" gradientUnits="userSpaceOnUse">
			<stop  offset="0" style="stop-color:#FFF8C7"/>
			<stop  offset="0.1559" style="stop-color:#FFE436"/>
			<stop  offset="1" style="stop-color:#FE761C"/>
		</radialGradient>
		<path class="st8" d="M155.4,159.9c-2.7-2.7-2.7-7.2,0-9.9l0,0c2.7-2.7,7.2-2.7,9.9,0l7,7c2.7,2.7,2.7,7.2,0,9.9l0,0
			c-2.7,2.7-7.2,2.7-9.9,0L155.4,159.9z"/>
		
			<radialGradient id="SVGID_10_" cx="184.5981" cy="-614.653" r="19.0787" gradientTransform="matrix(0 1 1 0 810.3122 -81.2809)" gradientUnits="userSpaceOnUse">
			<stop  offset="0" style="stop-color:#FFF8C7"/>
			<stop  offset="0.1559" style="stop-color:#FFE436"/>
			<stop  offset="1" style="stop-color:#FE761C"/>
		</radialGradient>
		<path class="st9" d="M182.3,109c-3.9,0-7-3.1-7-7l0,0c0-3.9,3.1-7,7-7h9.9c3.9,0,7,3.1,7,7l0,0c0,3.9-3.1,7-7,7L182.3,109
			L182.3,109z"/>
		
			<radialGradient id="SVGID_11_" cx="-32.2461" cy="-198.3788" r="19.0725" gradientTransform="matrix(0.7071 0.7071 0.7071 -0.7071 333.792 -76.9173)" gradientUnits="userSpaceOnUse">
			<stop  offset="0" style="stop-color:#FFF8C7"/>
			<stop  offset="0.1559" style="stop-color:#FFE436"/>
			<stop  offset="1" style="stop-color:#FE761C"/>
		</radialGradient>
		<path class="st10" d="M165.3,54.1c-2.7,2.7-7.2,2.7-9.9,0l0,0c-2.7-2.7-2.7-7.2,0-9.9l7-7c2.7-2.7,7.2-2.7,9.9,0l0,0
			c2.7,2.7,2.7,7.2,0,9.9L165.3,54.1z"/>
	</g>
	<g>
		<g>
			<g>
				<g>
					<defs>
						<path id="SVGID_12_" d="M90.9,105.7l-0.3,0l-0.4,0c-2.5-0.1-4.4-2.2-4.2-4.7c0.1-2.5,2.2-4.3,4.7-4.2l0.4,0L90.9,105.7z"/>
					</defs>
					<clipPath id="SVGID_13_">
						<use xlink:href="#SVGID_12_"  style="overflow:visible;"/>
					</clipPath>
					<g class="st11">
						
							<image style="overflow:visible;enable-background:new    ;" width="20" height="11" xlink:href="E672C86C.png"  transform="matrix(0.8936 0 0 0.8936 73.3356 95.8875)">
						</image>
					</g>
				</g>
			</g>
			
				<image style="overflow:visible;enable-background:new    ;" width="126" height="19" xlink:href="E672C86D.png"  transform="matrix(0.9711 0 0 0.9711 92.1557 96.6742)">
			</image>
			<g>
				<g>
					<defs>
						<path id="SVGID_14_" d="M215.7,106.1l0.3,0l0.4,0c2.5,0.1,4.4,2.2,4.2,4.7c-0.1,2.5-2.2,4.3-4.7,4.2l-0.4,0L215.7,106.1z"/>
					</defs>
					<clipPath id="SVGID_15_">
						<use xlink:href="#SVGID_14_"  style="overflow:visible;"/>
					</clipPath>
					<g class="st12">
						
							<image style="overflow:visible;enable-background:new    ;" width="20" height="11" xlink:href="E672C86B.png"  transform="matrix(0.8936 0 0 0.8936 215.4581 106.0863)">
						</image>
					</g>
				</g>
			</g>
		</g>
	</g>
	<g>
		<g>
			<g>
				<g>
					<defs>
						<path id="SVGID_16_" d="M90.9,138.4l-0.3,0l-0.4,0c-2.5-0.1-4.4-2.2-4.2-4.7c0.1-2.5,2.2-4.3,4.7-4.2l0.4,0L90.9,138.4z"/>
					</defs>
					<clipPath id="SVGID_17_">
						<use xlink:href="#SVGID_16_"  style="overflow:visible;"/>
					</clipPath>
					<g class="st13">
						
							<image style="overflow:visible;enable-background:new    ;" width="20" height="11" xlink:href="E672C874.png"  transform="matrix(0.8936 0 0 0.8936 73.3356 128.6451)">
						</image>
					</g>
				</g>
			</g>
			
				<image style="overflow:visible;enable-background:new    ;" width="126" height="20" xlink:href="E672C877.png"  transform="matrix(0.9225 0 0 0.9225 95.2145 129.4318)">
			</image>
			<g>
				<g>
					<defs>
						<path id="SVGID_18_" d="M215.7,138.9l0.3,0l0.4,0c2.5,0.1,4.4,2.2,4.2,4.7c-0.1,2.5-2.2,4.3-4.7,4.2l-0.4,0L215.7,138.9z"/>
					</defs>
					<clipPath id="SVGID_19_">
						<use xlink:href="#SVGID_18_"  style="overflow:visible;"/>
					</clipPath>
					<g class="st14">
						
							<image style="overflow:visible;enable-background:new    ;" width="20" height="11" xlink:href="E672C875.png"  transform="matrix(0.8936 0 0 0.8936 215.4581 138.8441)">
						</image>
					</g>
				</g>
			</g>
		</g>
	</g>
</g>
</svg>
