<?xml version="1.0" encoding="utf-8"?>
<!-- Generator: Adobe Illustrator 25.0.1, SVG Export Plug-In . SVG Version: 6.00 Build 0)  -->
<svg version="1.1" id="Layer_1" xmlns="http://www.w3.org/2000/svg" xmlns:xlink="http://www.w3.org/1999/xlink" x="0px" y="0px"
	 viewBox="0 0 233 205.7" style="enable-background:new 0 0 233 205.7;" xml:space="preserve">
<style type="text/css">
	.st0{fill:url(#SVGID_1_);}
	.st1{fill:url(#SVGID_2_);}
	.st2{opacity:0.4;fill:url(#SVGID_3_);enable-background:new    ;}
	.st3{fill:url(#SVGID_4_);}
	.st4{fill:url(#SVGID_5_);}
	.st5{fill:url(#SVGID_6_);}
	.st6{fill:url(#SVGID_7_);}
	.st7{fill:url(#SVGID_8_);}
	.st8{fill:url(#SVGID_9_);}
	.st9{fill:url(#SVGID_10_);}
	.st10{fill:url(#SVGID_11_);}
	.st11{fill:url(#SVGID_12_);}
	.st12{fill:url(#SVGID_13_);}
	.st13{fill:url(#SVGID_14_);}
	.st14{opacity:0.4;fill:url(#SVGID_15_);enable-background:new    ;}
	.st15{opacity:0.2;fill:url(#SVGID_16_);enable-background:new    ;}
	.st16{fill:url(#SVGID_17_);}
	.st17{fill:url(#SVGID_18_);}
	.st18{fill:url(#SVGID_19_);}
	.st19{opacity:0.4;fill:url(#SVGID_20_);enable-background:new    ;}
	.st20{opacity:0.2;fill:url(#SVGID_21_);enable-background:new    ;}
</style>
<g>
	<g>
		
			<radialGradient id="SVGID_1_" cx="-31.5732" cy="224.5206" r="106.4338" gradientTransform="matrix(-1 0 0 -1 89.7408 293.4663)" gradientUnits="userSpaceOnUse">
			<stop  offset="0" style="stop-color:#FFF8C7"/>
			<stop  offset="0.1559" style="stop-color:#FFE436"/>
			<stop  offset="1" style="stop-color:#FE761C"/>
		</radialGradient>
		<path class="st0" d="M52.4,104.1c0,31,25.1,56.1,56.1,56.1c31,0,56.1-25.1,56.1-56.1c0-31-25.1-56.1-56.1-56.1
			S52.4,73.1,52.4,104.1z"/>
		<g>
			
				<radialGradient id="SVGID_2_" cx="1154.6716" cy="2052.4163" r="15.9758" gradientTransform="matrix(-0.8392 1.1536 1.6186 1.3126 -2222.6047 -3946.1304)" gradientUnits="userSpaceOnUse">
				<stop  offset="0" style="stop-color:#FFFFFF"/>
				<stop  offset="1" style="stop-color:#FFFFFF;stop-opacity:0"/>
			</radialGradient>
			<path class="st1" d="M117,98.3c-14.3-11.6-19.9-29.2-12.5-39.4c7.4-10.2,25-9,39.3,2.5c14.3,11.6,19.8,29.2,12.5,39.4
				C148.9,111.1,131.3,109.9,117,98.3z"/>
			
				<radialGradient id="SVGID_3_" cx="-2871.4685" cy="-2710.1904" r="15.417" gradientTransform="matrix(-1.1717 -1.1007 -0.222 0.7283 -3889.1641 -1053.337)" gradientUnits="userSpaceOnUse">
				<stop  offset="0" style="stop-color:#FFFFFF"/>
				<stop  offset="1" style="stop-color:#FFFFFF;stop-opacity:0"/>
			</radialGradient>
			<path class="st2" d="M58.9,116.5c1.9-6.2,11.5-3.6,21.5,5.7c10,9.4,16.5,22,14.7,28.2c-1.9,6.2-11.5,3.6-21.5-5.7
				C63.6,135.3,57.1,122.7,58.9,116.5z"/>
		</g>
		
			<radialGradient id="SVGID_4_" cx="109.7297" cy="275.025" r="18.5201" gradientTransform="matrix(1 0 0 -1 0 293.4663)" gradientUnits="userSpaceOnUse">
			<stop  offset="0" style="stop-color:#FFF8C7"/>
			<stop  offset="0.1559" style="stop-color:#FFE436"/>
			<stop  offset="1" style="stop-color:#FE761C"/>
		</radialGradient>
		<path class="st3" d="M115.3,31.5c0,3.8-3,6.8-6.8,6.8l0,0c-3.8,0-6.8-3-6.8-6.8v-9.7c0-3.8,3-6.8,6.8-6.8l0,0c3.8,0,6.8,3,6.8,6.8
			V31.5z"/>
		
			<radialGradient id="SVGID_5_" cx="546.9761" cy="516.0641" r="18.5198" gradientTransform="matrix(0.7071 -0.7071 -0.7071 -0.7071 26.9397 794.3298)" gradientUnits="userSpaceOnUse">
			<stop  offset="0" style="stop-color:#FFF8C7"/>
			<stop  offset="0.1559" style="stop-color:#FFE436"/>
			<stop  offset="1" style="stop-color:#FE761C"/>
		</radialGradient>
		<path class="st4" d="M61.9,47.9c2.7,2.7,2.7,7,0,9.6l0,0c-2.7,2.7-7,2.7-9.6,0l-6.8-6.8c-2.7-2.7-2.7-7,0-9.6l0,0
			c2.7-2.7,7-2.7,9.6,0L61.9,47.9z"/>
		
			<radialGradient id="SVGID_6_" cx="1026.5055" cy="377.5119" r="18.5199" gradientTransform="matrix(0 -1 -1 0 400.344 1129.3687)" gradientUnits="userSpaceOnUse">
			<stop  offset="0" style="stop-color:#FFF8C7"/>
			<stop  offset="0.1559" style="stop-color:#FFE436"/>
			<stop  offset="1" style="stop-color:#FE761C"/>
		</radialGradient>
		<path class="st5" d="M35.8,97.3c3.8,0,6.8,3,6.8,6.8l0,0c0,3.8-3,6.8-6.8,6.8h-9.7c-3.8,0-6.8-3-6.8-6.8l0,0c0-3.8,3-6.8,6.8-6.8
			H35.8z"/>
		
			<radialGradient id="SVGID_7_" cx="1267.7085" cy="-59.7315" r="18.5197" gradientTransform="matrix(-0.7071 -0.7071 -0.7071 0.7071 901.2068 1102.428)" gradientUnits="userSpaceOnUse">
			<stop  offset="0" style="stop-color:#FFF8C7"/>
			<stop  offset="0.1559" style="stop-color:#FFE436"/>
			<stop  offset="1" style="stop-color:#FE761C"/>
		</radialGradient>
		<path class="st6" d="M52.3,150.7c2.7-2.7,7-2.7,9.6,0l0,0c2.7,2.7,2.7,7,0,9.6l-6.8,6.8c-2.7,2.7-7,2.7-9.6,0l0,0
			c-2.7-2.7-2.7-7,0-9.6L52.3,150.7z"/>
		
			<radialGradient id="SVGID_8_" cx="1128.99" cy="-539.2657" r="18.5206" gradientTransform="matrix(-1 0 0 1 1236.2438 729.0254)" gradientUnits="userSpaceOnUse">
			<stop  offset="0" style="stop-color:#FFF8C7"/>
			<stop  offset="0.1559" style="stop-color:#FFE436"/>
			<stop  offset="1" style="stop-color:#FE761C"/>
		</radialGradient>
		<path class="st7" d="M101.7,176.7c0-3.8,3-6.8,6.8-6.8l0,0c3.8,0,6.8,3,6.8,6.8v9.7c0,3.8-3,6.8-6.8,6.8l0,0c-3.8,0-6.8-3-6.8-6.8
			V176.7z"/>
		
			<radialGradient id="SVGID_9_" cx="691.9092" cy="-780.468" r="18.5199" gradientTransform="matrix(-0.7071 0.7071 0.7071 0.7071 1209.3069 228.1647)" gradientUnits="userSpaceOnUse">
			<stop  offset="0" style="stop-color:#FFF8C7"/>
			<stop  offset="0.1559" style="stop-color:#FFE436"/>
			<stop  offset="1" style="stop-color:#FE761C"/>
		</radialGradient>
		<path class="st8" d="M155.1,160.3c-2.7-2.7-2.7-7,0-9.6l0,0c2.7-2.7,7-2.7,9.6,0l6.8,6.8c2.7,2.7,2.7,7,0,9.6l0,0
			c-2.7,2.7-7,2.7-9.6,0L155.1,160.3z"/>
		
			<radialGradient id="SVGID_10_" cx="212.2101" cy="-641.7532" r="18.5183" gradientTransform="matrix(0 1 1 0 835.9063 -106.8751)" gradientUnits="userSpaceOnUse">
			<stop  offset="0" style="stop-color:#FFF8C7"/>
			<stop  offset="0.1559" style="stop-color:#FFE436"/>
			<stop  offset="1" style="stop-color:#FE761C"/>
		</radialGradient>
		<path class="st9" d="M181.1,110.9c-3.8,0-6.8-3-6.8-6.8l0,0c0-3.8,3-6.8,6.8-6.8h9.7c3.8,0,6.8,3,6.8,6.8l0,0c0,3.8-3,6.8-6.8,6.8
			H181.1z"/>
		
			<radialGradient id="SVGID_11_" cx="-28.8263" cy="-204.6714" r="18.5198" gradientTransform="matrix(0.7071 0.7071 0.7071 -0.7071 335.0437 -79.9382)" gradientUnits="userSpaceOnUse">
			<stop  offset="0" style="stop-color:#FFF8C7"/>
			<stop  offset="0.1559" style="stop-color:#FFE436"/>
			<stop  offset="1" style="stop-color:#FE761C"/>
		</radialGradient>
		<path class="st10" d="M164.7,57.5c-2.7,2.7-7,2.7-9.6,0l0,0c-2.7-2.7-2.7-7,0-9.6l6.8-6.8c2.7-2.7,7-2.7,9.6,0l0,0
			c2.7,2.7,2.7,7,0,9.6L164.7,57.5z"/>
	</g>
	<g>
		
			<radialGradient id="SVGID_12_" cx="1504.3566" cy="167.2164" r="96.3315" gradientTransform="matrix(-1 0 0 -1 1549.2555 293.4663)" gradientUnits="userSpaceOnUse">
			<stop  offset="0" style="stop-color:#FFFFFF"/>
			<stop  offset="0.198" style="stop-color:#D9F7FF"/>
			<stop  offset="1" style="stop-color:#89C0F5"/>
		</radialGradient>
		<path class="st11" d="M59.4,115.6c18.3,0,33.6,12.6,37.7,29.7c3.3-1.6,7-2.5,11-2.5c13.9,0,25.2,11.3,25.2,25.2
			s-11.3,25.2-25.2,25.2H59.4c-21.4,0-38.8-17.4-38.8-38.8C20.6,133,38,115.6,59.4,115.6z"/>
		
			<radialGradient id="SVGID_13_" cx="76.1075" cy="167.9214" r="82.2827" gradientTransform="matrix(1 0 0 -1 0 293.4663)" gradientUnits="userSpaceOnUse">
			<stop  offset="0" style="stop-color:#FFE436"/>
			<stop  offset="1.980000e-02" style="stop-color:#FFDF35;stop-opacity:0.9742"/>
			<stop  offset="0.1739" style="stop-color:#FFB92C;stop-opacity:0.7739"/>
			<stop  offset="0.3276" style="stop-color:#FE9C25;stop-opacity:0.5739"/>
			<stop  offset="0.4791" style="stop-color:#FE8720;stop-opacity:0.3768"/>
			<stop  offset="0.6274" style="stop-color:#FE7A1D;stop-opacity:0.1839"/>
			<stop  offset="0.7688" style="stop-color:#FE761C;stop-opacity:0"/>
		</radialGradient>
		<path class="st12" d="M59.4,115.6c18.3,0,33.6,12.6,37.7,29.7c3.3-1.6,7-2.5,11-2.5c13.9,0,25.2,11.3,25.2,25.2
			s-11.3,25.2-25.2,25.2H59.4c-21.4,0-38.8-17.4-38.8-38.8C20.6,133,38,115.6,59.4,115.6z"/>
		
			<radialGradient id="SVGID_14_" cx="579.8125" cy="2603.1492" r="11.305" gradientTransform="matrix(0.8392 1.1536 -1.6186 1.3126 3771.8601 -3946.1304)" gradientUnits="userSpaceOnUse">
			<stop  offset="0" style="stop-color:#FFFFFF"/>
			<stop  offset="1" style="stop-color:#FFFFFF;stop-opacity:0"/>
		</radialGradient>
		<path class="st13" d="M54.5,152.7c10.1-8.2,14-20.7,8.8-27.9c-5.2-7.2-17.7-6.4-27.8,1.8c-10.1,8.2-14,20.7-8.8,27.9
			C31.9,161.7,44.4,160.9,54.5,152.7z"/>
		
			<radialGradient id="SVGID_15_" cx="613.1879" cy="2586.4009" r="6.213" gradientTransform="matrix(0.8392 1.1536 -1.6186 1.3126 3771.8601 -3946.1304)" gradientUnits="userSpaceOnUse">
			<stop  offset="0" style="stop-color:#FFFFFF"/>
			<stop  offset="1" style="stop-color:#FFFFFF;stop-opacity:0"/>
		</radialGradient>
		<path class="st14" d="M105.3,163.3c5.5-4.5,7.7-11.4,4.8-15.3c-2.9-4-9.7-3.5-15.3,1c-5.5,4.5-7.7,11.4-4.8,15.3
			C92.9,168.3,99.8,167.8,105.3,163.3z"/>
		
			<radialGradient id="SVGID_16_" cx="1602.3256" cy="67.3179" r="6.4958" gradientTransform="matrix(-0.7056 -0.4583 1.3993 -1.8312 1157.1238 1036.6223)" gradientUnits="userSpaceOnUse">
			<stop  offset="0" style="stop-color:#FFFFFF"/>
			<stop  offset="1" style="stop-color:#FFFFFF;stop-opacity:0"/>
		</radialGradient>
		<path class="st15" d="M117.6,173.1c6.1-6.2,12.4-8.6,14.1-5.4c1.7,3.2-1.9,10.8-8,17c-6.1,6.2-12.4,8.6-14.1,5.4
			C107.9,186.9,111.5,179.3,117.6,173.1z"/>
	</g>
	<g>
		
			<radialGradient id="SVGID_17_" cx="-691.0051" cy="214.1098" r="76.392" gradientTransform="matrix(1 0 0 -1 891.3594 293.4663)" gradientUnits="userSpaceOnUse">
			<stop  offset="0" style="stop-color:#FFFFFF"/>
			<stop  offset="0.198" style="stop-color:#D9F7FF"/>
			<stop  offset="1" style="stop-color:#89C0F5"/>
		</radialGradient>
		<path class="st16" d="M188.8,70.9c-14.5,0-26.6,10-29.9,23.5c-2.6-1.3-5.6-2-8.7-2c-11.1,0-20,9-20,20c0,11.1,9,20,20,20h38.6
			c17,0,30.8-13.8,30.8-30.8C219.6,84.7,205.8,70.9,188.8,70.9z"/>
		
			<radialGradient id="SVGID_18_" cx="126.0416" cy="190.1149" r="102.4157" gradientTransform="matrix(1 0 0 -1 0 293.4663)" gradientUnits="userSpaceOnUse">
			<stop  offset="0" style="stop-color:#FFE436"/>
			<stop  offset="1.980000e-02" style="stop-color:#FFDF35;stop-opacity:0.9742"/>
			<stop  offset="0.1739" style="stop-color:#FFB92C;stop-opacity:0.7739"/>
			<stop  offset="0.3276" style="stop-color:#FE9C25;stop-opacity:0.5739"/>
			<stop  offset="0.4791" style="stop-color:#FE8720;stop-opacity:0.3768"/>
			<stop  offset="0.6274" style="stop-color:#FE7A1D;stop-opacity:0.1839"/>
			<stop  offset="0.7688" style="stop-color:#FE761C;stop-opacity:0"/>
		</radialGradient>
		<path class="st17" d="M188.8,70.9c-14.5,0-26.6,10-29.9,23.5c-2.6-1.3-5.6-2-8.7-2c-11.1,0-20,9-20,20c0,11.1,9,20,20,20h38.6
			c17,0,30.8-13.8,30.8-30.8C219.6,84.7,205.8,70.9,188.8,70.9z"/>
		
			<radialGradient id="SVGID_19_" cx="1523.3848" cy="1736.0366" r="8.9647" gradientTransform="matrix(-0.8392 1.1536 1.6186 1.3126 -1331.2454 -3946.1304)" gradientUnits="userSpaceOnUse">
			<stop  offset="0" style="stop-color:#FFFFFF"/>
			<stop  offset="1" style="stop-color:#FFFFFF;stop-opacity:0"/>
		</radialGradient>
		<path class="st18" d="M192.8,100.3c-8-6.5-11.1-16.4-7-22.1c4.2-5.7,14-5.1,22,1.4c8,6.5,11.1,16.4,7,22.1
			C210.6,107.5,200.8,106.8,192.8,100.3z"/>
		
			<radialGradient id="SVGID_20_" cx="1549.8486" cy="1722.7587" r="4.9271" gradientTransform="matrix(-0.8392 1.1536 1.6186 1.3126 -1331.2454 -3946.1304)" gradientUnits="userSpaceOnUse">
			<stop  offset="0" style="stop-color:#FFFFFF"/>
			<stop  offset="1" style="stop-color:#FFFFFF;stop-opacity:0"/>
		</radialGradient>
		<path class="st19" d="M152.4,108.8c-4.4-3.6-6.1-9-3.8-12.2c2.3-3.1,7.7-2.8,12.1,0.8c4.4,3.6,6.1,9,3.8,12.2
			C162.3,112.7,156.9,112.3,152.4,108.8z"/>
		
			<radialGradient id="SVGID_21_" cx="-899.1074" cy="600.5574" r="5.1497" gradientTransform="matrix(0.7056 -0.4583 -1.3993 -1.8312 1615.056 808.7881)" gradientUnits="userSpaceOnUse">
			<stop  offset="0" style="stop-color:#FFFFFF"/>
			<stop  offset="1" style="stop-color:#FFFFFF;stop-opacity:0"/>
		</radialGradient>
		<path class="st20" d="M142.7,116.5c-4.8-4.9-9.8-6.8-11.2-4.3c-1.3,2.5,1.5,8.6,6.4,13.5c4.8,4.9,9.8,6.8,11.2,4.3
			C150.4,127.5,147.5,121.4,142.7,116.5z"/>
	</g>
</g>
</svg>
