<?xml version="1.0" encoding="utf-8"?>
<!-- Generator: Adobe Illustrator 25.0.1, SVG Export Plug-In . SVG Version: 6.00 Build 0)  -->
<svg version="1.1" id="Layer_1" xmlns="http://www.w3.org/2000/svg" xmlns:xlink="http://www.w3.org/1999/xlink" x="0px" y="0px"
	 viewBox="0 0 174 164" style="enable-background:new 0 0 174 164;" xml:space="preserve">
<style type="text/css">
	.st0{fill:url(#SVGID_1_);}
	.st1{fill:url(#SVGID_2_);}
	.st2{opacity:0.4;fill:url(#SVGID_3_);enable-background:new    ;}
	.st3{fill:url(#SVGID_4_);}
	.st4{fill:url(#SVGID_5_);}
	.st5{fill:url(#SVGID_6_);}
	.st6{fill:url(#SVGID_7_);}
	.st7{fill:url(#SVGID_8_);}
	.st8{fill:url(#SVGID_9_);}
	.st9{fill:url(#SVGID_10_);}
	.st10{fill:url(#SVGID_11_);}
</style>
<g>
	
		<radialGradient id="SVGID_1_" cx="-1019.2371" cy="992.4698" r="40.3553" gradientTransform="matrix(-2.2211 0 0 2.2211 -2164.627 -2150.4485)" gradientUnits="userSpaceOnUse">
		<stop  offset="0" style="stop-color:#FFF8C7"/>
		<stop  offset="0.1559" style="stop-color:#FFE436"/>
		<stop  offset="1" style="stop-color:#FE761C"/>
	</radialGradient>
	<path class="st0" d="M41.2,83.5c0,26.1,21.2,47.3,47.2,47.3s47.2-21.2,47.2-47.3s-21.1-47.2-47.2-47.2
		C62.3,36.3,41.2,57.5,41.2,83.5z"/>
	<g>
		
			<radialGradient id="SVGID_2_" cx="526.2882" cy="-1398.8124" r="6.0642" gradientTransform="matrix(-1.8639 2.5623 -3.595 -2.9154 -3940.8943 -5363.4307)" gradientUnits="userSpaceOnUse">
			<stop  offset="0" style="stop-color:#FFFFFF"/>
			<stop  offset="1" style="stop-color:#FFFFFF;stop-opacity:0"/>
		</radialGradient>
		<path class="st1" d="M95.6,78.7c-12-9.8-16.7-24.6-10.5-33.2c6.2-8.5,21.1-7.6,33.1,2.1c12,9.8,16.7,24.6,10.5,33.1
			C122.4,89.3,107.6,88.4,95.6,78.7z"/>
		
			<radialGradient id="SVGID_3_" cx="-3837.9556" cy="3577.6128" r="5.8468" gradientTransform="matrix(-2.6024 -2.4448 0.4931 -1.6176 -11690.1357 -3487.4927)" gradientUnits="userSpaceOnUse">
			<stop  offset="0" style="stop-color:#FFFFFF"/>
			<stop  offset="1" style="stop-color:#FFFFFF;stop-opacity:0"/>
		</radialGradient>
		<path class="st2" d="M46.7,93.9c1.6-5.2,9.7-3.1,18.1,4.9c8.4,7.9,13.9,18.5,12.4,23.8s-9.7,3.1-18.1-4.9
			C50.6,109.8,45.1,99.2,46.7,93.9z"/>
	</g>
	
		<radialGradient id="SVGID_4_" cx="-263.3041" cy="973.3208" r="7.0218" gradientTransform="matrix(2.2211 0 0 2.2211 674.2867 -2150.4485)" gradientUnits="userSpaceOnUse">
		<stop  offset="0" style="stop-color:#FFF8C7"/>
		<stop  offset="0.1559" style="stop-color:#FFE436"/>
		<stop  offset="1" style="stop-color:#FE761C"/>
	</radialGradient>
	<path class="st3" d="M94.2,22.4c0,3.1-2.6,5.7-5.7,5.7l0,0c-3.1,0-5.7-2.6-5.7-5.7v-8.2c0-3.1,2.6-5.7,5.7-5.7l0,0
		c3.2,0,5.7,2.5,5.7,5.7V22.4z"/>
	
		<radialGradient id="SVGID_5_" cx="-149.7027" cy="856.4427" r="7.022" gradientTransform="matrix(1.5705 -1.5705 1.5705 1.5705 -1071.83 -1548.3499)" gradientUnits="userSpaceOnUse">
		<stop  offset="0" style="stop-color:#FFF8C7"/>
		<stop  offset="0.1559" style="stop-color:#FFE436"/>
		<stop  offset="1" style="stop-color:#FE761C"/>
	</radialGradient>
	<path class="st4" d="M49.2,36.2c2.2,2.2,2.2,5.8,0,8.1l0,0c-2.2,2.3-5.9,2.3-8.1,0l-5.8-5.8c-2.2-2.2-2.2-5.8,0-8.1l0,0
		c2.2-2.2,5.8-2.2,8.1,0L49.2,36.2z"/>
	
		<radialGradient id="SVGID_6_" cx="13.1832" cy="853.9037" r="7.0217" gradientTransform="matrix(0 -2.2211 2.2211 0 -1880.3254 111.7623)" gradientUnits="userSpaceOnUse">
		<stop  offset="0" style="stop-color:#FFF8C7"/>
		<stop  offset="0.1559" style="stop-color:#FFE436"/>
		<stop  offset="1" style="stop-color:#FE761C"/>
	</radialGradient>
	<path class="st5" d="M27.2,77.8c3.1,0,5.7,2.6,5.7,5.7l0,0c0,3.2-2.5,5.7-5.7,5.7h-8.1c-3.2,0-5.7-2.5-5.7-5.7l0,0
		c0-3.1,2.5-5.7,5.7-5.7H27.2z"/>
	
		<radialGradient id="SVGID_7_" cx="130.2384" cy="967.5036" r="7.0221" gradientTransform="matrix(-1.5705 -1.5705 1.5705 -1.5705 -1278.2432 1857.8818)" gradientUnits="userSpaceOnUse">
		<stop  offset="0" style="stop-color:#FFF8C7"/>
		<stop  offset="0.1559" style="stop-color:#FFE436"/>
		<stop  offset="1" style="stop-color:#FE761C"/>
	</radialGradient>
	<path class="st6" d="M41.1,122.7c2.2-2.2,5.9-2.2,8.1,0l0,0c2.2,2.2,2.2,5.8,0,8.1l-5.8,5.8c-2.2,2.2-5.8,2.2-8.1,0l0,0
		c-2.2-2.2-2.2-5.8,0-8.1L41.1,122.7z"/>
	
		<radialGradient id="SVGID_8_" cx="132.5944" cy="1130.3915" r="7.022" gradientTransform="matrix(-2.2211 0 0 -2.2211 381.8506 2666.3743)" gradientUnits="userSpaceOnUse">
		<stop  offset="0" style="stop-color:#FFF8C7"/>
		<stop  offset="0.1559" style="stop-color:#FFE436"/>
		<stop  offset="1" style="stop-color:#FE761C"/>
	</radialGradient>
	<path class="st7" d="M82.7,144.7c0-3.1,2.6-5.7,5.7-5.7l0,0c3.2,0,5.7,2.5,5.7,5.7v8.1c0,3.1-2.6,5.7-5.7,5.7l0,0
		c-3.1,0-5.7-2.5-5.7-5.7V144.7z"/>
	
		<radialGradient id="SVGID_9_" cx="19.1755" cy="1247.4453" r="7.0222" gradientTransform="matrix(-1.5705 1.5705 -1.5705 -1.5705 2127.9736 2064.2825)" gradientUnits="userSpaceOnUse">
		<stop  offset="0" style="stop-color:#FFF8C7"/>
		<stop  offset="0.1559" style="stop-color:#FFE436"/>
		<stop  offset="1" style="stop-color:#FE761C"/>
	</radialGradient>
	<path class="st8" d="M127.6,130.8c-2.2-2.2-2.2-5.8,0-8.1l0,0c2.2-2.2,5.8-2.2,8.1,0l5.8,5.8c2.2,2.2,2.2,5.8,0,8.1l0,0
		c-2.2,2.2-5.8,2.2-8.1,0L127.6,130.8z"/>
	
		<radialGradient id="SVGID_10_" cx="-143.8904" cy="1249.808" r="7.0217" gradientTransform="matrix(0 2.2211 -2.2211 0 2936.4775 404.1684)" gradientUnits="userSpaceOnUse">
		<stop  offset="0" style="stop-color:#FFF8C7"/>
		<stop  offset="0.1559" style="stop-color:#FFE436"/>
		<stop  offset="1" style="stop-color:#FE761C"/>
	</radialGradient>
	<path class="st9" d="M149.6,89.3c-3.1,0-5.7-2.6-5.7-5.7l0,0c0-3.1,2.5-5.7,5.7-5.7h8.1c3.1,0,5.7,2.6,5.7,5.7l0,0
		c0,3.2-2.5,5.7-5.7,5.7H149.6L149.6,89.3z"/>
	
		<radialGradient id="SVGID_11_" cx="-260.765" cy="1136.3881" r="7.022" gradientTransform="matrix(1.5705 1.5705 -1.5705 1.5705 2334.3958 -1341.9598)" gradientUnits="userSpaceOnUse">
		<stop  offset="0" style="stop-color:#FFF8C7"/>
		<stop  offset="0.1559" style="stop-color:#FFE436"/>
		<stop  offset="1" style="stop-color:#FE761C"/>
	</radialGradient>
	<path class="st10" d="M135.7,44.3c-2.2,2.3-5.8,2.3-8.1,0l0,0c-2.2-2.2-2.2-5.8,0-8.1l5.8-5.8c2.2-2.2,5.9-2.2,8.1,0l0,0
		c2.2,2.2,2.2,5.8,0,8.1L135.7,44.3z"/>
</g>
</svg>
