<?xml version="1.0" encoding="utf-8"?>
<!-- Generator: Adobe Illustrator 25.0.1, SVG Export Plug-In . SVG Version: 6.00 Build 0)  -->
<svg version="1.1" id="Layer_1" xmlns="http://www.w3.org/2000/svg" xmlns:xlink="http://www.w3.org/1999/xlink" x="0px" y="0px"
	 viewBox="0 0 231.1 183.5" style="enable-background:new 0 0 231.1 183.5;" xml:space="preserve">
<style type="text/css">
	.st0{fill:url(#SVGID_1_);}
	.st1{fill:url(#SVGID_2_);}
	.st2{opacity:0.4;fill:url(#SVGID_3_);enable-background:new    ;}
	.st3{opacity:0.2;fill:url(#SVGID_4_);enable-background:new    ;}
	.st4{clip-path:url(#SVGID_6_);}
	.st5{clip-path:url(#SVGID_8_);}
	.st6{clip-path:url(#SVGID_10_);}
	.st7{clip-path:url(#SVGID_12_);}
</style>
<g>
	<g>
		
			<radialGradient id="SVGID_1_" cx="1461.634" cy="154.4458" r="171.092" gradientTransform="matrix(-1 0 0 -1 1523.3676 191.9461)" gradientUnits="userSpaceOnUse">
			<stop  offset="0" style="stop-color:#FFFFFF"/>
			<stop  offset="0.198" style="stop-color:#D9F7FF"/>
			<stop  offset="1" style="stop-color:#89C0F5"/>
		</radialGradient>
		<path class="st0" d="M87.6,18.6c32.5,0,59.7,22.5,67,52.7c5.9-2.8,12.5-4.5,19.5-4.5c24.8,0,44.8,20.1,44.8,44.8
			s-20.1,44.8-44.8,44.8H87.6c-38.1,0-68.9-30.8-68.9-68.9S49.5,18.6,87.6,18.6z"/>
		
			<radialGradient id="SVGID_2_" cx="565.0186" cy="2532.9846" r="20.0763" gradientTransform="matrix(0.8392 1.1536 -1.6186 1.3126 3687.6184 -3915.3306)" gradientUnits="userSpaceOnUse">
			<stop  offset="0" style="stop-color:#FFFFFF"/>
			<stop  offset="1" style="stop-color:#FFFFFF;stop-opacity:0"/>
		</radialGradient>
		<path class="st1" d="M78.7,84.4c17.9-14.6,25-36.7,15.7-49.5C85.1,22.1,63,23.6,45,38.1C27.1,52.7,20.1,74.8,29.4,87.6
			C38.7,100.4,60.8,99,78.7,84.4z"/>
		
			<radialGradient id="SVGID_3_" cx="624.2861" cy="2503.2432" r="11.034" gradientTransform="matrix(0.8392 1.1536 -1.6186 1.3126 3687.6184 -3915.3306)" gradientUnits="userSpaceOnUse">
			<stop  offset="0" style="stop-color:#FFFFFF"/>
			<stop  offset="1" style="stop-color:#FFFFFF;stop-opacity:0"/>
		</radialGradient>
		<path class="st2" d="M169,103.3c9.9-8,13.7-20.2,8.6-27.2c-5.1-7-17.2-6.2-27.1,1.8c-9.9,8-13.7,20.2-8.6,27.2
			C147,112.1,159.2,111.3,169,103.3z"/>
		
			<radialGradient id="SVGID_4_" cx="1486.7271" cy="31.5942" r="11.5303" gradientTransform="matrix(-0.7056 -0.4583 1.3993 -1.8312 1201.2 870.315)" gradientUnits="userSpaceOnUse">
			<stop  offset="0" style="stop-color:#FFFFFF"/>
			<stop  offset="1" style="stop-color:#FFFFFF;stop-opacity:0"/>
		</radialGradient>
		<path class="st3" d="M190.9,120.8c10.8-11,22-15.3,25-9.6c3,5.7-3.4,19.2-14.2,30.1c-10.8,11-22,15.3-25,9.6
			C173.7,145.2,180.1,131.7,190.9,120.8z"/>
	</g>
	<g>
		<g>
			<g>
				<g>
					<defs>
						<path id="SVGID_5_" d="M169.9,61.5l-0.3,0l-0.5,0c-2.5-0.1-4.4-2.3-4.2-4.7c0.1-2.5,2.2-4.3,4.7-4.2l0.4,0L169.9,61.5z"/>
					</defs>
					<clipPath id="SVGID_6_">
						<use xlink:href="#SVGID_5_"  style="overflow:visible;"/>
					</clipPath>
					<g class="st4">
						
							<image style="overflow:visible;enable-background:new    ;" width="20" height="11" xlink:href="C719F31C.png"  transform="matrix(0.8973 0 0 0.8973 152.281 51.6574)">
						</image>
					</g>
				</g>
			</g>
			
				<image style="overflow:visible;enable-background:new    ;" width="88" height="55" xlink:href="C719F31D.png"  transform="matrix(0.9842 0 0 0.9842 109.8403 52.4801)">
			</image>
			<g>
				<g>
					<defs>
						<path id="SVGID_7_" d="M109.9,106.6h-0.3c-2.5,0-4.5-2-4.5-4.5s2-4.5,4.5-4.5h0.3V106.6z"/>
					</defs>
					<clipPath id="SVGID_8_">
						<use xlink:href="#SVGID_7_"  style="overflow:visible;"/>
					</clipPath>
					<g class="st5">
						
							<image style="overflow:visible;enable-background:new    ;" width="20" height="10" xlink:href="C719F31B.png"  transform="matrix(0.9 0 0 0.9 92.0443 97.606)">
						</image>
					</g>
				</g>
			</g>
		</g>
	</g>
	<g>
		<g>
			<g>
				<g>
					<defs>
						<path id="SVGID_9_" d="M191.7,172.3l-0.4,0c-2.5,0.1-4.6-1.8-4.7-4.3c-0.1-2.5,1.8-4.5,4.2-4.7l0.5,0l0.2,0L191.7,172.3z"/>
					</defs>
					<clipPath id="SVGID_10_">
						<use xlink:href="#SVGID_9_"  style="overflow:visible;"/>
					</clipPath>
					<g class="st6">
						
							<image style="overflow:visible;enable-background:new    ;" width="20" height="11" xlink:href="C719F324.png"  transform="matrix(0.8973 0 0 0.8973 173.8811 163.2741)">
						</image>
					</g>
				</g>
			</g>
			
				<image style="overflow:visible;enable-background:new    ;" width="73" height="47" xlink:href="C719F327.png"  transform="matrix(0.9745 0 0 0.9745 142.6126 126.5133)">
			</image>
			<g>
				<g>
					<defs>
						<path id="SVGID_11_" d="M142.5,135.5h-0.3c-2.5,0-4.5-2-4.5-4.5s2-4.5,4.5-4.5h0.3V135.5z"/>
					</defs>
					<clipPath id="SVGID_12_">
						<use xlink:href="#SVGID_11_"  style="overflow:visible;"/>
					</clipPath>
					<g class="st7">
						
							<image style="overflow:visible;enable-background:new    ;" width="20" height="10" xlink:href="C719F325.png"  transform="matrix(0.9 0 0 0.9 124.7057 126.5133)">
						</image>
					</g>
				</g>
			</g>
		</g>
	</g>
</g>
</svg>
